<svg width="194" height="75" xmlns="http://www.w3.org/2000/svg"><g fill="none"><path d="M37.407 75a37.88 37.88 0 0 1-4.072-.231v-8.661a4.294 4.294 0 0 1 4.282-4.282 4.294 4.294 0 0 1 4.282 4.282v8.634c-1.411.165-2.845.254-4.3.258h-.192zM0 37.5C0 16.79 16.79 0 37.5 0c.402 0 .802.006 1.2.019C58.857.653 75 17.19 75 37.5c0 10.417-4.248 19.84-11.106 26.636-2.901-5.034-5.702-10.67-8.281-16.743-4.71-11.092-8.68-23.637-11.18-36.642h-.005l-.03-2.138H42.53l-.024 2.313H32.496l-.032-2.313h-1.87l-.022 2.14-.006-.002c-2.5 13.005-6.468 25.55-11.178 36.642-2.58 6.074-5.38 11.709-8.282 16.743C5.13 58.214 1.135 50.296.207 41.463A37.926 37.926 0 0 1 0 37.5zm36.35 6.927h2.534A3.023 3.023 0 0 1 41.9 47.44v8.136a.978.978 0 0 1-.975.975h-6.63a.962.962 0 0 1-.959-.96v-8.151a3.023 3.023 0 0 1 3.015-3.014zm0-14.934h2.534a3.023 3.023 0 0 1 3.015 3.014v5.259a.977.977 0 0 1-.975.974h-6.63a.961.961 0 0 1-.959-.958v-5.275a3.023 3.023 0 0 1 3.015-3.014zm0-14.18h2.534a3.023 3.023 0 0 1 3.015 3.014v5.259a.977.977 0 0 1-.975.975h-6.63a.962.962 0 0 1-.959-.96v-5.274a3.023 3.023 0 0 1 3.015-3.014zM12.743 65.664l-.193-.172.193-.334v.506zm4.299 3.266a37.483 37.483 0 0 1-3.332-2.442v-3.034c1.131-2.027 2.244-4.141 3.332-6.334v11.81zm4.298 2.418a37.537 37.537 0 0 1-3.331-1.806V55.137a169.69 169.69 0 0 0 3.154-6.99l.177-.418v23.619zm4.298 1.735a37.145 37.145 0 0 1-3.331-1.29V45.389a184.306 184.306 0 0 0 3.331-8.879v36.573zm4.279 1.15a37.164 37.164 0 0 1-3.312-.843V33.642a186.507 186.507 0 0 0 3.87-13.474l-.558 54.065zm18.478-.843c-1.01.307-2.038.571-3.081.792l-.752-53.866c1.125 4.544 2.414 9 3.833 13.326V73.39zm4.299-1.597c-1.085.48-2.196.912-3.332 1.29V36.51a183.45 183.45 0 0 0 3.332 8.88v26.403zm4.298-2.25a37.436 37.436 0 0 1-3.332 1.805V47.729l.177.418c1.02 2.4 2.073 4.733 3.155 6.99v14.405zm4.298-3.055a37.418 37.418 0 0 1-3.331 2.442V57.12a148.44 148.44 0 0 0 3.33 6.334v3.034zm1.16-.996l-.193.172v-.506l.194.334z" fill="#158C51"/><path d="M102.96 54.304c3.557 0 6.47-.882 8.74-2.645 2.27-1.763 3.404-4.194 3.404-7.291 0-3.036-.843-5.336-2.53-6.9-1.38-1.319-3.465-2.177-6.256-2.576l-3.91-.598c-1.288-.184-2.285-.598-2.99-1.242-.613-.583-.92-1.365-.92-2.346 0-1.196.43-2.185 1.288-2.967.859-.782 2.1-1.173 3.726-1.173 2.944 0 5.183.751 6.716 2.254l4.048-4.002c-2.637-2.545-6.164-3.818-10.58-3.818-3.496 0-6.271.912-8.326 2.737-2.055 1.825-3.082 4.224-3.082 7.199 0 2.76.782 4.907 2.346 6.44 1.472 1.41 3.588 2.315 6.348 2.714l3.91.598c1.38.184 2.361.552 2.944 1.104.675.675 1.012 1.58 1.012 2.714 0 1.319-.498 2.33-1.495 3.036-.997.705-2.446 1.058-4.347 1.058-3.404 0-6.026-.92-7.866-2.76L91 49.98c1.564 1.564 3.297 2.676 5.198 3.335 1.901.66 4.155.989 6.762.989zm26.818 0c3.067 0 5.55-.981 7.452-2.944a8.448 8.448 0 0 0 2.139-3.749c.383-1.426.575-3.289.575-5.589 0-2.27-.192-4.11-.575-5.52-.383-1.41-1.096-2.668-2.139-3.772-1.84-1.963-4.324-2.944-7.452-2.944-3.036 0-5.505.981-7.406 2.944-1.043 1.104-1.756 2.361-2.139 3.772-.383 1.41-.575 3.25-.575 5.52 0 2.27.192 4.117.575 5.543a8.773 8.773 0 0 0 2.139 3.795c1.901 1.963 4.37 2.944 7.406 2.944zm0-5.382c-1.135 0-2.055-.353-2.76-1.058-.92-.89-1.38-2.837-1.38-5.842 0-2.975.46-4.907 1.38-5.796.705-.705 1.625-1.058 2.76-1.058 1.165 0 2.1.353 2.806 1.058.92.89 1.38 2.821 1.38 5.796 0 3.005-.46 4.953-1.38 5.842-.705.705-1.64 1.058-2.806 1.058zm26.036 5.106v-5.06h-2.3c-1.41 0-2.116-.72-2.116-2.162v-25.53h-5.98v25.898c0 1.87.59 3.48 1.771 4.83 1.18 1.35 2.921 2.024 5.221 2.024h3.404zm11.764 0V30.752h-5.98v23.276h5.98zm13.984.276c2.453 0 4.431-.843 5.934-2.53v2.254h5.842V21.276h-5.98v10.902c-1.441-1.595-3.389-2.392-5.842-2.392-2.484 0-4.416.72-5.796 2.162-1.043 1.073-1.717 2.407-2.024 4.002-.307 1.595-.46 3.619-.46 6.072 0 2.484.153 4.523.46 6.118.307 1.595.981 2.929 2.024 4.002 1.38 1.441 3.327 2.162 5.842 2.162zm1.702-5.382c-.859 0-1.572-.169-2.139-.506-.567-.337-.981-.851-1.242-1.541a9.302 9.302 0 0 1-.529-2.116c-.092-.72-.138-1.633-.138-2.737s.046-2.016.138-2.737a8.92 8.92 0 0 1 .529-2.093c.26-.675.675-1.18 1.242-1.518.567-.337 1.28-.506 2.139-.506 1.656 0 2.752.583 3.289 1.748.537 1.165.805 2.867.805 5.106 0 1.073-.046 1.986-.138 2.737a8.28 8.28 0 0 1-.552 2.139c-.276.675-.698 1.18-1.265 1.518-.567.337-1.28.506-2.139.506z" fill="#333A49"/><path fill="#158C51" d="M167.624 25.968L167.624 21.092 161.506 21.092 161.506 25.968z"/></g></svg>