<svg id="Слой_1" data-name="Слой 1" xmlns="http://www.w3.org/2000/svg" xmlns:xlink="http://www.w3.org/1999/xlink" viewBox="0 0 1447.8 261.6"><defs><style>.cls-1{fill:none;}.cls-2{opacity:0.35;isolation:isolate;}.cls-3{fill:#646667;}.cls-4{fill:url(#Безымянный_градиент_4);}.cls-5{fill:#ec2130;}.cls-6{fill:#fcb131;}.cls-7{fill:#203a70;}.cls-8{fill:#fff;}.cls-9{fill:#545554;}.cls-10{fill:url(#Безымянный_градиент_2);}.cls-11{clip-path:url(#clip-path);}.cls-12{fill:#f58220;}.cls-13{fill:#e73731;}.cls-14{fill:url(#Безымянный_градиент_3);}.cls-15{fill:#081a23;}.cls-16{fill:#231f20;}.cls-17{fill:#b2b3b3;}.cls-18{fill:#d36928;}.cls-19{fill:url(#Безымянный_градиент_9);}.cls-20{fill:url(#Безымянный_градиент_9-2);}.cls-21{fill:url(#Безымянный_градиент_9-3);}.cls-22{fill:url(#Безымянный_градиент_9-4);}.cls-23{fill:url(#Безымянный_градиент_9-5);}.cls-24{fill:url(#Безымянный_градиент_9-6);}.cls-25{fill:#0059a0;}.cls-26{fill:#f9a61c;}.cls-27{fill:url(#Безымянный_градиент_10);}.cls-28{fill:#488ecc;}.cls-29{fill:#be7429;}.cls-30{clip-path:url(#clip-path-2);}.cls-31{fill:url(#Безымянный_градиент_11);}.cls-32{fill:#80d3ef;}.cls-33{fill:#024459;}</style><linearGradient id="Безымянный_градиент_4" x1="553.91" y1="-115.86" x2="553.91" y2="-189" gradientTransform="translate(-412.82 580.95) scale(3.06)" gradientUnits="userSpaceOnUse"><stop offset="0" stop-color="#333334"/><stop offset="1" stop-color="#48484a"/></linearGradient><linearGradient id="Безымянный_градиент_2" x1="430.87" y1="-116.03" x2="430.87" y2="-189.17" gradientTransform="translate(-412.82 580.95) scale(3.06)" gradientUnits="userSpaceOnUse"><stop offset="0" stop-color="#dbdbdc"/><stop offset="1" stop-color="#e8e8e9"/></linearGradient><clipPath id="clip-path" transform="translate(0 22.8)"><rect class="cls-1" x="744.9" y="1.8" width="321.5" height="224.3" rx="29.9" ry="29.9"/></clipPath><radialGradient id="Безымянный_градиент_3" cx="427.1" cy="-644.34" r="7.75" gradientTransform="translate(-393.19 2068.36) scale(3.06)" gradientUnits="userSpaceOnUse"><stop offset="0.01" stop-color="#ffeee1"/><stop offset="0.11" stop-color="#fde8d7"/><stop offset="0.28" stop-color="#fcdbc0"/><stop offset="0.49" stop-color="#fbc698"/><stop offset="0.74" stop-color="#f8a561"/><stop offset="1" stop-color="#f48220"/></radialGradient><linearGradient id="Безымянный_градиент_9" x1="189.04" y1="-115.8" x2="189.04" y2="-188.94" gradientTransform="translate(-412.82 580.95) scale(3.06)" gradientUnits="userSpaceOnUse"><stop offset="0.29" stop-color="#f1f0f0"/><stop offset="0.7" stop-color="#fff"/></linearGradient><linearGradient id="Безымянный_градиент_9-2" x1="150.5" y1="145.33" x2="150.5" y2="88.86" gradientTransform="matrix(1, 0, 0, -1, 0, 254.6)" xlink:href="#Безымянный_градиент_9"/><linearGradient id="Безымянный_градиент_9-3" x1="185.05" y1="145.3" x2="185.05" y2="88.84" gradientTransform="matrix(1, 0, 0, -1, 0, 231.8)" xlink:href="#Безымянный_градиент_9"/><linearGradient id="Безымянный_градиент_9-4" x1="230.95" y1="145.33" x2="230.95" y2="88.86" gradientTransform="matrix(1, 0, 0, -1, 0, 231.8)" xlink:href="#Безымянный_градиент_9"/><linearGradient id="Безымянный_градиент_9-5" x1="115.4" y1="145.33" x2="115.4" y2="88.86" gradientTransform="matrix(1, 0, 0, -1, 0, 231.8)" xlink:href="#Безымянный_градиент_9"/><linearGradient id="Безымянный_градиент_9-6" x1="91.7" y1="145.33" x2="91.7" y2="88.86" gradientTransform="matrix(1, 0, 0, -1, 0, 231.8)" xlink:href="#Безымянный_градиент_9"/><linearGradient id="Безымянный_градиент_10" x1="189.04" y1="-189.03" x2="189.04" y2="-166.78" gradientTransform="translate(-412.82 580.95) scale(3.06)" gradientUnits="userSpaceOnUse"><stop offset="0" stop-color="#0059a0"/><stop offset="1" stop-color="#273a8a"/></linearGradient><clipPath id="clip-path-2" transform="translate(0 22.8)"><path class="cls-1" d="M703,196.4a29.92,29.92,0,0,1-29.9,29.9H411.3a29.92,29.92,0,0,1-29.9-29.9V31.9A29.92,29.92,0,0,1,411.3,2H673a29.92,29.92,0,0,1,29.9,29.9V196.4Z"/></clipPath><linearGradient id="Безымянный_градиент_11" x1="312.1" y1="-197.3" x2="312.1" y2="-111.81" gradientTransform="translate(-412.82 580.95) scale(3.06)" gradientUnits="userSpaceOnUse"><stop offset="0" stop-color="#09b7e7"/><stop offset="0.43" stop-color="#029aca"/><stop offset="0.52" stop-color="#0090bc"/><stop offset="0.84" stop-color="#056e90"/><stop offset="1" stop-color="#04617f"/></linearGradient></defs><title>credit-cards</title><g id="MC"><path class="cls-2" d="M1417,232.5H1147.4c-16.9,0-30.8-15.9-30.8-32.8V30.8A30.94,30.94,0,0,1,1147.4,0H1417a30.94,30.94,0,0,1,30.8,30.8V199.6C1447.8,216.6,1434,232.5,1417,232.5Z" transform="translate(0 22.8)"/><path class="cls-3" d="M1150.6,229a32,32,0,0,1-32-32V32a32,32,0,0,1,32-32h263.3a32,32,0,0,1,32,32V197a32,32,0,0,1-32,32Z" transform="translate(0 22.8)"/><path class="cls-4" d="M1413.1,226.4H1151.3a30,30,0,0,1-29.9-29.9V32.5a30,30,0,0,1,29.9-29.9H1413a30,30,0,0,1,29.9,29.9v164A29.83,29.83,0,0,1,1413.1,226.4Z" transform="translate(0 22.8)"/><g id="Logo"><circle class="cls-5" cx="1234.5" cy="133.5" r="71.1"/><path class="cls-6" d="M1329.9,39.6A70.84,70.84,0,0,0,1282.2,58a63.81,63.81,0,0,0-7.2,7.5h14.4a64.57,64.57,0,0,1,5.4,7.5h-25.2a67.86,67.86,0,0,0-4.1,7.5h33.4q1.65,3.6,3,7.5h-39.4q-1.2,3.75-2.1,7.5h43.5a75.09,75.09,0,0,1,1.6,15.1,70.45,70.45,0,0,1-3.7,22.6h-39.4q1.35,3.9,3,7.5h33.4a67.87,67.87,0,0,1-4.1,7.5h-25.2a79.07,79.07,0,0,0,5.4,7.5h14.5a63.81,63.81,0,0,1-7.2,7.5,71,71,0,1,0,47.7-123.6Z" transform="translate(0 22.8)"/><path class="cls-7" d="M1217.9,118.4a11.56,11.56,0,0,0-1.7-.1q-6.6,0-6.6,4.5a2.73,2.73,0,0,0,2.8,3C1215.5,125.8,1217.8,122.8,1217.9,118.4Zm5.6,13.1h-6.4l.1-3a9.79,9.79,0,0,1-8.1,3.5c-4.2,0-7-3.3-7-8,0-7.1,5-11.3,13.5-11.3.9,0,2,.1,3.1.2a9.91,9.91,0,0,0,.3-1.9c0-1.9-1.3-2.7-4.9-2.7a28,28,0,0,0-8.2,1.3c.1-.5,1.1-6.6,1.1-6.6a31.75,31.75,0,0,1,9.2-1.6c6.6,0,10.1,3,10.1,8.6a36.65,36.65,0,0,1-.6,5.8C1225.1,120.2,1223.7,129.3,1223.5,131.5Z" transform="translate(0 22.8)"/><polygon class="cls-7" points="1198.9 154.3 1191.2 154.3 1195.6 126.6 1185.7 154.3 1180.5 154.3 1179.8 126.7 1175.2 154.3 1167.9 154.3 1174 118.2 1185.1 118.2 1185.7 138.4 1192.5 118.2 1204.9 118.2 1198.9 154.3"/><path class="cls-7" d="M1339.5,118.4a11.56,11.56,0,0,0-1.7-.1q-6.6,0-6.6,4.5a2.73,2.73,0,0,0,2.8,3C1337.1,125.8,1339.3,122.8,1339.5,118.4Zm5.6,13.1h-6.4l.1-3c-1.9,2.4-4.6,3.5-8.1,3.5-4.2,0-7.1-3.3-7.1-8,0-7.1,5-11.3,13.5-11.3.9,0,2,.1,3.1.2a9.91,9.91,0,0,0,.3-1.9c0-1.9-1.3-2.7-4.9-2.7a28,28,0,0,0-8.2,1.3c.1-.5,1.1-6.6,1.1-6.6a31.75,31.75,0,0,1,9.2-1.6c6.6,0,10.1,3,10.1,8.6a36.65,36.65,0,0,1-.6,5.8C1346.7,120.2,1345.3,129.3,1345.1,131.5Z" transform="translate(0 22.8)"/><path class="cls-7" d="M1257.8,131.1a16.91,16.91,0,0,1-5.5,1c-3.9,0-6.1-2.3-6.1-6.4-.1-1.3.6-4.7,1.1-7.8.4-2.7,3.3-20,3.3-20h7.7l-.9,4.4h4.6l-1,7h-4.7c-.9,5.6-2.2,12.5-2.2,13.4,0,1.5.8,2.2,2.6,2.2a5.84,5.84,0,0,0,2.1-.3Z" transform="translate(0 22.8)"/><path class="cls-7" d="M1281.3,130.8a26.56,26.56,0,0,1-7.9,1.2c-8.6,0-13.1-4.5-13.1-13.1,0-10,5.7-17.4,13.4-17.4,6.3,0,10.4,4.1,10.4,10.6a34.39,34.39,0,0,1-.9,7.2h-15.3c-.5,4.3,2.2,6,6.7,6a19.71,19.71,0,0,0,8-1.8Zm-4.3-17.4c0-.6.8-5.2-3.6-5.2-2.4,0-4.2,1.9-4.9,5.2Z" transform="translate(0 22.8)"/><path class="cls-7" d="M1228.1,111.5c0,3.7,1.8,6.3,5.9,8.2,3.1,1.5,3.6,1.9,3.6,3.2,0,1.8-1.4,2.7-4.4,2.7a21.8,21.8,0,0,1-6.9-1.2s-1,6.5-1.1,6.8a38.49,38.49,0,0,0,8,.9c8.1,0,11.9-3.1,11.9-9.8,0-4-1.6-6.4-5.4-8.2-3.2-1.5-3.6-1.8-3.6-3.2,0-1.6,1.3-2.4,3.8-2.4,1.5,0,3.6.2,5.5.4l1.1-6.8a55.25,55.25,0,0,0-6.8-.6C1231.1,101.5,1228.1,106,1228.1,111.5Z" transform="translate(0 22.8)"/><path class="cls-7" d="M1318.8,102.3a16,16,0,0,1,6.9,1.9l1.3-7.8c-1.1-.4-5.1-3.1-8.5-3.1-5.2,0-9.5,2.6-12.6,6.8-4.5-1.5-6.3,1.5-8.6,4.5l-2,.5a9.68,9.68,0,0,0,.2-2.9h-7.1c-1,9.1-2.7,18.3-4,27.4l-.4,2h7.7c1.3-8.4,2-13.7,2.4-17.4l2.9-1.6c.4-1.6,1.8-2.2,4.5-2.1a29.16,29.16,0,0,0-.5,6c0,9.6,5.2,15.6,13.5,15.6a23.27,23.27,0,0,0,6.8-1.1l1.4-8.2a14.6,14.6,0,0,1-6.6,1.8c-4.5,0-7.2-3.3-7.2-8.8C1309,107.9,1313.1,102.3,1318.8,102.3Z" transform="translate(0 22.8)"/><path class="cls-7" d="M1384.2,95.4l-1.7,10.4c-2.1-2.8-4.4-4.8-7.4-4.8-3.9,0-7.4,3-9.8,7.3-3.2-.7-6.6-1.8-6.6-1.8h0a21.52,21.52,0,0,0,.3-4.4h-7.1c-1,9.1-2.7,18.3-4,27.4l-.4,2h7.7q1.5-10.2,2.4-16.8c2.6-2.4,4-4.5,6.6-4.3a24.77,24.77,0,0,0-1.9,9.5c0,7.3,3.7,12.2,9.3,12.2a9.24,9.24,0,0,0,7.1-3.2l-.4,2.7h7.3l5.9-36.1-7.3-.1Zm-9.7,29.3c-2.6,0-4-1.9-4-5.8,0-5.8,2.5-9.8,6-9.8,2.7,0,4.1,2,4.1,5.7C1380.6,120.7,1378.1,124.7,1374.5,124.7Z" transform="translate(0 22.8)"/><polygon class="cls-8" points="1201.1 152.2 1193.4 152.2 1197.8 124.4 1187.9 152.2 1182.7 152.2 1182 124.6 1177.4 152.2 1170.2 152.2 1176.2 116.1 1187.3 116.1 1187.6 138.4 1195.1 116.1 1207.1 116.1 1201.1 152.2"/><path class="cls-8" d="M1220.1,116.3a11.56,11.56,0,0,0-1.7-.1q-6.6,0-6.6,4.5a2.73,2.73,0,0,0,2.8,3C1217.7,123.6,1220,120.6,1220.1,116.3Zm5.6,13.1h-6.4l.1-3c-1.9,2.4-4.6,3.5-8.1,3.5-4.2,0-7-3.3-7-8,0-7.1,5-11.3,13.5-11.3.9,0,2,.1,3.1.2a9.91,9.91,0,0,0,.3-1.9c0-1.9-1.3-2.7-4.9-2.7a28,28,0,0,0-8.2,1.3c.1-.5,1.1-6.6,1.1-6.6a31.75,31.75,0,0,1,9.2-1.6c6.6,0,10.1,3,10.1,8.6a36.65,36.65,0,0,1-.6,5.8C1227.4,118,1225.9,127.1,1225.7,129.4Z" transform="translate(0 22.8)"/><path class="cls-8" d="M1329.2,94.3l-1.3,7.8a14.72,14.72,0,0,0-6.9-1.9c-5.8,0-9.8,5.6-9.8,13.5,0,5.5,2.7,8.8,7.2,8.8a16,16,0,0,0,6.6-1.8l-1.4,8.2a23.27,23.27,0,0,1-6.8,1.1c-8.3,0-13.5-6-13.5-15.6,0-12.9,7.2-21.9,17.4-21.9A23.08,23.08,0,0,1,1329.2,94.3Z" transform="translate(0 22.8)"/><path class="cls-8" d="M1341.7,116.3a11.56,11.56,0,0,0-1.7-.1q-6.6,0-6.6,4.5a2.73,2.73,0,0,0,2.8,3C1339.3,123.6,1341.5,120.6,1341.7,116.3Zm5.6,13.1h-6.4l.1-3c-1.9,2.4-4.6,3.5-8.1,3.5-4.2,0-7-3.3-7-8,0-7.1,5-11.3,13.5-11.3.9,0,2,.1,3.1.2a9.91,9.91,0,0,0,.3-1.9c0-1.9-1.3-2.7-4.9-2.7a28,28,0,0,0-8.2,1.3c.1-.5,1.1-6.6,1.1-6.6a31.75,31.75,0,0,1,9.2-1.6c6.6,0,10.1,3,10.1,8.6a36.65,36.65,0,0,1-.6,5.8C1348.9,118,1347.5,127.1,1347.3,129.4Z" transform="translate(0 22.8)"/><path class="cls-8" d="M1260,128.9a16.91,16.91,0,0,1-5.5,1c-3.9,0-6.1-2.3-6.1-6.4-.1-1.3.6-4.7,1.1-7.8.4-2.7,3.3-20,3.3-20h7.7l-.9,4.4h3.9l-1,7h-4c-.9,5.6-2.2,12.5-2.2,13.4,0,1.5.8,2.2,2.6,2.2a5.84,5.84,0,0,0,2.1-.3Z" transform="translate(0 22.8)"/><path class="cls-8" d="M1283.5,128.7a26.56,26.56,0,0,1-7.9,1.2c-8.6,0-13.1-4.5-13.1-13.1,0-10,5.7-17.4,13.4-17.4,6.3,0,10.4,4.1,10.4,10.6a36,36,0,0,1-.9,7.2h-15.3c-.5,4.3,2.2,6,6.7,6a19.71,19.71,0,0,0,8-1.8Zm-4.3-17.4c0-.6.8-5.2-3.6-5.2-2.4,0-4.2,1.9-4.9,5.2Z" transform="translate(0 22.8)"/><path class="cls-8" d="M1230.3,109.3c0,3.7,1.8,6.3,5.9,8.2,3.1,1.5,3.6,1.9,3.6,3.2,0,1.8-1.4,2.7-4.4,2.7a21.8,21.8,0,0,1-6.9-1.2s-1,6.5-1.1,6.8a38.49,38.49,0,0,0,8,.9c8.1,0,11.9-3.1,11.9-9.8,0-4-1.6-6.4-5.4-8.2-3.2-1.5-3.6-1.8-3.6-3.2,0-1.6,1.3-2.4,3.8-2.4,1.5,0,3.6.2,5.5.4l1.1-6.8a55.25,55.25,0,0,0-6.8-.6C1233.3,99.4,1230.3,103.9,1230.3,109.3Z" transform="translate(0 22.8)"/><path class="cls-8" d="M1388.1,129.4h-7.3l.4-2.7a8.92,8.92,0,0,1-7.1,3.2c-5.6,0-9.3-4.8-9.3-12.2,0-9.8,5.8-18,12.6-18,3,0,5.3,1.2,7.4,4l1.7-10.4h7.6Zm-11.4-6.8c3.6,0,6.1-4.1,6.1-9.9,0-3.7-1.4-5.7-4.1-5.7-3.5,0-6,4.1-6,9.9C1372.8,120.6,1374.1,122.6,1376.7,122.6Z" transform="translate(0 22.8)"/><path class="cls-8" d="M1354.2,100c-1,9.1-2.7,18.3-4,27.3l-.4,2h7.7c2.8-17.9,3.4-21.4,7.8-21a30.37,30.37,0,0,1,2.9-8.5c-3.2-.7-5,1.2-7.4,4.6a34.89,34.89,0,0,0,.5-4.4Z" transform="translate(0 22.8)"/><path class="cls-8" d="M1290.7,100c-1,9.1-2.7,18.3-4,27.3l-.4,2h7.7c2.8-17.9,3.4-21.4,7.8-21a30.37,30.37,0,0,1,2.9-8.5c-3.2-.7-5,1.2-7.4,4.6a34.89,34.89,0,0,0,.5-4.4Z" transform="translate(0 22.8)"/></g><path class="cls-9" d="M1413.1,2.4H1151.3c-16.9,0-29.9,12.2-29.9,29.9v7.5c0-16.5,7-33.9,29.9-33.9H1413c21,0,29.9,17.4,29.9,33.9V32.3A29.64,29.64,0,0,0,1413.1,2.4Z" transform="translate(0 22.8)"/><path d="M1151.3,226.7H1413c16.9,0,29.9-12.2,29.9-29.9v-7.5c0,16.5-7,33.9-29.9,33.9H1151.3c-21,0-29.9-17.4-29.9-33.9v7.5A29.79,29.79,0,0,0,1151.3,226.7Z" transform="translate(0 22.8)"/></g><g id="Discover"><path class="cls-2" d="M1040.4,232.5H770.8c-16.9,0-30.8-15.9-30.8-32.8V30.8A30.94,30.94,0,0,1,770.8,0h269.6a30.94,30.94,0,0,1,30.8,30.8V199.6C1071.2,216.6,1057.4,232.5,1040.4,232.5Z" transform="translate(0 22.8)"/><path class="cls-3" d="M774,229a32,32,0,0,1-32-32V32A32,32,0,0,1,774,0h263.3a32,32,0,0,1,32,32V197a32,32,0,0,1-32,32Z" transform="translate(0 22.8)"/><path class="cls-10" d="M1036.5,225.9H774.8A30,30,0,0,1,744.9,196V32A30,30,0,0,1,774.8,2.1h261.7A30,30,0,0,1,1066.4,32V196A30,30,0,0,1,1036.5,225.9Z" transform="translate(0 22.8)"/><g class="cls-11"><path class="cls-12" d="M1066.4,136s-88.2,62.3-249.8,90.1h249.8Z" transform="translate(0 22.8)"/><path class="cls-13" d="M1035.4,200.6" transform="translate(0 22.8)"/><path class="cls-14" d="M913.8,73.2c-13.3,0-24,10.4-24,23.1,0,13.6,10.3,23.7,24,23.7,13.4,0,23.9-10.3,23.9-23.5C937.7,83.5,927.2,73.2,913.8,73.2Z" transform="translate(0 22.8)"/><path class="cls-15" d="M777.5,74.1H764.6v45h12.8c6.8,0,11.7-1.6,16.1-5.2a22.89,22.89,0,0,0,8.2-17.3C801.6,83.3,791.7,74.1,777.5,74.1Zm10.2,33.8c-2.8,2.5-6.3,3.6-12,3.6h-2.3V81.7h2.4c5.7,0,9.1,1,12,3.6a15.59,15.59,0,0,1-.1,22.6Z" transform="translate(0 22.8)"/><rect class="cls-15" x="805.7" y="96.9" width="8.8" height="45"/><path class="cls-15" d="M835.9,91.3c-5.3-2-6.8-3.2-6.8-5.7,0-2.8,2.8-5,6.5-5,2.6,0,4.8,1.1,7.1,3.6l4.6-6a19.76,19.76,0,0,0-13.2-5c-8,0-14,5.5-14,12.9,0,6.2,2.8,9.4,11.1,12.4a31.5,31.5,0,0,1,6.1,2.6,5.27,5.27,0,0,1,2.6,4.7c0,3.7-2.9,6.3-6.8,6.3a10.39,10.39,0,0,1-9.6-6l-5.7,5.5c4,5.9,8.9,8.6,15.6,8.6,9.1,0,15.5-6.1,15.5-14.8C848.9,98.2,845.9,95,835.9,91.3Z" transform="translate(0 22.8)"/><path class="cls-15" d="M851.7,96.6a23.35,23.35,0,0,0,23.8,23.5,23.92,23.92,0,0,0,11-2.6V107.2c-3.5,3.5-6.6,4.9-10.6,4.9-8.8,0-15.1-6.4-15.1-15.5,0-8.6,6.5-15.5,14.7-15.5,4.2,0,7.4,1.5,11,5.1V75.9a21.77,21.77,0,0,0-10.8-2.8C862.3,73.1,851.7,83.5,851.7,96.6Z" transform="translate(0 22.8)"/><polygon class="cls-15" points="957.6 127.1 945.6 96.9 936 96.9 955.1 143 959.8 143 979.3 96.9 969.8 96.9 957.6 127.1"/><polygon class="cls-15" points="983.3 141.9 1008.2 141.9 1008.2 134.3 992.1 134.3 992.1 122.1 1007.6 122.1 1007.6 114.5 992.1 114.5 992.1 104.5 1008.2 104.5 1008.2 96.9 983.3 96.9 983.3 141.9"/><path class="cls-15" d="M1043,87.4c0-8.4-5.8-13.3-15.9-13.3h-13v45h8.8V101h1.1l12.1,18.1h10.8l-14.2-19C1039.3,98.8,1043,94.3,1043,87.4Zm-17.7,7.4h-2.6V81.2h2.7c5.5,0,8.5,2.3,8.5,6.7S1031,94.8,1025.3,94.8Z" transform="translate(0 22.8)"/><path class="cls-16" d="M843.3,130.9,855,143.2V131.5h1.7v15.7L845,134.9v11.6h-1.7V130.9Z" transform="translate(0 22.8)"/><path class="cls-16" d="M843.1,130.9v15.9h2V135.4c.5.5,11.7,12.3,11.7,12.3V131.4h-2v11.4c-.5-.5-11.7-12.3-11.7-12.3Zm.3.4c.5.5,11.8,12.3,11.8,12.3V131.7h1.4v15.2c-.5-.5-11.7-12.3-11.7-12.3v11.8h-1.4C843.4,146.2,843.4,132.1,843.4,131.3Z" transform="translate(0 22.8)"/><path class="cls-16" d="M864.8,131.6h7.8v1.6h-6.1v4.5h6v1.6h-6v5.9h6.1v1.6h-7.8Z" transform="translate(0 22.8)"/><path class="cls-16" d="M872.6,131.4h-8v15.4h8.1v-1.9h-6.1v-5.6h5.9v-1.9h-5.9v-4.2h6.1v-1.9h-.1Zm-.1.3v1.2h-6.1v4.8h6v1.2h-6v6.2h6.1v1.2H865V131.5C865.3,131.7,872.2,131.7,872.5,131.7Z" transform="translate(0 22.8)"/><path class="cls-16" d="M884.5,146.6h-1.7V133.1h-3.6v-1.6h9v1.6h-3.7Z" transform="translate(0 22.8)"/><path class="cls-16" d="M888.2,131.4H879v1.9h3.6v13.5h2V133.3h3.7v-1.9Zm-.2.3v1.2h-3.7v13.5h-1.4V132.9h-3.6v-1.2Z" transform="translate(0 22.8)"/><path class="cls-16" d="M899.4,142.9l4.9-12.1,4.9,12.1,4-11.3H915l-5.8,15.8-4.9-12.1-4.9,12.1-5.8-15.8h1.8Z" transform="translate(0 22.8)"/><path class="cls-16" d="M904.1,130.7s-4.4,11-4.7,11.7c-.3-.7-3.9-11-3.9-11h-2.1l6,16.4s4.6-11.5,4.9-12.2c.3.7,4.9,12.2,4.9,12.2l6-16.4H913s-3.6,10.3-3.9,11c-.3-.7-4.9-12-4.9-12Zm-4.6,12.2s4.5-11,4.7-11.7c.3.7,4.9,12.1,4.9,12.1s4-11.4,4.1-11.6h1.5c-.1.4-5.3,14.5-5.6,15.3-.3-.7-4.9-12.1-4.9-12.1s-4.6,11.4-4.9,12.1c-.3-.7-5.4-14.9-5.6-15.3h1.5c.1.2,4.1,11.6,4.1,11.6Z" transform="translate(0 22.8)"/><path class="cls-16" d="M936.6,139.1a7.9,7.9,0,1,1-7.9-7.8A7.9,7.9,0,0,1,936.6,139.1Zm-14,0a6.2,6.2,0,1,0,12.4,0,6.2,6.2,0,1,0-12.4,0Z" transform="translate(0 22.8)"/><path class="cls-16" d="M920.8,139.1a8,8,0,0,0,16,0,8,8,0,1,0-16,0Zm.3,0a7.7,7.7,0,1,1,7.7,7.6A7.68,7.68,0,0,1,921.1,139.1Z" transform="translate(0 22.8)"/><path class="cls-16" d="M922.4,139.1a6.3,6.3,0,1,0,6.3-6.4A6.43,6.43,0,0,0,922.4,139.1Zm.4,0a6.1,6.1,0,0,1,6-6.1,6,6,0,0,1,6,6.1,6.1,6.1,0,0,1-6,6.1A6,6,0,0,1,922.8,139.1Z" transform="translate(0 22.8)"/><path class="cls-16" d="M945.6,146.6h-1.7V131.5h2.2c2.9,0,5.5.8,5.5,4.2a4,4,0,0,1-3.8,4.2l4.8,6.8h-2.1l-4.5-6.6h-.4Zm0-8.1h.5c1.9,0,3.8-.4,3.8-2.7,0-2.5-1.8-2.7-3.8-2.7h-.5Z" transform="translate(0 22.8)"/><path class="cls-16" d="M943.9,131.4h-.2v15.4h2v-6.6h.3c0,.1,4.4,6.5,4.4,6.5l2.2.1h.3s-4.6-6.5-4.8-6.8a4.07,4.07,0,0,0,3.7-4.2c0-2.9-1.9-4.3-5.7-4.3l-2.2-.1Zm2.2.3c3.6,0,5.4,1.3,5.4,4a3.8,3.8,0,0,1-3.6,4h-.3s4.5,6.3,4.8,6.7h-1.8c0-.1-4.4-6.5-4.4-6.5l-.5-.1h-.3v6.6H944V131.6A17,17,0,0,0,946.1,131.7Z" transform="translate(0 22.8)"/><path class="cls-16" d="M945.6,133h-.2v5.7h.7c1.9,0,4-.3,4-2.9s-2.1-2.9-4-2.9h-.5Zm.5.3c1.9,0,3.7.2,3.7,2.6,0,2.2-1.8,2.5-3.7,2.5h-.4v-5.1Z" transform="translate(0 22.8)"/><path class="cls-16" d="M967.8,131.6h2.3l-7.1,7,7.3,8H968l-6.2-6.9-.4.4v6.5h-1.7V131.5h1.7V138Z" transform="translate(0 22.8)"/><path class="cls-16" d="M970.1,131.4h-2.3l-6.2,6.2v-6.2h-2v15.4h2v-6.6l.2-.2c.2.2,6.1,6.8,6.1,6.8l2.4.1h.4s-7.3-8-7.5-8.2l7.2-7.2-.3-.1Zm-.4.3-6.9,6.9s6.7,7.4,7.2,7.9h-2c0-.1-6.1-6.9-6.1-6.9l-.1-.1-.5.5v6.5h-1.4V131.7h1.4v6.7l6.6-6.7Z" transform="translate(0 22.8)"/></g><path class="cls-8" d="M1036.5,1.8H774.7c-16.9,0-29.9,12.2-29.9,29.9v7.5c0-16.5,7-33.9,29.9-33.9h261.7c21,0,29.9,17.4,29.9,33.9V31.7A29.64,29.64,0,0,0,1036.5,1.8Z" transform="translate(0 22.8)"/><path class="cls-17" d="M774.7,226.1h261.7c16.9,0,29.9-12.2,29.9-29.9v-7.5c0,16.5-7,33.9-29.9,33.9H774.7c-21,0-29.9-17.4-29.9-33.9v7.5A29.73,29.73,0,0,0,774.7,226.1Z" transform="translate(0 22.8)"/><path class="cls-18" d="M816.5,226.1h220c16.5,0,29.4-11.7,29.9-28.8v-6.9c-.5,16-7.8,32.2-29.9,32.2H835.4" transform="translate(0 22.8)"/></g><g id="Visa"><path class="cls-2" d="M300.4,232.7H30.8C13.9,232.7,0,216.8,0,199.9V31A30.94,30.94,0,0,1,30.8.2H300.4A30.94,30.94,0,0,1,331.2,31V199.8C331.2,216.7,317.4,232.7,300.4,232.7Z" transform="translate(0 22.8)"/><path class="cls-3" d="M34,229.2a32,32,0,0,1-32-32V32.2A32,32,0,0,1,34,.2H297.3a32,32,0,0,1,32,32v165a32,32,0,0,1-32,32Z" transform="translate(0 22.8)"/><path class="cls-19" d="M296.5,226.6H34.8A30,30,0,0,1,4.9,196.7V32.7A30,30,0,0,1,34.8,2.8H296.5a30,30,0,0,1,29.9,29.9v164A30,30,0,0,1,296.5,226.6Z" transform="translate(0 22.8)"/><polygon class="cls-20" points="138.4 164.9 147.7 110.2 162.6 110.2 153.3 164.9 138.4 164.9"/><path class="cls-21" d="M207.4,88.8A39.06,39.06,0,0,0,194,86.5c-14.7,0-25.1,7.4-25.2,18.1-.1,7.9,7.4,12.2,13.1,14.9s7.8,4.4,7.7,6.8c0,3.7-4.6,5.3-8.9,5.3a30.29,30.29,0,0,1-14-2.9l-1.9-.9L162.7,140a46.29,46.29,0,0,0,16.6,2.9c15.7,0,25.8-7.3,26-18.7.1-6.2-3.9-11-12.5-14.9-5.2-2.5-8.4-4.2-8.4-6.8,0-2.3,2.7-4.7,8.5-4.7a27.53,27.53,0,0,1,11.2,2.1l1.3.6,2-11.7" transform="translate(0 22.8)"/><path class="cls-22" d="M245.6,87.5H234.1c-3.6,0-6.2,1-7.8,4.5l-22.1,50.1h15.7s2.6-6.7,3.1-8.2h19.1c.4,1.9,1.8,8.2,1.8,8.2h13.8L245.6,87.5m-18.4,35.2c1.2-3.2,5.9-15.3,5.9-15.3s1.2-3.2,2-5.2l1,4.7,3.5,15.8Z" transform="translate(0 22.8)"/><path class="cls-23" d="M125.9,87.5l-14.6,37.3-1.6-7.6C107,108.5,98.5,99,89.1,94.3l13.3,47.8h15.8l23.5-54.6H125.9" transform="translate(0 22.8)"/><path class="cls-24" d="M97.8,87.4h-24l-.2,1.1c18.7,4.5,31.1,15.5,36.2,28.6L104.6,92c-1-3.4-3.6-4.4-6.8-4.6" transform="translate(0 22.8)"/><polygon class="cls-25" points="138.4 164.9 147.7 110.2 162.6 110.2 153.3 164.9 138.4 164.9"/><path class="cls-25" d="M207.4,88.8A39.06,39.06,0,0,0,194,86.5c-14.7,0-25.1,7.4-25.2,18.1-.1,7.9,7.4,12.2,13.1,14.9s7.8,4.4,7.7,6.8c0,3.7-4.6,5.3-8.9,5.3a30.29,30.29,0,0,1-14-2.9l-1.9-.9L162.7,140a46.29,46.29,0,0,0,16.6,2.9c15.7,0,25.8-7.3,26-18.7.1-6.2-3.9-11-12.5-14.9-5.2-2.5-8.4-4.2-8.4-6.8,0-2.3,2.7-4.7,8.5-4.7a27.53,27.53,0,0,1,11.2,2.1l1.3.6,2-11.7" transform="translate(0 22.8)"/><path class="cls-25" d="M245.6,87.5H234.1c-3.6,0-6.2,1-7.8,4.5l-22.1,50.1h15.7s2.6-6.7,3.1-8.2h19.1c.4,1.9,1.8,8.2,1.8,8.2h13.8L245.6,87.5m-18.4,35.2c1.2-3.2,5.9-15.3,5.9-15.3s1.2-3.2,2-5.2l1,4.7,3.5,15.8Z" transform="translate(0 22.8)"/><path class="cls-25" d="M125.9,87.5l-14.6,37.3-1.6-7.6C107,108.5,98.5,99,89.1,94.3l13.3,47.8h15.8l23.5-54.6H125.9" transform="translate(0 22.8)"/><path class="cls-26" d="M97.8,87.4h-24l-.2,1.1c18.7,4.5,31.1,15.5,36.2,28.6L104.6,92c-1-3.4-3.6-4.4-6.8-4.6" transform="translate(0 22.8)"/><path class="cls-27" d="M326.4,70.6V31.5c0-16.7-13.4-29-30.8-29H35.8c-17.7,0-30.9,12.3-30.9,29V70.6Z" transform="translate(0 22.8)"/><path class="cls-26" d="M4.9,159.6v38.6c0,16.5,13.4,28.7,30.7,28.7H295.4c17.7,0,30.9-12.1,30.9-28.7V159.6Z" transform="translate(0 22.8)"/><path class="cls-28" d="M296.5,2.5H34.7C17.8,2.5,4.8,14.7,4.8,32.4v7.5C4.8,23.4,11.8,6,34.7,6H296.4c21,0,29.9,17.4,29.9,33.9V32.4A29.64,29.64,0,0,0,296.5,2.5Z" transform="translate(0 22.8)"/><path class="cls-29" d="M34.7,226.9H296.4c16.9,0,29.9-12.2,29.9-29.9v-7.5c0,16.5-7,33.9-29.9,33.9H34.7c-21,0-29.9-17.4-29.9-33.9V197A29.79,29.79,0,0,0,34.7,226.9Z" transform="translate(0 22.8)"/></g><g id="AMEX"><path class="cls-2" d="M677,232.7H407.4c-16.9,0-30.8-15.9-30.8-32.8V31A30.94,30.94,0,0,1,407.4.2H677A30.94,30.94,0,0,1,707.8,31V199.8C707.8,216.7,694,232.7,677,232.7Z" transform="translate(0 22.8)"/><path class="cls-3" d="M410.6,229.2a32,32,0,0,1-32-32V32.2a32,32,0,0,1,32-32H673.9a32,32,0,0,1,32,32v165a32,32,0,0,1-32,32Z" transform="translate(0 22.8)"/><path class="cls-8" d="M673.1,226.1H411.3a30,30,0,0,1-29.9-29.9V32.2A30,30,0,0,1,411.3,2.3H673a30,30,0,0,1,29.9,29.9v164A29.9,29.9,0,0,1,673.1,226.1Z" transform="translate(0 22.8)"/><g id="Clipping_mas" data-name="Clipping mas"><g class="cls-30"><path class="cls-31" d="M588,89.5h7.1l-4.4,10.3h-3.9l-.5-.1-.4-.1-.3-.1-.2-.1-.1-.1-.1-.1-.1-.1-.2-.3-.2-.5-.2-.7-.1-.9-.1-1.1V93.3l.1-.8.1-.7.1-.6.1-.4.1-.2.1-.1h0l.1-.1.2-.1.2-.1.3-.1.4-.1.5-.1.6-.1Zm63.9,62.4v.2h.4Zm-152-8.1v5.8l2.4-2.9Zm122.4,7.7-1-.7-.6-.5-.5-.5-.5-.5-.4-.5-.4-.5v3.9h4.3Zm-87.6-42.3h-7.3V79.9h16.7c4.8,0,8.1.5,10,1.6a7.39,7.39,0,0,1,3,2.8,7.3,7.3,0,0,1,1.1,3.8c0,2.8-.8,4.9-2.5,6.4a10.86,10.86,0,0,1-3,1.8c-.3.1-.7.2-1,.3a9.52,9.52,0,0,1,3,1.3,6.13,6.13,0,0,1,1.9,2,11.33,11.33,0,0,1,.9,2,15.47,15.47,0,0,1,.4,2.9,19.31,19.31,0,0,0,.8,4.4h-8.2a22,22,0,0,1-.8-4.2,10.74,10.74,0,0,0-1.1-3.9,5,5,0,0,0-2.4-2.1,14.31,14.31,0,0,0-5.8-.9h-5.9v11.1Zm0-16.4h10.2a7.77,7.77,0,0,0,3.6-.6,3.66,3.66,0,0,0,1.6-3.4,3.18,3.18,0,0,0-2.5-3.4,9.41,9.41,0,0,0-2.8-.3H534.6v7.7Zm137.3,52a16.72,16.72,0,0,0-5.2-.6h-4.5a10.22,10.22,0,0,1-3.6-.5,2.73,2.73,0,0,1-1.6-2.8c0-1.7.6-2.6,1.9-3a22.48,22.48,0,0,1,3.8-.3h12.6v-5.2h-14c-1.7,0-2.9,0-3.8.1-2.5.3-4.3,1.2-5.4,2.9a9.47,9.47,0,0,0-1.7,5.6,11.56,11.56,0,0,0,.7,3.7,8.64,8.64,0,0,0,2.1,2.9q2.1,1.8,6.9,1.8h5.2a6.47,6.47,0,0,1,3.2.6,3.26,3.26,0,0,1,1.7,3.1,3.22,3.22,0,0,1-1.5,2.8,9.44,9.44,0,0,1-4.1.6H651.8v5.2H666a29.33,29.33,0,0,0,4.9-.3,6.88,6.88,0,0,0,5-3.6,9.5,9.5,0,0,0,1.2-4.8,11.3,11.3,0,0,0-.9-4.5A6.75,6.75,0,0,0,672,144.8ZM435.2,79.9l12.4,29.3h-7.5l-2.9-6.8H425.8l-2.9,6.8h-7.5l12.4-29.3Zm.6,17.3L431.5,87l-4.3,10.2Zm88.4,6.3H505.6V96.9h15.7V91.3H505.6V85.4h18V79.9H498.7v29.2h25.5ZM483.6,87.2v22h7.3V79.9H479.7l-6.8,16.3-2.7,6.5-9-22.8H449.9v29.3h7.3v-22l8.9,22H474l5.6-12.9Zm104.3,70a20.9,20.9,0,0,0,.7,4.4h-7.3a24.75,24.75,0,0,1-.7-4.2,11,11,0,0,0-1-3.9,5,5,0,0,0-2.2-2.1,11.84,11.84,0,0,0-5.2-.9h-5.3v11.1h-6.5V132.3h15c4.3,0,7.3.5,9,1.6a7.27,7.27,0,0,1,2.7,2.8,8.27,8.27,0,0,1,1,3.8c0,2.8-.7,4.9-2.2,6.4a9,9,0,0,1-3.6,2.1,8.48,8.48,0,0,1,2.7,1.3,6.88,6.88,0,0,1,1.7,2,10.4,10.4,0,0,1,.8,2A15.47,15.47,0,0,1,587.9,157.2ZM581,141.3c0-1.8-.7-2.9-2.2-3.4a7.65,7.65,0,0,0-2.5-.3h-9.2v7.7h9.2a6.91,6.91,0,0,0,3.3-.6A4,4,0,0,0,581,141.3Zm-26.8-4.4a9.66,9.66,0,0,1,1.4,5,9.9,9.9,0,0,1-.9,4.2,9,9,0,0,1-2.5,3.3,7.67,7.67,0,0,1-3.1,1.6,18.17,18.17,0,0,1-4.5.4H533.4v10.2H520l-7.8-10-7.6,10H472.9V132.4h32.3l7,9.6,7.6-9.6h22.9a23.92,23.92,0,0,1,6.4.6A8.89,8.89,0,0,1,554.2,136.9Zm-46.6,9.9-9.8-12.2v3.2h-18v5.9h15.7v5.6H479.8V156h18.6l1.7.1Zm18.9-11.5-9.6,11.6,9.6,11.8Zm21.4,6.4a3.64,3.64,0,0,0-2.3-3.8,7.94,7.94,0,0,0-2.6-.3h-9.6v8.6h9.4a6.5,6.5,0,0,0,3.6-.7A4.49,4.49,0,0,0,547.9,141.7Zm51.3,7.6h15.7v-5.6H599.2v-5.8h18v-5.5H592.3v29.2h25.5V156H599.2Zm33.9-53V87.8l4.9,8.5,7.4,12.9h7.9V79.9h-6.1v21.7l-3-5.4-9-16.3H627v29.2h6.1V96.3Zm9.8,48.5a16.72,16.72,0,0,0-5.2-.6h-4.5a10.22,10.22,0,0,1-3.6-.5,2.73,2.73,0,0,1-1.6-2.8c0-1.7.6-2.6,1.9-3a22.48,22.48,0,0,1,3.8-.3h12.7v-5.2h-14c-1.7,0-2.9,0-3.8.1a7.31,7.31,0,0,0-5.5,2.9,9.47,9.47,0,0,0-1.7,5.6,9.37,9.37,0,0,0,.7,3.7,8.64,8.64,0,0,0,2.1,2.9q2.1,1.8,6.9,1.8h5.2a6.47,6.47,0,0,1,3.2.6,3.26,3.26,0,0,1,1.7,3.1,3.22,3.22,0,0,1-1.5,2.8,9.44,9.44,0,0,1-4.1.6H622.7v5.2h14.2a29.33,29.33,0,0,0,4.9-.3,6.88,6.88,0,0,0,5-3.6A9.5,9.5,0,0,0,648,153a11.3,11.3,0,0,0-.9-4.5A6.75,6.75,0,0,0,642.9,144.8ZM573,96.3V94.7a17.52,17.52,0,0,1,2.4-9.6,9.48,9.48,0,0,1,4.5-3.9,19.4,19.4,0,0,1,7.4-1.2h10.1v5.2H588c-2.9,0-5,.7-6.3,2.2-1.1,1.2-1.7,3.5-1.7,6.7a15.49,15.49,0,0,0,.1,2.2c.3,3.1,1.1,5.2,2.5,6.3a9.41,9.41,0,0,0,5.6,1.4h5.4l3.3-7.7L603.8,80h7.4l6.9,16.3,5.5,12.9h-7.5l-2.9-6.8H601.8l-2.9,6.8H587a26.92,26.92,0,0,1-4.6-.3,10.45,10.45,0,0,1-7.9-6A21.35,21.35,0,0,1,573,96.3Zm30.2.9h8.6l-.4-.9L607.5,87l-3.9,9.3Zm-33.9-.9V79.9h-6.4v29.2h6.4ZM728.7-22.8V238.8h-373V-22.8h373Zm-265,136.3h13.5l2.4-5.5v5.5H539V102.4h3.1l.6.1.5.1.4.1.4.1.3.1.2.1.1.1.1.1.1.1h.1v.1l.1.1.1.2.1.2.1.3.1.4.1.4.1.5.1.7.1.7.1.7.1.6.1.6.1.6.1.6,1.1,3.3h25.9v-4.4l.2.2,1.3,1.2,1.5,1,1.6.8,1.7.6,1.7.4.6.1.6.1.6.1h18.2l2.9-6.7H610l2.9,6.7h24v-9.6l5.5,9.6H657V75.8H642.4v9.4l-5.1-9.4H622.4V96.3l-8.7-20.5H585.8l-1.2.1-1.2.1-1.1.2-1.1.2-1.1.3-1,.3-1,.4-1,.5-.9.5-.9.6-.8.7-.8.7-.2.2V75.8H558.6v3.8l-.4-.4-.6-.5-.7-.4-.7-.4-1.2-.5-1.3-.4-1.4-.3-1.4-.3-1.5-.2-1.6-.1-1.7-.1h-69l-6.5,15.7L464.4,76H446V94l-7.7-18h-13l-16.2,37.6h16.8l2.9-6.7h5.8l2.9,6.7h24.2v-4.4Zm217.1,39.9V128.1h-24l-1.2.2-1.2.3-1.2.4-1.1.5-1.1.7-.7.5V128H627.8l-1.2.2-1.2.3-1.2.4-1.1.5-1.1.7-.8.6v-2.8H587.8V131h0l-.6-.5-.7-.5-1.1-.6-1.2-.5-1.3-.4-1.3-.3-1.4-.2-1.5-.1-1.6-.1H556.3v4.5l-.8-.8-.9-.8-1-.7-1-.6-1.1-.5-1.2-.4-.8-.2-.8-.1-.8-.1-.9-.1-.9-.1H517.9l-5.4,6.8-4.9-6.8H469v37.6h38l5.5-7.3,5.7,7.3h19.7V155.3H547l.7-.1.7-.1.7-.1.6-.1.6-.2.6-.2.6-.2.6-.2.6-.3.6-.3.6-.3.5-.4.5-.4.6-.5.6-.5.4-.4v14.6h15V154.5h2.3l.5.1.5.1.4.1.3.1.2.1h.1l.1.1h.1v.1h0v.1l.1.1.1.2.1.3.1.3.1.4.1.5.1.5.1.7.1.7.1.7.1.6.1.6.1.6.1.5,1,3.4h62.3l.6-.1.6-.1.7-.1,1.2-.3,1.2-.4,1.1-.5,1.1-.7.3-.3v2.5h22.1l.6-.1.6-.1.6-.1,1.2-.3,1.2-.4,1.1-.5,1.1-.7s.1-.1,1-.8C678.7,161.3,680.8,158.7,680.8,153.4Z" transform="translate(0 22.8)"/></g></g><path class="cls-32" d="M673.1,2H411.3c-16.8,0-29.9,12.2-29.9,29.9v7.5c0-16.5,7-33.9,29.9-33.9H673c21,0,29.9,17.4,29.9,33.9V31.9A29.64,29.64,0,0,0,673.1,2Z" transform="translate(0 22.8)"/><path class="cls-33" d="M411.3,226.3H673c16.9,0,29.9-12.2,29.9-29.9v-7.5c0,16.5-7,33.9-29.9,33.9H411.3c-21,0-29.9-17.4-29.9-33.9v7.5A29.79,29.79,0,0,0,411.3,226.3Z" transform="translate(0 22.8)"/></g></svg>