<svg xmlns="http://www.w3.org/2000/svg" width="733" height="476" viewBox="0 0 733 476">
    <g fill="#000" fill-rule="evenodd" opacity=".225">
        <path d="M506.191 4.397A2.199 2.199 0 1 0 506.193 0a2.199 2.199 0 0 0-.002 4.397M528.18 4.397a2.198 2.198 0 1 0-.002-4.396 2.198 2.198 0 0 0 .001 4.396M551.263 4.397A2.199 2.199 0 1 0 551.265 0a2.199 2.199 0 0 0-.002 4.397M573.25 4.397a2.198 2.198 0 1 0 .001-4.396 2.198 2.198 0 0 0 0 4.396M596.337 4.397a2.198 2.198 0 1 0 0-4.396 2.198 2.198 0 0 0 0 4.396M618.322 4.397A2.199 2.199 0 1 0 618.324 0a2.199 2.199 0 0 0-.002 4.397M641.41 4.397a2.198 2.198 0 1 0-.002-4.396 2.198 2.198 0 0 0 .001 4.396M663.394 4.397A2.199 2.199 0 1 0 663.396 0a2.199 2.199 0 0 0-.002 4.397M685.381 4.397a2.198 2.198 0 1 0 .001-4.396 2.198 2.198 0 0 0 0 4.396M708.468 4.397a2.198 2.198 0 1 0 0-4.396 2.198 2.198 0 0 0 0 4.396M730.453 4.397A2.199 2.199 0 1 0 730.455 0a2.199 2.199 0 0 0-.002 4.397M495.198 27.483a2.199 2.199 0 1 0 .001-4.398 2.199 2.199 0 0 0-.001 4.398M517.185 27.483a2.198 2.198 0 1 0 0-4.397 2.198 2.198 0 0 0 0 4.397M540.272 27.483a2.198 2.198 0 1 0-.001-4.397 2.198 2.198 0 0 0 0 4.397M562.256 27.483a2.199 2.199 0 1 0 .002-4.398 2.199 2.199 0 0 0-.002 4.398M585.344 27.483a2.198 2.198 0 1 0-.001-4.397 2.198 2.198 0 0 0 .001 4.397M607.329 27.483a2.199 2.199 0 1 0 .001-4.398 2.199 2.199 0 0 0-.001 4.398M629.316 27.483a2.198 2.198 0 1 0 0-4.397 2.198 2.198 0 0 0 0 4.397M652.403 27.483a2.198 2.198 0 1 0-.001-4.397 2.198 2.198 0 0 0 0 4.397M674.387 27.483a2.199 2.199 0 1 0 .002-4.398 2.199 2.199 0 0 0-.002 4.398M697.475 27.483a2.198 2.198 0 1 0-.001-4.397 2.198 2.198 0 0 0 0 4.397M719.46 27.483a2.199 2.199 0 1 0 .001-4.398 2.199 2.199 0 0 0-.001 4.398M506.191 49.469a2.199 2.199 0 1 0 .002-4.398 2.199 2.199 0 0 0-.002 4.398M528.18 49.469a2.198 2.198 0 1 0-.002-4.397 2.198 2.198 0 0 0 .001 4.397M551.263 49.469a2.199 2.199 0 1 0 .002-4.398 2.199 2.199 0 0 0-.002 4.398M573.25 49.469a2.198 2.198 0 1 0 .001-4.397 2.198 2.198 0 0 0 0 4.397M596.337 49.469a2.198 2.198 0 1 0 0-4.397 2.198 2.198 0 0 0 0 4.397M618.322 49.469a2.199 2.199 0 1 0 .002-4.398 2.199 2.199 0 0 0-.002 4.398M641.41 49.469a2.198 2.198 0 1 0-.002-4.397 2.198 2.198 0 0 0 .001 4.397M663.394 49.469a2.199 2.199 0 1 0 .002-4.398 2.199 2.199 0 0 0-.002 4.398M685.381 49.469a2.198 2.198 0 1 0 .001-4.397 2.198 2.198 0 0 0 0 4.397M708.468 49.469a2.198 2.198 0 1 0 0-4.397 2.198 2.198 0 0 0 0 4.397M730.453 49.469a2.199 2.199 0 1 0 .002-4.398 2.199 2.199 0 0 0-.002 4.398M495.198 72.554a2.2 2.2 0 1 0 0-4.398 2.2 2.2 0 0 0 0 4.398M517.185 72.554a2.199 2.199 0 1 0 0-4.397 2.199 2.199 0 0 0 0 4.397M540.272 72.554a2.199 2.199 0 1 0-.002-4.397 2.199 2.199 0 0 0 .002 4.397M562.256 72.554a2.2 2.2 0 1 0 .001-4.398 2.2 2.2 0 0 0 0 4.398M585.344 72.554a2.199 2.199 0 1 0-.002-4.397 2.199 2.199 0 0 0 .002 4.397M607.329 72.554a2.2 2.2 0 1 0 0-4.398 2.2 2.2 0 0 0 0 4.398M629.316 72.554a2.199 2.199 0 1 0 0-4.397 2.199 2.199 0 0 0 0 4.397M652.403 72.554a2.199 2.199 0 1 0-.002-4.397 2.199 2.199 0 0 0 .002 4.397M674.387 72.554a2.2 2.2 0 1 0 .001-4.398 2.2 2.2 0 0 0 0 4.398M697.475 72.554a2.199 2.199 0 1 0-.002-4.397 2.199 2.199 0 0 0 .002 4.397M719.46 72.554a2.2 2.2 0 1 0 0-4.398 2.2 2.2 0 0 0 0 4.398M506.191 94.54a2.199 2.199 0 1 0 .002-4.397 2.199 2.199 0 0 0-.002 4.397M528.18 94.54a2.198 2.198 0 1 0-.002-4.396 2.198 2.198 0 0 0 .001 4.396M551.263 94.54a2.199 2.199 0 1 0 .002-4.397 2.199 2.199 0 0 0-.002 4.397M573.25 94.54a2.198 2.198 0 1 0 .001-4.396 2.198 2.198 0 0 0 0 4.396M596.337 94.54a2.198 2.198 0 1 0 0-4.396 2.198 2.198 0 0 0 0 4.396M618.322 94.54a2.199 2.199 0 1 0 .001-4.397 2.199 2.199 0 0 0-.001 4.397M641.41 94.54a2.198 2.198 0 1 0-.002-4.396 2.198 2.198 0 0 0 .001 4.396M663.394 94.54a2.199 2.199 0 1 0 .002-4.397 2.199 2.199 0 0 0-.002 4.397M685.381 94.54a2.198 2.198 0 1 0 .001-4.396 2.198 2.198 0 0 0 0 4.396M708.468 94.54a2.198 2.198 0 1 0-.001-4.396 2.198 2.198 0 0 0 .001 4.396M730.453 94.54a2.199 2.199 0 1 0 .001-4.397 2.199 2.199 0 0 0-.001 4.397M495.198 116.527a2.199 2.199 0 1 0 .001-4.398 2.199 2.199 0 0 0-.001 4.398M517.185 116.527a2.198 2.198 0 1 0 0-4.397 2.198 2.198 0 0 0 0 4.397M540.272 116.527a2.198 2.198 0 1 0-.001-4.397 2.198 2.198 0 0 0 0 4.397M562.256 116.527a2.199 2.199 0 1 0 .002-4.398 2.199 2.199 0 0 0-.002 4.398M585.344 116.527a2.198 2.198 0 1 0-.001-4.397 2.198 2.198 0 0 0 .001 4.397M607.329 116.527a2.199 2.199 0 1 0 .001-4.398 2.199 2.199 0 0 0-.001 4.398M629.316 116.527a2.198 2.198 0 1 0 0-4.397 2.198 2.198 0 0 0 0 4.397M652.403 116.527a2.198 2.198 0 1 0-.001-4.397 2.198 2.198 0 0 0 0 4.397M674.387 116.527a2.199 2.199 0 1 0 .002-4.398 2.199 2.199 0 0 0-.002 4.398M697.475 116.527a2.198 2.198 0 1 0-.001-4.397 2.198 2.198 0 0 0 0 4.397M719.46 116.527a2.199 2.199 0 1 0 .001-4.398 2.199 2.199 0 0 0-.001 4.398M506.191 139.612a2.199 2.199 0 1 0 .002-4.397 2.199 2.199 0 0 0-.002 4.397M528.18 139.612a2.198 2.198 0 1 0-.002-4.397 2.198 2.198 0 0 0 .001 4.397M551.263 139.612a2.199 2.199 0 1 0 .002-4.397 2.199 2.199 0 0 0-.002 4.397M573.25 139.612a2.198 2.198 0 1 0 .001-4.396 2.198 2.198 0 0 0 0 4.396M596.337 139.612a2.198 2.198 0 1 0 0-4.397 2.198 2.198 0 0 0 0 4.397M618.322 139.612a2.199 2.199 0 1 0 .002-4.397 2.199 2.199 0 0 0-.002 4.397M641.41 139.612a2.198 2.198 0 1 0-.002-4.397 2.198 2.198 0 0 0 .001 4.397M663.394 139.612a2.199 2.199 0 1 0 .002-4.397 2.199 2.199 0 0 0-.002 4.397M685.381 139.612a2.198 2.198 0 1 0 .001-4.396 2.198 2.198 0 0 0 0 4.396M708.468 139.612a2.198 2.198 0 1 0 0-4.397 2.198 2.198 0 0 0 0 4.397M730.453 139.612a2.199 2.199 0 1 0 .002-4.397 2.199 2.199 0 0 0-.002 4.397M495.198 161.598a2.199 2.199 0 1 0 .001-4.397 2.199 2.199 0 0 0-.001 4.397M517.185 161.598a2.198 2.198 0 1 0 0-4.396 2.198 2.198 0 0 0 0 4.396M540.272 161.598a2.198 2.198 0 1 0-.001-4.396 2.198 2.198 0 0 0 0 4.396M562.256 161.598a2.199 2.199 0 1 0 .002-4.397 2.199 2.199 0 0 0-.002 4.397M585.344 161.598a2.198 2.198 0 1 0-.001-4.396 2.198 2.198 0 0 0 .001 4.396M607.329 161.598a2.199 2.199 0 1 0 .001-4.397 2.199 2.199 0 0 0-.001 4.397M629.316 161.598a2.198 2.198 0 1 0 0-4.396 2.198 2.198 0 0 0 0 4.396M652.403 161.598a2.198 2.198 0 1 0-.001-4.396 2.198 2.198 0 0 0 0 4.396M674.387 161.598a2.199 2.199 0 1 0 .002-4.397 2.199 2.199 0 0 0-.002 4.397M697.475 161.598a2.198 2.198 0 1 0-.001-4.396 2.198 2.198 0 0 0 0 4.396M719.46 161.598a2.199 2.199 0 1 0 .001-4.397 2.199 2.199 0 0 0-.001 4.397M506.191 184.684a2.2 2.2 0 1 0 0-4.399 2.2 2.2 0 0 0 0 4.399M528.18 184.684a2.199 2.199 0 1 0-.003-4.398 2.199 2.199 0 0 0 .002 4.398M551.263 184.684a2.2 2.2 0 1 0 .001-4.399 2.2 2.2 0 0 0 0 4.399M573.25 184.684a2.199 2.199 0 1 0 0-4.398 2.199 2.199 0 0 0 0 4.398M596.337 184.684a2.199 2.199 0 1 0-.002-4.398 2.199 2.199 0 0 0 .002 4.398M618.322 184.684a2.2 2.2 0 1 0 0-4.399 2.2 2.2 0 0 0 0 4.399M641.41 184.684a2.199 2.199 0 1 0-.002-4.398 2.199 2.199 0 0 0 .001 4.398M663.394 184.684a2.2 2.2 0 1 0 .001-4.399 2.2 2.2 0 0 0 0 4.399M685.381 184.684a2.199 2.199 0 1 0 0-4.398 2.199 2.199 0 0 0 0 4.398M708.468 184.684a2.199 2.199 0 1 0-.002-4.398 2.199 2.199 0 0 0 .002 4.398M730.453 184.684a2.2 2.2 0 1 0 0-4.399 2.2 2.2 0 0 0 0 4.399M495.198 206.67a2.199 2.199 0 1 0 .001-4.398 2.199 2.199 0 0 0-.001 4.398M517.185 206.67a2.198 2.198 0 1 0 0-4.397 2.198 2.198 0 0 0 0 4.397M540.272 206.67a2.198 2.198 0 1 0-.001-4.397 2.198 2.198 0 0 0 0 4.397M562.256 206.67a2.199 2.199 0 1 0 .002-4.398 2.199 2.199 0 0 0-.002 4.398M585.344 206.67a2.198 2.198 0 1 0-.001-4.397 2.198 2.198 0 0 0 .001 4.397M607.329 206.67a2.199 2.199 0 1 0 .001-4.398 2.199 2.199 0 0 0-.001 4.398M629.316 206.67a2.198 2.198 0 1 0 0-4.397 2.198 2.198 0 0 0 0 4.397M652.403 206.67a2.198 2.198 0 1 0-.001-4.397 2.198 2.198 0 0 0 0 4.397M674.387 206.67a2.199 2.199 0 1 0 .002-4.398 2.199 2.199 0 0 0-.002 4.398M697.475 206.67a2.198 2.198 0 1 0-.001-4.397 2.198 2.198 0 0 0 0 4.397M719.46 206.67a2.199 2.199 0 1 0 .001-4.398 2.199 2.199 0 0 0-.001 4.398M506.191 228.656a2.199 2.199 0 1 0 .002-4.397 2.199 2.199 0 0 0-.002 4.397M528.18 228.656a2.198 2.198 0 1 0-.002-4.397 2.198 2.198 0 0 0 .001 4.397M551.263 228.656a2.199 2.199 0 1 0 .002-4.397 2.199 2.199 0 0 0-.002 4.397M573.25 228.656a2.198 2.198 0 1 0 .001-4.397 2.198 2.198 0 0 0 0 4.397M596.337 228.656a2.198 2.198 0 1 0 0-4.397 2.198 2.198 0 0 0 0 4.397M618.322 228.656a2.199 2.199 0 1 0 .002-4.397 2.199 2.199 0 0 0-.002 4.397M641.41 228.656a2.198 2.198 0 1 0-.002-4.397 2.198 2.198 0 0 0 .001 4.397M663.394 228.656a2.199 2.199 0 1 0 .002-4.397 2.199 2.199 0 0 0-.002 4.397M685.381 228.656a2.198 2.198 0 1 0 .001-4.397 2.198 2.198 0 0 0 0 4.397M708.468 228.656a2.198 2.198 0 1 0 0-4.397 2.198 2.198 0 0 0 0 4.397M730.453 228.656a2.199 2.199 0 1 0 .002-4.397 2.199 2.199 0 0 0-.002 4.397M495.198 251.741a2.199 2.199 0 1 0 .001-4.397 2.199 2.199 0 0 0-.001 4.397M517.185 251.741a2.198 2.198 0 1 0 0-4.396 2.198 2.198 0 0 0 0 4.396M540.272 251.741a2.198 2.198 0 1 0-.001-4.396 2.198 2.198 0 0 0 0 4.396M562.256 251.741a2.199 2.199 0 1 0 .002-4.397 2.199 2.199 0 0 0-.002 4.397M585.344 251.741a2.198 2.198 0 1 0-.001-4.396 2.198 2.198 0 0 0 .001 4.396M607.329 251.741a2.199 2.199 0 1 0 .001-4.397 2.199 2.199 0 0 0-.001 4.397M629.316 251.741a2.198 2.198 0 1 0 0-4.396 2.198 2.198 0 0 0 0 4.396M652.403 251.741a2.198 2.198 0 1 0-.001-4.396 2.198 2.198 0 0 0 0 4.396M674.387 251.741a2.199 2.199 0 1 0 .002-4.397 2.199 2.199 0 0 0-.002 4.397M697.475 251.741a2.198 2.198 0 1 0-.001-4.396 2.198 2.198 0 0 0 0 4.396M719.46 251.741a2.199 2.199 0 1 0 .001-4.397 2.199 2.199 0 0 0-.001 4.397M506.191 273.727a2.199 2.199 0 1 0 .002-4.397 2.199 2.199 0 0 0-.002 4.397M528.18 273.727a2.198 2.198 0 1 0-.002-4.396 2.198 2.198 0 0 0 .001 4.396M551.263 273.727a2.199 2.199 0 1 0 .002-4.397 2.199 2.199 0 0 0-.002 4.397M573.25 273.727a2.198 2.198 0 1 0 .001-4.396 2.198 2.198 0 0 0 0 4.396M596.337 273.727a2.198 2.198 0 1 0 0-4.396 2.198 2.198 0 0 0 0 4.396M618.322 273.727a2.199 2.199 0 1 0 .002-4.397 2.199 2.199 0 0 0-.002 4.397M641.41 273.727a2.198 2.198 0 1 0-.002-4.396 2.198 2.198 0 0 0 .001 4.396M663.394 273.727a2.199 2.199 0 1 0 .002-4.397 2.199 2.199 0 0 0-.002 4.397M685.381 273.727a2.198 2.198 0 1 0 .001-4.396 2.198 2.198 0 0 0 0 4.396M708.468 273.727a2.198 2.198 0 1 0 0-4.396 2.198 2.198 0 0 0 0 4.396M730.453 273.727a2.199 2.199 0 1 0 .002-4.397 2.199 2.199 0 0 0-.002 4.397M495.198 296.813a2.198 2.198 0 1 0 0-4.397 2.199 2.199 0 0 0 0 4.397M517.185 296.813a2.199 2.199 0 1 0 0-4.397 2.199 2.199 0 0 0 0 4.397M540.272 296.813a2.199 2.199 0 1 0-.002-4.397 2.199 2.199 0 0 0 .002 4.397M562.256 296.813a2.198 2.198 0 1 0 0-4.397 2.199 2.199 0 0 0 0 4.397M585.344 296.813a2.199 2.199 0 1 0-.002-4.397 2.199 2.199 0 0 0 .002 4.397M607.329 296.813a2.198 2.198 0 1 0 0-4.397 2.199 2.199 0 0 0 0 4.397M629.316 296.813a2.199 2.199 0 1 0 0-4.397 2.199 2.199 0 0 0 0 4.397M652.403 296.813a2.199 2.199 0 1 0-.002-4.397 2.199 2.199 0 0 0 .002 4.397M674.387 296.813a2.198 2.198 0 1 0 0-4.397 2.199 2.199 0 0 0 0 4.397M697.475 296.813a2.199 2.199 0 1 0-.002-4.397 2.199 2.199 0 0 0 .002 4.397M719.46 296.813a2.198 2.198 0 1 0 0-4.397 2.199 2.199 0 0 0 0 4.397M506.191 318.8a2.198 2.198 0 1 0 .002-4.398 2.198 2.198 0 0 0-.002 4.397M528.18 318.8a2.198 2.198 0 1 0-.001-4.397 2.198 2.198 0 0 0 0 4.396M551.263 318.8a2.198 2.198 0 1 0 .003-4.398 2.198 2.198 0 0 0-.003 4.397M573.25 318.8a2.198 2.198 0 1 0 .002-4.397 2.198 2.198 0 0 0-.001 4.396M596.337 318.8a2.198 2.198 0 1 0 0-4.397 2.198 2.198 0 0 0 0 4.396M618.322 318.8a2.198 2.198 0 1 0 .002-4.398 2.198 2.198 0 0 0-.002 4.397M641.41 318.8a2.198 2.198 0 1 0 0-4.397 2.198 2.198 0 0 0 0 4.396M663.394 318.8a2.198 2.198 0 1 0 .003-4.398 2.198 2.198 0 0 0-.003 4.397M685.381 318.8a2.198 2.198 0 1 0 .002-4.397 2.198 2.198 0 0 0-.002 4.396M708.468 318.8a2.198 2.198 0 1 0 0-4.397 2.198 2.198 0 0 0 0 4.396M730.453 318.8a2.198 2.198 0 1 0 .002-4.398 2.198 2.198 0 0 0-.002 4.397M495.198 341.885a2.199 2.199 0 1 0 .001-4.398 2.199 2.199 0 0 0-.001 4.398M517.185 341.885a2.198 2.198 0 1 0 0-4.397 2.198 2.198 0 0 0 0 4.397M540.272 341.885a2.198 2.198 0 1 0-.001-4.397 2.198 2.198 0 0 0 0 4.397M562.256 341.885a2.199 2.199 0 1 0 .002-4.398 2.199 2.199 0 0 0-.002 4.398M585.344 341.885a2.198 2.198 0 1 0-.001-4.397 2.198 2.198 0 0 0 .001 4.397M607.329 341.885a2.199 2.199 0 1 0 .001-4.398 2.199 2.199 0 0 0-.001 4.398M629.316 341.885a2.198 2.198 0 1 0 0-4.397 2.198 2.198 0 0 0 0 4.397M652.403 341.885a2.198 2.198 0 1 0-.001-4.397 2.198 2.198 0 0 0 0 4.397M674.387 341.885a2.199 2.199 0 1 0 .002-4.398 2.199 2.199 0 0 0-.002 4.398M697.475 341.885a2.198 2.198 0 1 0-.001-4.397 2.198 2.198 0 0 0 0 4.397M719.46 341.885a2.199 2.199 0 1 0 .001-4.398 2.199 2.199 0 0 0-.001 4.398M506.191 363.87a2.198 2.198 0 1 0 .002-4.396 2.198 2.198 0 0 0-.002 4.397M528.18 363.87a2.198 2.198 0 1 0-.001-4.395 2.198 2.198 0 0 0 0 4.396M551.263 363.87a2.198 2.198 0 1 0 .003-4.396 2.198 2.198 0 0 0-.003 4.397M573.25 363.87a2.198 2.198 0 1 0 .002-4.395 2.198 2.198 0 0 0-.001 4.396M596.337 363.87a2.198 2.198 0 1 0 0-4.395 2.198 2.198 0 0 0 0 4.396M618.322 363.87a2.198 2.198 0 1 0 .002-4.396 2.198 2.198 0 0 0-.002 4.397M641.41 363.87a2.198 2.198 0 1 0 0-4.395 2.198 2.198 0 0 0 0 4.396M663.394 363.87a2.198 2.198 0 1 0 .003-4.396 2.198 2.198 0 0 0-.003 4.397M685.381 363.87a2.198 2.198 0 1 0 .002-4.395 2.198 2.198 0 0 0-.002 4.396M708.468 363.87a2.198 2.198 0 1 0 0-4.395 2.198 2.198 0 0 0 0 4.396M730.453 363.87a2.198 2.198 0 1 0 .002-4.396 2.198 2.198 0 0 0-.002 4.397M495.198 385.857a2.199 2.199 0 1 0 .001-4.398 2.199 2.199 0 0 0-.001 4.398M517.185 385.857a2.198 2.198 0 1 0 0-4.397 2.198 2.198 0 0 0 0 4.397M540.272 385.857a2.198 2.198 0 1 0-.001-4.397 2.198 2.198 0 0 0 0 4.397M562.256 385.857a2.199 2.199 0 1 0 .002-4.398 2.199 2.199 0 0 0-.002 4.398M585.344 385.857a2.198 2.198 0 1 0-.001-4.397 2.198 2.198 0 0 0 .001 4.397M607.329 385.857a2.199 2.199 0 1 0 .001-4.398 2.199 2.199 0 0 0-.001 4.398M629.316 385.857a2.198 2.198 0 1 0 0-4.397 2.198 2.198 0 0 0 0 4.397M652.403 385.857a2.198 2.198 0 1 0-.001-4.397 2.198 2.198 0 0 0 0 4.397M674.387 385.857a2.199 2.199 0 1 0 .002-4.398 2.199 2.199 0 0 0-.002 4.398M697.475 385.857a2.198 2.198 0 1 0-.001-4.397 2.198 2.198 0 0 0 0 4.397M719.46 385.857a2.199 2.199 0 1 0 .001-4.398 2.199 2.199 0 0 0-.001 4.398M506.191 408.942a2.198 2.198 0 1 0 0-4.397 2.199 2.199 0 0 0 0 4.397M528.18 408.942a2.199 2.199 0 1 0-.002-4.397 2.199 2.199 0 0 0 .001 4.397M551.263 408.942a2.198 2.198 0 1 0 0-4.397 2.199 2.199 0 0 0 0 4.397M573.25 408.942a2.199 2.199 0 1 0 0-4.397 2.199 2.199 0 0 0 0 4.397M596.337 408.942a2.199 2.199 0 1 0-.002-4.397 2.199 2.199 0 0 0 .002 4.397M618.322 408.942a2.198 2.198 0 1 0 0-4.397 2.199 2.199 0 0 0 0 4.397M641.41 408.942a2.199 2.199 0 1 0-.002-4.397 2.199 2.199 0 0 0 .001 4.397M663.394 408.942a2.198 2.198 0 1 0 0-4.397 2.199 2.199 0 0 0 0 4.397M685.381 408.942a2.199 2.199 0 1 0 0-4.397 2.199 2.199 0 0 0 0 4.397M708.468 408.942a2.199 2.199 0 1 0-.002-4.397 2.199 2.199 0 0 0 .002 4.397M730.453 408.942a2.198 2.198 0 1 0 0-4.397 2.199 2.199 0 0 0 0 4.397M495.198 430.928a2.198 2.198 0 1 0 .002-4.396 2.198 2.198 0 0 0-.002 4.396M517.185 430.928a2.198 2.198 0 1 0 .002-4.395 2.198 2.198 0 0 0-.002 4.395M540.272 430.928a2.198 2.198 0 1 0 0-4.395 2.198 2.198 0 0 0 0 4.395M562.256 430.928a2.198 2.198 0 1 0 .003-4.396 2.198 2.198 0 0 0-.003 4.396M585.344 430.928a2.198 2.198 0 1 0 0-4.395 2.198 2.198 0 0 0 0 4.395M607.329 430.928a2.198 2.198 0 1 0 .002-4.396 2.198 2.198 0 0 0-.002 4.396M629.316 430.928a2.198 2.198 0 1 0 .002-4.395 2.198 2.198 0 0 0-.002 4.395M652.403 430.928a2.198 2.198 0 1 0 0-4.395 2.198 2.198 0 0 0 0 4.395M674.387 430.928a2.198 2.198 0 1 0 .003-4.396 2.198 2.198 0 0 0-.003 4.396M697.475 430.928a2.198 2.198 0 1 0 0-4.395 2.198 2.198 0 0 0 0 4.395M719.46 430.928a2.198 2.198 0 1 0 .002-4.396 2.198 2.198 0 0 0-.002 4.396M506.191 454.014a2.199 2.199 0 1 0 .002-4.397 2.199 2.199 0 0 0-.002 4.397M528.18 454.014a2.198 2.198 0 1 0-.002-4.397 2.198 2.198 0 0 0 .001 4.397M551.263 454.014a2.199 2.199 0 1 0 .002-4.397 2.199 2.199 0 0 0-.002 4.397M573.25 454.014a2.198 2.198 0 1 0 .001-4.397 2.198 2.198 0 0 0 0 4.397M596.337 454.014a2.198 2.198 0 1 0 0-4.397 2.198 2.198 0 0 0 0 4.397M618.322 454.014a2.199 2.199 0 1 0 .002-4.397 2.199 2.199 0 0 0-.002 4.397M641.41 454.014a2.198 2.198 0 1 0-.002-4.397 2.198 2.198 0 0 0 .001 4.397M663.394 454.014a2.199 2.199 0 1 0 .002-4.397 2.199 2.199 0 0 0-.002 4.397M685.381 454.014a2.198 2.198 0 1 0 .001-4.397 2.198 2.198 0 0 0 0 4.397M708.468 454.014a2.198 2.198 0 1 0 0-4.397 2.198 2.198 0 0 0 0 4.397M730.453 454.014a2.199 2.199 0 1 0 .002-4.397 2.199 2.199 0 0 0-.002 4.397M495.198 476a2.198 2.198 0 1 0 .002-4.397 2.198 2.198 0 0 0-.002 4.397M517.185 476a2.198 2.198 0 1 0 .002-4.396 2.198 2.198 0 0 0-.002 4.396M540.272 476a2.198 2.198 0 1 0 0-4.396 2.198 2.198 0 0 0 0 4.396M562.256 476a2.198 2.198 0 1 0 .003-4.397 2.198 2.198 0 0 0-.003 4.397M585.344 476a2.198 2.198 0 1 0 0-4.396 2.198 2.198 0 0 0 0 4.396M607.329 476a2.198 2.198 0 1 0 .002-4.397 2.198 2.198 0 0 0-.002 4.397M629.316 476a2.198 2.198 0 1 0 .002-4.396 2.198 2.198 0 0 0-.002 4.396M652.403 476a2.198 2.198 0 1 0 0-4.396 2.198 2.198 0 0 0 0 4.396M674.387 476a2.198 2.198 0 1 0 .003-4.397 2.198 2.198 0 0 0-.003 4.397M697.475 476a2.198 2.198 0 1 0 0-4.396 2.198 2.198 0 0 0 0 4.396M719.46 476a2.198 2.198 0 1 0 .002-4.397 2.198 2.198 0 0 0-.002 4.397"/>
        <g>
            <path d="M13.191 4.397A2.199 2.199 0 1 0 13.193 0a2.199 2.199 0 0 0-.002 4.397M35.18 4.397a2.198 2.198 0 1 0-.002-4.396 2.198 2.198 0 0 0 .001 4.396M58.263 4.397A2.199 2.199 0 1 0 58.265 0a2.199 2.199 0 0 0-.002 4.397M80.25 4.397a2.198 2.198 0 1 0 .001-4.396 2.198 2.198 0 0 0 0 4.396M103.337 4.397a2.198 2.198 0 1 0 0-4.396 2.198 2.198 0 0 0 0 4.396M125.322 4.397A2.199 2.199 0 1 0 125.324 0a2.199 2.199 0 0 0-.002 4.397M148.41 4.397a2.198 2.198 0 1 0-.002-4.396 2.198 2.198 0 0 0 .001 4.396M170.394 4.397A2.199 2.199 0 1 0 170.396 0a2.199 2.199 0 0 0-.002 4.397M192.381 4.397a2.198 2.198 0 1 0 .001-4.396 2.198 2.198 0 0 0 0 4.396M215.468 4.397a2.198 2.198 0 1 0 0-4.396 2.198 2.198 0 0 0 0 4.396M237.453 4.397A2.199 2.199 0 1 0 237.455 0a2.199 2.199 0 0 0-.002 4.397M260.54 4.397a2.198 2.198 0 1 0 0-4.396 2.198 2.198 0 0 0 0 4.396M282.525 4.397A2.199 2.199 0 1 0 282.527 0a2.199 2.199 0 0 0-.002 4.397M305.612 4.397a2.198 2.198 0 1 0 0-4.396 2.198 2.198 0 0 0 0 4.396M327.6 4.397a2.198 2.198 0 1 0-.002-4.396 2.198 2.198 0 0 0 .001 4.396M349.584 4.397A2.199 2.199 0 1 0 349.585 0a2.199 2.199 0 0 0-.001 4.397M372.671 4.397a2.198 2.198 0 1 0 0-4.396 2.198 2.198 0 0 0 0 4.396M394.656 4.397A2.199 2.199 0 1 0 394.658 0a2.199 2.199 0 0 0-.002 4.397M417.743 4.397a2.198 2.198 0 1 0 0-4.396 2.198 2.198 0 0 0 0 4.396M439.73 4.397a2.198 2.198 0 1 0-.001-4.396 2.198 2.198 0 0 0 .001 4.396M462.814 4.397A2.199 2.199 0 1 0 462.816 0a2.199 2.199 0 0 0-.002 4.397M484.802 4.397a2.198 2.198 0 1 0 0-4.396 2.198 2.198 0 0 0 0 4.396M2.198 27.483a2.199 2.199 0 1 0 .001-4.398 2.199 2.199 0 0 0-.001 4.398M24.185 27.483a2.198 2.198 0 1 0 0-4.397 2.198 2.198 0 0 0 0 4.397M47.272 27.483a2.198 2.198 0 1 0-.001-4.397 2.198 2.198 0 0 0 0 4.397M69.256 27.483a2.199 2.199 0 1 0 .002-4.398 2.199 2.199 0 0 0-.002 4.398M92.344 27.483a2.198 2.198 0 1 0-.001-4.397 2.198 2.198 0 0 0 .001 4.397M114.329 27.483a2.199 2.199 0 1 0 .001-4.398 2.199 2.199 0 0 0-.001 4.398M136.316 27.483a2.198 2.198 0 1 0 0-4.397 2.198 2.198 0 0 0 0 4.397M159.403 27.483a2.198 2.198 0 1 0-.001-4.397 2.198 2.198 0 0 0 0 4.397M181.387 27.483a2.199 2.199 0 1 0 .002-4.398 2.199 2.199 0 0 0-.002 4.398M204.475 27.483a2.198 2.198 0 1 0-.001-4.397 2.198 2.198 0 0 0 0 4.397M226.46 27.483a2.199 2.199 0 1 0 .001-4.398 2.199 2.199 0 0 0-.001 4.398M249.546 27.483a2.198 2.198 0 1 0 .001-4.397 2.198 2.198 0 0 0 0 4.397M271.534 27.483a2.198 2.198 0 1 0-.001-4.397 2.198 2.198 0 0 0 0 4.397M293.518 27.483a2.199 2.199 0 1 0 .002-4.398 2.199 2.199 0 0 0-.002 4.398M316.606 27.483a2.198 2.198 0 1 0-.001-4.397 2.198 2.198 0 0 0 0 4.397M338.59 27.483a2.199 2.199 0 1 0 .002-4.398 2.199 2.199 0 0 0-.001 4.398M361.677 27.483a2.198 2.198 0 1 0 .001-4.397 2.198 2.198 0 0 0 0 4.397M383.665 27.483a2.198 2.198 0 1 0-.002-4.397 2.198 2.198 0 0 0 .002 4.397M405.65 27.483a2.199 2.199 0 1 0 0-4.398 2.199 2.199 0 0 0 0 4.398M428.737 27.483a2.198 2.198 0 1 0-.001-4.397 2.198 2.198 0 0 0 0 4.397M450.721 27.483a2.199 2.199 0 1 0 .002-4.398 2.199 2.199 0 0 0-.002 4.398M473.808 27.483a2.198 2.198 0 1 0 .001-4.397 2.198 2.198 0 0 0 0 4.397M13.191 49.469a2.199 2.199 0 1 0 .002-4.398 2.199 2.199 0 0 0-.002 4.398M35.18 49.469a2.198 2.198 0 1 0-.002-4.397 2.198 2.198 0 0 0 .001 4.397M58.263 49.469a2.199 2.199 0 1 0 .002-4.398 2.199 2.199 0 0 0-.002 4.398M80.25 49.469a2.198 2.198 0 1 0 .001-4.397 2.198 2.198 0 0 0 0 4.397M103.337 49.469a2.198 2.198 0 1 0 0-4.397 2.198 2.198 0 0 0 0 4.397M125.322 49.469a2.199 2.199 0 1 0 .002-4.398 2.199 2.199 0 0 0-.002 4.398M148.41 49.469a2.198 2.198 0 1 0-.002-4.397 2.198 2.198 0 0 0 .001 4.397M170.394 49.469a2.199 2.199 0 1 0 .002-4.398 2.199 2.199 0 0 0-.002 4.398M192.381 49.469a2.198 2.198 0 1 0 .001-4.397 2.198 2.198 0 0 0 0 4.397M215.468 49.469a2.198 2.198 0 1 0 0-4.397 2.198 2.198 0 0 0 0 4.397M237.453 49.469a2.199 2.199 0 1 0 .002-4.398 2.199 2.199 0 0 0-.002 4.398M260.54 49.469a2.198 2.198 0 1 0 0-4.397 2.198 2.198 0 0 0 0 4.397M282.525 49.469a2.199 2.199 0 1 0 .002-4.398 2.199 2.199 0 0 0-.002 4.398M305.612 49.469a2.198 2.198 0 1 0 0-4.397 2.198 2.198 0 0 0 0 4.397M327.6 49.469a2.198 2.198 0 1 0-.002-4.397 2.198 2.198 0 0 0 .001 4.397M349.584 49.469a2.199 2.199 0 1 0 .001-4.398 2.199 2.199 0 0 0-.001 4.398M372.671 49.469a2.198 2.198 0 1 0 0-4.397 2.198 2.198 0 0 0 0 4.397M394.656 49.469a2.199 2.199 0 1 0 .002-4.398 2.199 2.199 0 0 0-.002 4.398M417.743 49.469a2.198 2.198 0 1 0 0-4.397 2.198 2.198 0 0 0 0 4.397M439.73 49.469a2.198 2.198 0 1 0-.001-4.397 2.198 2.198 0 0 0 .001 4.397M462.814 49.469a2.199 2.199 0 1 0 .002-4.398 2.199 2.199 0 0 0-.002 4.398M484.802 49.469a2.198 2.198 0 1 0 0-4.397 2.198 2.198 0 0 0 0 4.397M2.198 72.554a2.2 2.2 0 1 0 0-4.398 2.2 2.2 0 0 0 0 4.398M24.185 72.554a2.199 2.199 0 1 0 0-4.397 2.199 2.199 0 0 0 0 4.397M47.272 72.554a2.199 2.199 0 1 0-.002-4.397 2.199 2.199 0 0 0 .002 4.397M69.256 72.554a2.2 2.2 0 1 0 .001-4.398 2.2 2.2 0 0 0 0 4.398M92.344 72.554a2.199 2.199 0 1 0-.002-4.397 2.199 2.199 0 0 0 .002 4.397M114.329 72.554a2.2 2.2 0 1 0 0-4.398 2.2 2.2 0 0 0 0 4.398M136.316 72.554a2.199 2.199 0 1 0 0-4.397 2.199 2.199 0 0 0 0 4.397M159.403 72.554a2.199 2.199 0 1 0-.002-4.397 2.199 2.199 0 0 0 .002 4.397M181.387 72.554a2.2 2.2 0 1 0 .001-4.398 2.2 2.2 0 0 0 0 4.398M204.475 72.554a2.199 2.199 0 1 0-.002-4.397 2.199 2.199 0 0 0 .002 4.397M226.46 72.554a2.2 2.2 0 1 0 0-4.398 2.2 2.2 0 0 0 0 4.398M249.546 72.554a2.199 2.199 0 1 0 0-4.397 2.199 2.199 0 0 0 0 4.397M271.534 72.554a2.199 2.199 0 1 0-.002-4.397 2.199 2.199 0 0 0 .002 4.397M293.518 72.554a2.2 2.2 0 1 0 .001-4.398 2.2 2.2 0 0 0 0 4.398M316.606 72.554a2.199 2.199 0 1 0-.002-4.397 2.199 2.199 0 0 0 .002 4.397M338.59 72.554a2.2 2.2 0 1 0 .001-4.398 2.2 2.2 0 0 0 0 4.398M361.677 72.554a2.199 2.199 0 1 0 0-4.397 2.199 2.199 0 0 0 0 4.397M383.665 72.554a2.199 2.199 0 1 0-.002-4.397 2.199 2.199 0 0 0 .002 4.397M405.65 72.554a2.2 2.2 0 1 0 0-4.398 2.2 2.2 0 0 0 0 4.398M428.737 72.554a2.199 2.199 0 1 0-.002-4.397 2.199 2.199 0 0 0 .002 4.397M450.721 72.554a2.2 2.2 0 1 0 .001-4.398 2.2 2.2 0 0 0 0 4.398M473.808 72.554a2.199 2.199 0 1 0 0-4.397 2.199 2.199 0 0 0 0 4.397M13.191 94.54a2.199 2.199 0 1 0 .002-4.397 2.199 2.199 0 0 0-.002 4.397M35.18 94.54a2.198 2.198 0 1 0-.002-4.396 2.198 2.198 0 0 0 .001 4.396M58.263 94.54a2.199 2.199 0 1 0 .002-4.397 2.199 2.199 0 0 0-.002 4.397M80.25 94.54a2.198 2.198 0 1 0 .001-4.396 2.198 2.198 0 0 0 0 4.396M103.337 94.54a2.198 2.198 0 1 0 0-4.396 2.198 2.198 0 0 0 0 4.396M125.322 94.54a2.199 2.199 0 1 0 .001-4.397 2.199 2.199 0 0 0-.001 4.397M148.41 94.54a2.198 2.198 0 1 0-.002-4.396 2.198 2.198 0 0 0 .001 4.396M170.394 94.54a2.199 2.199 0 1 0 .002-4.397 2.199 2.199 0 0 0-.002 4.397M192.381 94.54a2.198 2.198 0 1 0 .001-4.396 2.198 2.198 0 0 0 0 4.396M215.468 94.54a2.198 2.198 0 1 0-.001-4.396 2.198 2.198 0 0 0 .001 4.396M237.453 94.54a2.199 2.199 0 1 0 .001-4.397 2.199 2.199 0 0 0-.001 4.397M260.54 94.54a2.198 2.198 0 1 0 0-4.396 2.198 2.198 0 0 0 0 4.396M282.525 94.54a2.199 2.199 0 1 0 .002-4.397 2.199 2.199 0 0 0-.002 4.397M305.612 94.54a2.198 2.198 0 1 0 0-4.396 2.198 2.198 0 0 0 0 4.396M327.6 94.54a2.198 2.198 0 1 0-.002-4.396 2.198 2.198 0 0 0 .001 4.396M349.584 94.54a2.199 2.199 0 1 0 .001-4.397 2.199 2.199 0 0 0-.001 4.397M372.671 94.54a2.198 2.198 0 1 0 0-4.396 2.198 2.198 0 0 0 0 4.396M394.656 94.54a2.199 2.199 0 1 0 .002-4.397 2.199 2.199 0 0 0-.002 4.397M417.743 94.54a2.198 2.198 0 1 0 0-4.396 2.198 2.198 0 0 0 0 4.396M439.73 94.54a2.198 2.198 0 1 0-.001-4.396 2.198 2.198 0 0 0 .001 4.396M462.814 94.54a2.199 2.199 0 1 0 .002-4.397 2.199 2.199 0 0 0-.002 4.397M484.802 94.54a2.198 2.198 0 1 0 0-4.396 2.198 2.198 0 0 0 0 4.396M2.198 116.527a2.199 2.199 0 1 0 .001-4.398 2.199 2.199 0 0 0-.001 4.398M24.185 116.527a2.198 2.198 0 1 0 0-4.397 2.198 2.198 0 0 0 0 4.397M47.272 116.527a2.198 2.198 0 1 0-.001-4.397 2.198 2.198 0 0 0 0 4.397M69.256 116.527a2.199 2.199 0 1 0 .002-4.398 2.199 2.199 0 0 0-.002 4.398M92.344 116.527a2.198 2.198 0 1 0-.001-4.397 2.198 2.198 0 0 0 .001 4.397M114.329 116.527a2.199 2.199 0 1 0 .001-4.398 2.199 2.199 0 0 0-.001 4.398M136.316 116.527a2.198 2.198 0 1 0 0-4.397 2.198 2.198 0 0 0 0 4.397M159.403 116.527a2.198 2.198 0 1 0-.001-4.397 2.198 2.198 0 0 0 0 4.397M181.387 116.527a2.199 2.199 0 1 0 .002-4.398 2.199 2.199 0 0 0-.002 4.398M204.475 116.527a2.198 2.198 0 1 0-.001-4.397 2.198 2.198 0 0 0 0 4.397M226.46 116.527a2.199 2.199 0 1 0 .001-4.398 2.199 2.199 0 0 0-.001 4.398M249.546 116.527a2.198 2.198 0 1 0 .001-4.397 2.198 2.198 0 0 0 0 4.397M271.534 116.527a2.198 2.198 0 1 0-.001-4.397 2.198 2.198 0 0 0 0 4.397M293.518 116.527a2.199 2.199 0 1 0 .002-4.398 2.199 2.199 0 0 0-.002 4.398M316.606 116.527a2.198 2.198 0 1 0-.001-4.397 2.198 2.198 0 0 0 0 4.397M338.59 116.527a2.199 2.199 0 1 0 .002-4.398 2.199 2.199 0 0 0-.001 4.398M361.677 116.527a2.198 2.198 0 1 0 .001-4.397 2.198 2.198 0 0 0 0 4.397M383.665 116.527a2.198 2.198 0 1 0-.002-4.397 2.198 2.198 0 0 0 .002 4.397M405.65 116.527a2.199 2.199 0 1 0 0-4.398 2.199 2.199 0 0 0 0 4.398M428.737 116.527a2.198 2.198 0 1 0-.001-4.397 2.198 2.198 0 0 0 0 4.397M450.721 116.527a2.199 2.199 0 1 0 .002-4.398 2.199 2.199 0 0 0-.002 4.398M473.808 116.527a2.198 2.198 0 1 0 .001-4.397 2.198 2.198 0 0 0 0 4.397M13.191 139.612a2.199 2.199 0 1 0 .002-4.397 2.199 2.199 0 0 0-.002 4.397M35.18 139.612a2.198 2.198 0 1 0-.002-4.397 2.198 2.198 0 0 0 .001 4.397M58.263 139.612a2.199 2.199 0 1 0 .002-4.397 2.199 2.199 0 0 0-.002 4.397M80.25 139.612a2.198 2.198 0 1 0 .001-4.396 2.198 2.198 0 0 0 0 4.396M103.337 139.612a2.198 2.198 0 1 0 0-4.397 2.198 2.198 0 0 0 0 4.397M125.322 139.612a2.199 2.199 0 1 0 .002-4.397 2.199 2.199 0 0 0-.002 4.397M148.41 139.612a2.198 2.198 0 1 0-.002-4.397 2.198 2.198 0 0 0 .001 4.397M170.394 139.612a2.199 2.199 0 1 0 .002-4.397 2.199 2.199 0 0 0-.002 4.397M192.381 139.612a2.198 2.198 0 1 0 .001-4.396 2.198 2.198 0 0 0 0 4.396M215.468 139.612a2.198 2.198 0 1 0 0-4.397 2.198 2.198 0 0 0 0 4.397M237.453 139.612a2.199 2.199 0 1 0 .002-4.397 2.199 2.199 0 0 0-.002 4.397M260.54 139.612a2.198 2.198 0 1 0 0-4.397 2.198 2.198 0 0 0 0 4.397M282.525 139.612a2.199 2.199 0 1 0 .002-4.397 2.199 2.199 0 0 0-.002 4.397M305.612 139.612a2.198 2.198 0 1 0 0-4.396 2.198 2.198 0 0 0 0 4.396M327.6 139.612a2.198 2.198 0 1 0-.002-4.397 2.198 2.198 0 0 0 .001 4.397M349.584 139.612a2.199 2.199 0 1 0 .001-4.397 2.199 2.199 0 0 0-.001 4.397M372.671 139.612a2.198 2.198 0 1 0 0-4.397 2.198 2.198 0 0 0 0 4.397M394.656 139.612a2.199 2.199 0 1 0 .002-4.397 2.199 2.199 0 0 0-.002 4.397M417.743 139.612a2.198 2.198 0 1 0 0-4.396 2.198 2.198 0 0 0 0 4.396M439.73 139.612a2.198 2.198 0 1 0-.001-4.397 2.198 2.198 0 0 0 .001 4.397M462.814 139.612a2.199 2.199 0 1 0 .002-4.397 2.199 2.199 0 0 0-.002 4.397M484.802 139.612a2.198 2.198 0 1 0 0-4.397 2.198 2.198 0 0 0 0 4.397M2.198 161.598a2.199 2.199 0 1 0 .001-4.397 2.199 2.199 0 0 0-.001 4.397M24.185 161.598a2.198 2.198 0 1 0 0-4.396 2.198 2.198 0 0 0 0 4.396M47.272 161.598a2.198 2.198 0 1 0-.001-4.396 2.198 2.198 0 0 0 0 4.396M69.256 161.598a2.199 2.199 0 1 0 .002-4.397 2.199 2.199 0 0 0-.002 4.397M92.344 161.598a2.198 2.198 0 1 0-.001-4.396 2.198 2.198 0 0 0 .001 4.396M114.329 161.598a2.199 2.199 0 1 0 .001-4.397 2.199 2.199 0 0 0-.001 4.397M136.316 161.598a2.198 2.198 0 1 0 0-4.396 2.198 2.198 0 0 0 0 4.396M159.403 161.598a2.198 2.198 0 1 0-.001-4.396 2.198 2.198 0 0 0 0 4.396M181.387 161.598a2.199 2.199 0 1 0 .002-4.397 2.199 2.199 0 0 0-.002 4.397M204.475 161.598a2.198 2.198 0 1 0-.001-4.396 2.198 2.198 0 0 0 0 4.396M226.46 161.598a2.199 2.199 0 1 0 .001-4.397 2.199 2.199 0 0 0-.001 4.397M249.546 161.598a2.198 2.198 0 1 0 .001-4.396 2.198 2.198 0 0 0 0 4.396M271.534 161.598a2.198 2.198 0 1 0-.001-4.396 2.198 2.198 0 0 0 0 4.396M293.518 161.598a2.199 2.199 0 1 0 .002-4.397 2.199 2.199 0 0 0-.002 4.397M316.606 161.598a2.198 2.198 0 1 0-.001-4.396 2.198 2.198 0 0 0 0 4.396M338.59 161.598a2.199 2.199 0 1 0 .002-4.397 2.199 2.199 0 0 0-.001 4.397M361.677 161.598a2.198 2.198 0 1 0 .001-4.396 2.198 2.198 0 0 0 0 4.396M383.665 161.598a2.198 2.198 0 1 0-.002-4.396 2.198 2.198 0 0 0 .002 4.396M405.65 161.598a2.199 2.199 0 1 0 0-4.397 2.199 2.199 0 0 0 0 4.397M428.737 161.598a2.198 2.198 0 1 0-.001-4.396 2.198 2.198 0 0 0 0 4.396M450.721 161.598a2.199 2.199 0 1 0 .002-4.397 2.199 2.199 0 0 0-.002 4.397M473.808 161.598a2.198 2.198 0 1 0 .001-4.396 2.198 2.198 0 0 0 0 4.396M13.191 184.684a2.2 2.2 0 1 0 0-4.399 2.2 2.2 0 0 0 0 4.399M35.18 184.684a2.199 2.199 0 1 0-.003-4.398 2.199 2.199 0 0 0 .002 4.398M58.263 184.684a2.2 2.2 0 1 0 .001-4.399 2.2 2.2 0 0 0 0 4.399M80.25 184.684a2.199 2.199 0 1 0 0-4.398 2.199 2.199 0 0 0 0 4.398M103.337 184.684a2.199 2.199 0 1 0-.002-4.398 2.199 2.199 0 0 0 .002 4.398M125.322 184.684a2.2 2.2 0 1 0 0-4.399 2.2 2.2 0 0 0 0 4.399M148.41 184.684a2.199 2.199 0 1 0-.002-4.398 2.199 2.199 0 0 0 .001 4.398M170.394 184.684a2.2 2.2 0 1 0 .001-4.399 2.2 2.2 0 0 0 0 4.399M192.381 184.684a2.199 2.199 0 1 0 0-4.398 2.199 2.199 0 0 0 0 4.398M215.468 184.684a2.199 2.199 0 1 0-.002-4.398 2.199 2.199 0 0 0 .002 4.398M237.453 184.684a2.2 2.2 0 1 0 0-4.399 2.2 2.2 0 0 0 0 4.399M260.54 184.684a2.199 2.199 0 1 0-.002-4.398 2.199 2.199 0 0 0 .002 4.398M282.525 184.684a2.2 2.2 0 1 0 0-4.399 2.2 2.2 0 0 0 0 4.399M305.612 184.684a2.199 2.199 0 1 0 0-4.398 2.199 2.199 0 0 0 0 4.398M327.6 184.684a2.199 2.199 0 1 0-.003-4.398 2.199 2.199 0 0 0 .002 4.398M349.584 184.684a2.2 2.2 0 1 0 0-4.399 2.2 2.2 0 0 0 0 4.399M372.671 184.684a2.199 2.199 0 1 0-.002-4.398 2.199 2.199 0 0 0 .002 4.398M394.656 184.684a2.2 2.2 0 1 0 0-4.399 2.2 2.2 0 0 0 0 4.399M417.743 184.684a2.199 2.199 0 1 0 0-4.398 2.199 2.199 0 0 0 0 4.398M439.73 184.684a2.199 2.199 0 1 0-.002-4.398 2.199 2.199 0 0 0 .002 4.398M462.814 184.684a2.2 2.2 0 1 0 0-4.399 2.2 2.2 0 0 0 0 4.399M484.802 184.684a2.199 2.199 0 1 0-.002-4.398 2.199 2.199 0 0 0 .002 4.398M2.198 206.67a2.199 2.199 0 1 0 .001-4.398 2.199 2.199 0 0 0-.001 4.398M24.185 206.67a2.198 2.198 0 1 0 0-4.397 2.198 2.198 0 0 0 0 4.397M47.272 206.67a2.198 2.198 0 1 0-.001-4.397 2.198 2.198 0 0 0 0 4.397M69.256 206.67a2.199 2.199 0 1 0 .002-4.398 2.199 2.199 0 0 0-.002 4.398M92.344 206.67a2.198 2.198 0 1 0-.001-4.397 2.198 2.198 0 0 0 .001 4.397M114.329 206.67a2.199 2.199 0 1 0 .001-4.398 2.199 2.199 0 0 0-.001 4.398M136.316 206.67a2.198 2.198 0 1 0 0-4.397 2.198 2.198 0 0 0 0 4.397M159.403 206.67a2.198 2.198 0 1 0-.001-4.397 2.198 2.198 0 0 0 0 4.397M181.387 206.67a2.199 2.199 0 1 0 .002-4.398 2.199 2.199 0 0 0-.002 4.398M204.475 206.67a2.198 2.198 0 1 0-.001-4.397 2.198 2.198 0 0 0 0 4.397M226.46 206.67a2.199 2.199 0 1 0 .001-4.398 2.199 2.199 0 0 0-.001 4.398M249.546 206.67a2.198 2.198 0 1 0 .001-4.397 2.198 2.198 0 0 0 0 4.397M271.534 206.67a2.198 2.198 0 1 0-.002-4.397 2.198 2.198 0 0 0 .002 4.397M293.518 206.67a2.199 2.199 0 1 0 .002-4.398 2.199 2.199 0 0 0-.002 4.398M316.606 206.67a2.198 2.198 0 1 0-.001-4.397 2.198 2.198 0 0 0 0 4.397M338.59 206.67a2.199 2.199 0 1 0 .002-4.398 2.199 2.199 0 0 0-.001 4.398M361.677 206.67a2.198 2.198 0 1 0 0-4.397 2.198 2.198 0 0 0 0 4.397M383.665 206.67a2.198 2.198 0 1 0-.002-4.397 2.198 2.198 0 0 0 .002 4.397M405.65 206.67a2.199 2.199 0 1 0 0-4.398 2.199 2.199 0 0 0 0 4.398M428.737 206.67a2.198 2.198 0 1 0-.001-4.397 2.198 2.198 0 0 0 0 4.397M450.721 206.67a2.199 2.199 0 1 0 .002-4.398 2.199 2.199 0 0 0-.002 4.398M473.808 206.67a2.198 2.198 0 1 0 0-4.397 2.198 2.198 0 0 0 0 4.397M13.191 228.656a2.199 2.199 0 1 0 .002-4.397 2.199 2.199 0 0 0-.002 4.397M35.18 228.656a2.198 2.198 0 1 0-.002-4.397 2.198 2.198 0 0 0 .001 4.397M58.263 228.656a2.199 2.199 0 1 0 .002-4.397 2.199 2.199 0 0 0-.002 4.397M80.25 228.656a2.198 2.198 0 1 0 .001-4.397 2.198 2.198 0 0 0 0 4.397M103.337 228.656a2.198 2.198 0 1 0 0-4.397 2.198 2.198 0 0 0 0 4.397M125.322 228.656a2.199 2.199 0 1 0 .002-4.397 2.199 2.199 0 0 0-.002 4.397M148.41 228.656a2.198 2.198 0 1 0-.002-4.397 2.198 2.198 0 0 0 .001 4.397M170.394 228.656a2.199 2.199 0 1 0 .002-4.397 2.199 2.199 0 0 0-.002 4.397M192.381 228.656a2.198 2.198 0 1 0 .001-4.397 2.198 2.198 0 0 0 0 4.397M215.468 228.656a2.198 2.198 0 1 0 0-4.397 2.198 2.198 0 0 0 0 4.397M237.453 228.656a2.199 2.199 0 1 0 .002-4.397 2.199 2.199 0 0 0-.002 4.397M260.54 228.656a2.198 2.198 0 1 0 0-4.397 2.198 2.198 0 0 0 0 4.397M282.525 228.656a2.199 2.199 0 1 0 .002-4.397 2.199 2.199 0 0 0-.002 4.397M305.612 228.656a2.198 2.198 0 1 0 0-4.397 2.198 2.198 0 0 0 0 4.397M327.6 228.656a2.198 2.198 0 1 0-.002-4.397 2.198 2.198 0 0 0 .001 4.397M349.584 228.656a2.199 2.199 0 1 0 .001-4.397 2.199 2.199 0 0 0-.001 4.397M372.671 228.656a2.198 2.198 0 1 0 0-4.397 2.198 2.198 0 0 0 0 4.397M394.656 228.656a2.199 2.199 0 1 0 .002-4.397 2.199 2.199 0 0 0-.002 4.397M417.743 228.656a2.198 2.198 0 1 0 0-4.397 2.198 2.198 0 0 0 0 4.397M439.73 228.656a2.198 2.198 0 1 0-.001-4.397 2.198 2.198 0 0 0 .001 4.397M462.814 228.656a2.199 2.199 0 1 0 .002-4.397 2.199 2.199 0 0 0-.002 4.397M484.802 228.656a2.198 2.198 0 1 0 0-4.397 2.198 2.198 0 0 0 0 4.397M2.198 251.741a2.199 2.199 0 1 0 .001-4.397 2.199 2.199 0 0 0-.001 4.397M24.185 251.741a2.198 2.198 0 1 0 0-4.396 2.198 2.198 0 0 0 0 4.396M47.272 251.741a2.198 2.198 0 1 0-.001-4.396 2.198 2.198 0 0 0 0 4.396M69.256 251.741a2.199 2.199 0 1 0 .002-4.397 2.199 2.199 0 0 0-.002 4.397M92.344 251.741a2.198 2.198 0 1 0-.001-4.396 2.198 2.198 0 0 0 .001 4.396M114.329 251.741a2.199 2.199 0 1 0 .001-4.397 2.199 2.199 0 0 0-.001 4.397M136.316 251.741a2.198 2.198 0 1 0 0-4.396 2.198 2.198 0 0 0 0 4.396M159.403 251.741a2.198 2.198 0 1 0-.001-4.396 2.198 2.198 0 0 0 0 4.396M181.387 251.741a2.199 2.199 0 1 0 .002-4.397 2.199 2.199 0 0 0-.002 4.397M204.475 251.741a2.198 2.198 0 1 0-.001-4.396 2.198 2.198 0 0 0 0 4.396M226.46 251.741a2.199 2.199 0 1 0 .001-4.397 2.199 2.199 0 0 0-.001 4.397M249.546 251.741a2.198 2.198 0 1 0 .001-4.396 2.198 2.198 0 0 0 0 4.396M271.534 251.741a2.198 2.198 0 1 0-.001-4.396 2.198 2.198 0 0 0 0 4.396M293.518 251.741a2.199 2.199 0 1 0 .002-4.397 2.199 2.199 0 0 0-.002 4.397M316.606 251.741a2.198 2.198 0 1 0-.001-4.396 2.198 2.198 0 0 0 0 4.396M338.59 251.741a2.199 2.199 0 1 0 .002-4.397 2.199 2.199 0 0 0-.001 4.397M361.677 251.741a2.198 2.198 0 1 0 .001-4.396 2.198 2.198 0 0 0 0 4.396M383.665 251.741a2.198 2.198 0 1 0-.002-4.396 2.198 2.198 0 0 0 .002 4.396M405.65 251.741a2.199 2.199 0 1 0 0-4.397 2.199 2.199 0 0 0 0 4.397M428.737 251.741a2.198 2.198 0 1 0-.001-4.396 2.198 2.198 0 0 0 0 4.396M450.721 251.741a2.199 2.199 0 1 0 .002-4.397 2.199 2.199 0 0 0-.002 4.397M473.808 251.741a2.198 2.198 0 1 0 .001-4.396 2.198 2.198 0 0 0 0 4.396M13.191 273.727a2.199 2.199 0 1 0 .002-4.397 2.199 2.199 0 0 0-.002 4.397M35.18 273.727a2.198 2.198 0 1 0-.002-4.396 2.198 2.198 0 0 0 .001 4.396M58.263 273.727a2.199 2.199 0 1 0 .002-4.397 2.199 2.199 0 0 0-.002 4.397M80.25 273.727a2.198 2.198 0 1 0 .001-4.396 2.198 2.198 0 0 0 0 4.396M103.337 273.727a2.198 2.198 0 1 0 0-4.396 2.198 2.198 0 0 0 0 4.396M125.322 273.727a2.199 2.199 0 1 0 .002-4.397 2.199 2.199 0 0 0-.002 4.397M148.41 273.727a2.198 2.198 0 1 0-.002-4.396 2.198 2.198 0 0 0 .001 4.396M170.394 273.727a2.199 2.199 0 1 0 .002-4.397 2.199 2.199 0 0 0-.002 4.397M192.381 273.727a2.198 2.198 0 1 0 .001-4.396 2.198 2.198 0 0 0 0 4.396M215.468 273.727a2.198 2.198 0 1 0 0-4.396 2.198 2.198 0 0 0 0 4.396M237.453 273.727a2.199 2.199 0 1 0 .002-4.397 2.199 2.199 0 0 0-.002 4.397M260.54 273.727a2.198 2.198 0 1 0 0-4.396 2.198 2.198 0 0 0 0 4.396M282.525 273.727a2.199 2.199 0 1 0 .002-4.397 2.199 2.199 0 0 0-.002 4.397M305.612 273.727a2.198 2.198 0 1 0 0-4.396 2.198 2.198 0 0 0 0 4.396M327.6 273.727a2.198 2.198 0 1 0-.002-4.396 2.198 2.198 0 0 0 .001 4.396M349.584 273.727a2.199 2.199 0 1 0 .001-4.397 2.199 2.199 0 0 0-.001 4.397M372.671 273.727a2.198 2.198 0 1 0 0-4.396 2.198 2.198 0 0 0 0 4.396M394.656 273.727a2.199 2.199 0 1 0 .002-4.397 2.199 2.199 0 0 0-.002 4.397M417.743 273.727a2.198 2.198 0 1 0 0-4.396 2.198 2.198 0 0 0 0 4.396M439.73 273.727a2.198 2.198 0 1 0-.001-4.396 2.198 2.198 0 0 0 .001 4.396M462.814 273.727a2.199 2.199 0 1 0 .002-4.397 2.199 2.199 0 0 0-.002 4.397M484.802 273.727a2.198 2.198 0 1 0 0-4.396 2.198 2.198 0 0 0 0 4.396M2.198 296.813a2.198 2.198 0 1 0 0-4.397 2.199 2.199 0 0 0 0 4.397M24.185 296.813a2.199 2.199 0 1 0 0-4.397 2.199 2.199 0 0 0 0 4.397M47.272 296.813a2.199 2.199 0 1 0-.002-4.397 2.199 2.199 0 0 0 .002 4.397M69.256 296.813a2.198 2.198 0 1 0 0-4.397 2.199 2.199 0 0 0 0 4.397M92.344 296.813a2.199 2.199 0 1 0-.002-4.397 2.199 2.199 0 0 0 .002 4.397M114.329 296.813a2.198 2.198 0 1 0 0-4.397 2.199 2.199 0 0 0 0 4.397M136.316 296.813a2.199 2.199 0 1 0 0-4.397 2.199 2.199 0 0 0 0 4.397M159.403 296.813a2.199 2.199 0 1 0-.002-4.397 2.199 2.199 0 0 0 .002 4.397M181.387 296.813a2.198 2.198 0 1 0 0-4.397 2.199 2.199 0 0 0 0 4.397M204.475 296.813a2.199 2.199 0 1 0-.002-4.397 2.199 2.199 0 0 0 .002 4.397M226.46 296.813a2.198 2.198 0 1 0 0-4.397 2.199 2.199 0 0 0 0 4.397M249.546 296.813a2.199 2.199 0 1 0 0-4.397 2.199 2.199 0 0 0 0 4.397M271.534 296.813a2.199 2.199 0 1 0-.002-4.397 2.199 2.199 0 0 0 .002 4.397M293.518 296.813a2.198 2.198 0 1 0 0-4.397 2.199 2.199 0 0 0 0 4.397M316.606 296.813a2.199 2.199 0 1 0-.002-4.397 2.199 2.199 0 0 0 .002 4.397M338.59 296.813a2.198 2.198 0 1 0 0-4.397 2.199 2.199 0 0 0 0 4.397M361.677 296.813a2.199 2.199 0 1 0 0-4.397 2.199 2.199 0 0 0 0 4.397M383.665 296.813a2.199 2.199 0 1 0-.002-4.397 2.199 2.199 0 0 0 .002 4.397M405.65 296.813a2.198 2.198 0 1 0 0-4.397 2.199 2.199 0 0 0 0 4.397M428.737 296.813a2.199 2.199 0 1 0-.002-4.397 2.199 2.199 0 0 0 .002 4.397M450.721 296.813a2.198 2.198 0 1 0 0-4.397 2.199 2.199 0 0 0 0 4.397M473.808 296.813a2.199 2.199 0 1 0 0-4.397 2.199 2.199 0 0 0 0 4.397M13.191 318.8a2.198 2.198 0 1 0 .002-4.398 2.198 2.198 0 0 0-.002 4.397M35.18 318.8a2.198 2.198 0 1 0-.001-4.397 2.198 2.198 0 0 0 0 4.396M58.263 318.8a2.198 2.198 0 1 0 .003-4.398 2.198 2.198 0 0 0-.003 4.397M80.25 318.8a2.198 2.198 0 1 0 .002-4.397 2.198 2.198 0 0 0-.001 4.396M103.337 318.8a2.198 2.198 0 1 0 0-4.397 2.198 2.198 0 0 0 0 4.396M125.322 318.8a2.198 2.198 0 1 0 .002-4.398 2.198 2.198 0 0 0-.002 4.397M148.41 318.8a2.198 2.198 0 1 0 0-4.397 2.198 2.198 0 0 0 0 4.396M170.394 318.8a2.198 2.198 0 1 0 .003-4.398 2.198 2.198 0 0 0-.003 4.397M192.381 318.8a2.198 2.198 0 1 0 .002-4.397 2.198 2.198 0 0 0-.002 4.396M215.468 318.8a2.198 2.198 0 1 0 0-4.397 2.198 2.198 0 0 0 0 4.396M237.453 318.8a2.198 2.198 0 1 0 .002-4.398 2.198 2.198 0 0 0-.002 4.397M260.54 318.8a2.198 2.198 0 1 0 0-4.397 2.198 2.198 0 0 0 0 4.396M282.525 318.8a2.198 2.198 0 1 0 .003-4.398 2.198 2.198 0 0 0-.003 4.397M305.612 318.8a2.198 2.198 0 1 0 .001-4.397 2.198 2.198 0 0 0-.001 4.396M327.6 318.8a2.198 2.198 0 1 0-.001-4.397 2.198 2.198 0 0 0 0 4.396M349.584 318.8a2.198 2.198 0 1 0 .002-4.398 2.198 2.198 0 0 0-.002 4.397M372.671 318.8a2.198 2.198 0 1 0 0-4.397 2.198 2.198 0 0 0 0 4.396M394.656 318.8a2.198 2.198 0 1 0 .002-4.398 2.198 2.198 0 0 0-.002 4.397M417.743 318.8a2.198 2.198 0 1 0 .001-4.397 2.198 2.198 0 0 0-.001 4.396M439.73 318.8a2.198 2.198 0 1 0 0-4.397 2.198 2.198 0 0 0 0 4.396M462.814 318.8a2.198 2.198 0 1 0 .002-4.398 2.198 2.198 0 0 0-.002 4.397M484.802 318.8a2.198 2.198 0 1 0 0-4.397 2.198 2.198 0 0 0 0 4.396M2.198 341.885a2.199 2.199 0 1 0 .001-4.398 2.199 2.199 0 0 0-.001 4.398M24.185 341.885a2.198 2.198 0 1 0 0-4.397 2.198 2.198 0 0 0 0 4.397M47.272 341.885a2.198 2.198 0 1 0-.001-4.397 2.198 2.198 0 0 0 0 4.397M69.256 341.885a2.199 2.199 0 1 0 .002-4.398 2.199 2.199 0 0 0-.002 4.398M92.344 341.885a2.198 2.198 0 1 0-.001-4.397 2.198 2.198 0 0 0 .001 4.397M114.329 341.885a2.199 2.199 0 1 0 .001-4.398 2.199 2.199 0 0 0-.001 4.398M136.316 341.885a2.198 2.198 0 1 0 0-4.397 2.198 2.198 0 0 0 0 4.397M159.403 341.885a2.198 2.198 0 1 0-.001-4.397 2.198 2.198 0 0 0 0 4.397M181.387 341.885a2.199 2.199 0 1 0 .002-4.398 2.199 2.199 0 0 0-.002 4.398M204.475 341.885a2.198 2.198 0 1 0-.001-4.397 2.198 2.198 0 0 0 0 4.397M226.46 341.885a2.199 2.199 0 1 0 .001-4.398 2.199 2.199 0 0 0-.001 4.398M249.546 341.885a2.198 2.198 0 1 0 .001-4.397 2.198 2.198 0 0 0 0 4.397M271.534 341.885a2.198 2.198 0 1 0-.001-4.397 2.198 2.198 0 0 0 0 4.397M293.518 341.885a2.199 2.199 0 1 0 .002-4.398 2.199 2.199 0 0 0-.002 4.398M316.606 341.885a2.198 2.198 0 1 0-.001-4.397 2.198 2.198 0 0 0 0 4.397M338.59 341.885a2.199 2.199 0 1 0 .002-4.398 2.199 2.199 0 0 0-.001 4.398M361.677 341.885a2.198 2.198 0 1 0 .001-4.397 2.198 2.198 0 0 0 0 4.397M383.665 341.885a2.198 2.198 0 1 0-.002-4.397 2.198 2.198 0 0 0 .002 4.397M405.65 341.885a2.199 2.199 0 1 0 0-4.398 2.199 2.199 0 0 0 0 4.398M428.737 341.885a2.198 2.198 0 1 0-.001-4.397 2.198 2.198 0 0 0 0 4.397M450.721 341.885a2.199 2.199 0 1 0 .002-4.398 2.199 2.199 0 0 0-.002 4.398M473.808 341.885a2.198 2.198 0 1 0 .001-4.397 2.198 2.198 0 0 0 0 4.397M13.191 363.87a2.198 2.198 0 1 0 .002-4.396 2.198 2.198 0 0 0-.002 4.397M35.18 363.87a2.198 2.198 0 1 0-.001-4.395 2.198 2.198 0 0 0 0 4.396M58.263 363.87a2.198 2.198 0 1 0 .003-4.396 2.198 2.198 0 0 0-.003 4.397M80.25 363.87a2.198 2.198 0 1 0 .002-4.395 2.198 2.198 0 0 0-.001 4.396M103.337 363.87a2.198 2.198 0 1 0 0-4.395 2.198 2.198 0 0 0 0 4.396M125.322 363.87a2.198 2.198 0 1 0 .002-4.396 2.198 2.198 0 0 0-.002 4.397M148.41 363.87a2.198 2.198 0 1 0 0-4.395 2.198 2.198 0 0 0 0 4.396M170.394 363.87a2.198 2.198 0 1 0 .003-4.396 2.198 2.198 0 0 0-.003 4.397M192.381 363.87a2.198 2.198 0 1 0 .002-4.395 2.198 2.198 0 0 0-.002 4.396M215.468 363.87a2.198 2.198 0 1 0 0-4.395 2.198 2.198 0 0 0 0 4.396M237.453 363.87a2.198 2.198 0 1 0 .002-4.396 2.198 2.198 0 0 0-.002 4.397M260.54 363.87a2.198 2.198 0 1 0 0-4.395 2.198 2.198 0 0 0 0 4.396M282.525 363.87a2.198 2.198 0 1 0 .003-4.396 2.198 2.198 0 0 0-.003 4.397M305.612 363.87a2.198 2.198 0 1 0 .001-4.395 2.198 2.198 0 0 0-.001 4.396M327.6 363.87a2.198 2.198 0 1 0-.001-4.395 2.198 2.198 0 0 0 0 4.396M349.584 363.87a2.198 2.198 0 1 0 .002-4.396 2.198 2.198 0 0 0-.002 4.397M372.671 363.87a2.198 2.198 0 1 0 0-4.395 2.198 2.198 0 0 0 0 4.396M394.656 363.87a2.198 2.198 0 1 0 .002-4.396 2.198 2.198 0 0 0-.002 4.397M417.743 363.87a2.198 2.198 0 1 0 .001-4.395 2.198 2.198 0 0 0-.001 4.396M439.73 363.87a2.198 2.198 0 1 0 0-4.395 2.198 2.198 0 0 0 0 4.396M462.814 363.87a2.198 2.198 0 1 0 .002-4.396 2.198 2.198 0 0 0-.002 4.397M484.802 363.87a2.198 2.198 0 1 0 0-4.395 2.198 2.198 0 0 0 0 4.396M2.198 385.857a2.199 2.199 0 1 0 .001-4.398 2.199 2.199 0 0 0-.001 4.398M24.185 385.857a2.198 2.198 0 1 0 0-4.397 2.198 2.198 0 0 0 0 4.397M47.272 385.857a2.198 2.198 0 1 0-.001-4.397 2.198 2.198 0 0 0 0 4.397M69.256 385.857a2.199 2.199 0 1 0 .002-4.398 2.199 2.199 0 0 0-.002 4.398M92.344 385.857a2.198 2.198 0 1 0-.001-4.397 2.198 2.198 0 0 0 .001 4.397M114.329 385.857a2.199 2.199 0 1 0 .001-4.398 2.199 2.199 0 0 0-.001 4.398M136.316 385.857a2.198 2.198 0 1 0 0-4.397 2.198 2.198 0 0 0 0 4.397M159.403 385.857a2.198 2.198 0 1 0-.001-4.397 2.198 2.198 0 0 0 0 4.397M181.387 385.857a2.199 2.199 0 1 0 .002-4.398 2.199 2.199 0 0 0-.002 4.398M204.475 385.857a2.198 2.198 0 1 0-.001-4.397 2.198 2.198 0 0 0 0 4.397M226.46 385.857a2.199 2.199 0 1 0 .001-4.398 2.199 2.199 0 0 0-.001 4.398M249.546 385.857a2.198 2.198 0 1 0 .001-4.397 2.198 2.198 0 0 0 0 4.397M271.534 385.857a2.198 2.198 0 1 0-.001-4.397 2.198 2.198 0 0 0 0 4.397M293.518 385.857a2.199 2.199 0 1 0 .002-4.398 2.199 2.199 0 0 0-.002 4.398M316.606 385.857a2.198 2.198 0 1 0-.001-4.397 2.198 2.198 0 0 0 0 4.397M338.59 385.857a2.199 2.199 0 1 0 .002-4.398 2.199 2.199 0 0 0-.001 4.398M361.677 385.857a2.198 2.198 0 1 0 .001-4.397 2.198 2.198 0 0 0 0 4.397M383.665 385.857a2.198 2.198 0 1 0-.002-4.397 2.198 2.198 0 0 0 .002 4.397M405.65 385.857a2.199 2.199 0 1 0 0-4.398 2.199 2.199 0 0 0 0 4.398M428.737 385.857a2.198 2.198 0 1 0-.001-4.397 2.198 2.198 0 0 0 0 4.397M450.721 385.857a2.199 2.199 0 1 0 .002-4.398 2.199 2.199 0 0 0-.002 4.398M473.808 385.857a2.198 2.198 0 1 0 .001-4.397 2.198 2.198 0 0 0 0 4.397M13.191 408.942a2.198 2.198 0 1 0 0-4.397 2.199 2.199 0 0 0 0 4.397M35.18 408.942a2.199 2.199 0 1 0-.002-4.397 2.199 2.199 0 0 0 .001 4.397M58.263 408.942a2.198 2.198 0 1 0 0-4.397 2.199 2.199 0 0 0 0 4.397M80.25 408.942a2.199 2.199 0 1 0 0-4.397 2.199 2.199 0 0 0 0 4.397M103.337 408.942a2.199 2.199 0 1 0-.002-4.397 2.199 2.199 0 0 0 .002 4.397M125.322 408.942a2.198 2.198 0 1 0 0-4.397 2.199 2.199 0 0 0 0 4.397M148.41 408.942a2.199 2.199 0 1 0-.002-4.397 2.199 2.199 0 0 0 .001 4.397M170.394 408.942a2.198 2.198 0 1 0 0-4.397 2.199 2.199 0 0 0 0 4.397M192.381 408.942a2.199 2.199 0 1 0 0-4.397 2.199 2.199 0 0 0 0 4.397M215.468 408.942a2.199 2.199 0 1 0-.002-4.397 2.199 2.199 0 0 0 .002 4.397M237.453 408.942a2.198 2.198 0 1 0 0-4.397 2.199 2.199 0 0 0 0 4.397M260.54 408.942a2.199 2.199 0 1 0-.002-4.397 2.199 2.199 0 0 0 .002 4.397M282.525 408.942a2.198 2.198 0 1 0 0-4.397 2.199 2.199 0 0 0 0 4.397M305.612 408.942a2.199 2.199 0 1 0 0-4.397 2.199 2.199 0 0 0 0 4.397M327.6 408.942a2.199 2.199 0 1 0-.002-4.397 2.199 2.199 0 0 0 .001 4.397M349.584 408.942a2.198 2.198 0 1 0 0-4.397 2.199 2.199 0 0 0 0 4.397M372.671 408.942a2.199 2.199 0 1 0-.002-4.397 2.199 2.199 0 0 0 .002 4.397M394.656 408.942a2.198 2.198 0 1 0 0-4.397 2.199 2.199 0 0 0 0 4.397M417.743 408.942a2.199 2.199 0 1 0 0-4.397 2.199 2.199 0 0 0 0 4.397M439.73 408.942a2.199 2.199 0 1 0-.002-4.397 2.199 2.199 0 0 0 .002 4.397M462.814 408.942a2.198 2.198 0 1 0 0-4.397 2.199 2.199 0 0 0 0 4.397M484.802 408.942a2.199 2.199 0 1 0-.002-4.397 2.199 2.199 0 0 0 .002 4.397M2.198 430.928a2.198 2.198 0 1 0 .002-4.396 2.198 2.198 0 0 0-.002 4.396M24.185 430.928a2.198 2.198 0 1 0 .002-4.395 2.198 2.198 0 0 0-.002 4.395M47.272 430.928a2.198 2.198 0 1 0 0-4.395 2.198 2.198 0 0 0 0 4.395M69.256 430.928a2.198 2.198 0 1 0 .003-4.396 2.198 2.198 0 0 0-.003 4.396M92.344 430.928a2.198 2.198 0 1 0 0-4.395 2.198 2.198 0 0 0 0 4.395M114.329 430.928a2.198 2.198 0 1 0 .002-4.396 2.198 2.198 0 0 0-.002 4.396M136.316 430.928a2.198 2.198 0 1 0 .002-4.395 2.198 2.198 0 0 0-.002 4.395M159.403 430.928a2.198 2.198 0 1 0 0-4.395 2.198 2.198 0 0 0 0 4.395M181.387 430.928a2.198 2.198 0 1 0 .003-4.396 2.198 2.198 0 0 0-.003 4.396M204.475 430.928a2.198 2.198 0 1 0 0-4.395 2.198 2.198 0 0 0 0 4.395M226.46 430.928a2.198 2.198 0 1 0 .002-4.396 2.198 2.198 0 0 0-.002 4.396M249.546 430.928a2.198 2.198 0 1 0 .002-4.395 2.198 2.198 0 0 0-.002 4.395M271.534 430.928a2.198 2.198 0 1 0 0-4.395 2.198 2.198 0 0 0 0 4.395M293.518 430.928a2.198 2.198 0 1 0 .003-4.396 2.198 2.198 0 0 0-.003 4.396M316.606 430.928a2.198 2.198 0 1 0 0-4.395 2.198 2.198 0 0 0 0 4.395M338.59 430.928a2.198 2.198 0 1 0 .003-4.396 2.198 2.198 0 0 0-.002 4.396M361.677 430.928a2.198 2.198 0 1 0 .002-4.395 2.198 2.198 0 0 0-.002 4.395M383.665 430.928a2.198 2.198 0 1 0 0-4.395 2.198 2.198 0 0 0 0 4.395M405.65 430.928a2.198 2.198 0 1 0 .002-4.396 2.198 2.198 0 0 0-.003 4.396M428.737 430.928a2.198 2.198 0 1 0 0-4.395 2.198 2.198 0 0 0 0 4.395M450.721 430.928a2.198 2.198 0 1 0 .003-4.396 2.198 2.198 0 0 0-.003 4.396M473.808 430.928a2.198 2.198 0 1 0 .002-4.395 2.198 2.198 0 0 0-.002 4.395M13.191 454.014a2.199 2.199 0 1 0 .002-4.397 2.199 2.199 0 0 0-.002 4.397M35.18 454.014a2.198 2.198 0 1 0-.002-4.397 2.198 2.198 0 0 0 .001 4.397M58.263 454.014a2.199 2.199 0 1 0 .002-4.397 2.199 2.199 0 0 0-.002 4.397M80.25 454.014a2.198 2.198 0 1 0 .001-4.397 2.198 2.198 0 0 0 0 4.397M103.337 454.014a2.198 2.198 0 1 0 0-4.397 2.198 2.198 0 0 0 0 4.397M125.322 454.014a2.199 2.199 0 1 0 .002-4.397 2.199 2.199 0 0 0-.002 4.397M148.41 454.014a2.198 2.198 0 1 0-.002-4.397 2.198 2.198 0 0 0 .001 4.397M170.394 454.014a2.199 2.199 0 1 0 .002-4.397 2.199 2.199 0 0 0-.002 4.397M192.381 454.014a2.198 2.198 0 1 0 .001-4.397 2.198 2.198 0 0 0 0 4.397M215.468 454.014a2.198 2.198 0 1 0 0-4.397 2.198 2.198 0 0 0 0 4.397M237.453 454.014a2.199 2.199 0 1 0 .002-4.397 2.199 2.199 0 0 0-.002 4.397M260.54 454.014a2.198 2.198 0 1 0 0-4.397 2.198 2.198 0 0 0 0 4.397M282.525 454.014a2.199 2.199 0 1 0 .002-4.397 2.199 2.199 0 0 0-.002 4.397M305.612 454.014a2.198 2.198 0 1 0 0-4.397 2.198 2.198 0 0 0 0 4.397M327.6 454.014a2.198 2.198 0 1 0-.002-4.397 2.198 2.198 0 0 0 .001 4.397M349.584 454.014a2.199 2.199 0 1 0 .001-4.397 2.199 2.199 0 0 0-.001 4.397M372.671 454.014a2.198 2.198 0 1 0 0-4.397 2.198 2.198 0 0 0 0 4.397M394.656 454.014a2.199 2.199 0 1 0 .002-4.397 2.199 2.199 0 0 0-.002 4.397M417.743 454.014a2.198 2.198 0 1 0 0-4.397 2.198 2.198 0 0 0 0 4.397M439.73 454.014a2.198 2.198 0 1 0-.001-4.397 2.198 2.198 0 0 0 .001 4.397M462.814 454.014a2.199 2.199 0 1 0 .002-4.397 2.199 2.199 0 0 0-.002 4.397M484.802 454.014a2.198 2.198 0 1 0 0-4.397 2.198 2.198 0 0 0 0 4.397M2.198 476a2.198 2.198 0 1 0 .002-4.397A2.198 2.198 0 0 0 2.198 476M24.185 476a2.198 2.198 0 1 0 .002-4.396 2.198 2.198 0 0 0-.002 4.396M47.272 476a2.198 2.198 0 1 0 0-4.396 2.198 2.198 0 0 0 0 4.396M69.256 476a2.198 2.198 0 1 0 .003-4.397 2.198 2.198 0 0 0-.003 4.397M92.344 476a2.198 2.198 0 1 0 0-4.396 2.198 2.198 0 0 0 0 4.396M114.329 476a2.198 2.198 0 1 0 .002-4.397 2.198 2.198 0 0 0-.002 4.397M136.316 476a2.198 2.198 0 1 0 .002-4.396 2.198 2.198 0 0 0-.002 4.396M159.403 476a2.198 2.198 0 1 0 0-4.396 2.198 2.198 0 0 0 0 4.396M181.387 476a2.198 2.198 0 1 0 .003-4.397 2.198 2.198 0 0 0-.003 4.397M204.475 476a2.198 2.198 0 1 0 0-4.396 2.198 2.198 0 0 0 0 4.396M226.46 476a2.198 2.198 0 1 0 .002-4.397 2.198 2.198 0 0 0-.002 4.397M249.546 476a2.198 2.198 0 1 0 .002-4.396 2.198 2.198 0 0 0-.002 4.396M271.534 476a2.198 2.198 0 1 0 0-4.396 2.198 2.198 0 0 0 0 4.396M293.518 476a2.198 2.198 0 1 0 .003-4.397 2.198 2.198 0 0 0-.003 4.397M316.606 476a2.198 2.198 0 1 0 0-4.396 2.198 2.198 0 0 0 0 4.396M338.59 476a2.198 2.198 0 1 0 .003-4.397 2.198 2.198 0 0 0-.002 4.397M361.677 476a2.198 2.198 0 1 0 .002-4.396 2.198 2.198 0 0 0-.002 4.396M383.665 476a2.198 2.198 0 1 0 0-4.396 2.198 2.198 0 0 0 0 4.396M405.65 476a2.198 2.198 0 1 0 .002-4.397 2.198 2.198 0 0 0-.003 4.397M428.737 476a2.198 2.198 0 1 0 0-4.396 2.198 2.198 0 0 0 0 4.396M450.721 476a2.198 2.198 0 1 0 .003-4.397 2.198 2.198 0 0 0-.003 4.397M473.808 476a2.198 2.198 0 1 0 .002-4.396 2.198 2.198 0 0 0-.002 4.396"/>
        </g>
    </g>
</svg>
