<svg xmlns="http://www.w3.org/2000/svg" width="119" height="95" viewBox="0 0 119 95">
    <path fill="#1DA1F2" fill-rule="nonzero" d="M119 11.246a49.26 49.26 0 0 1-14.023 3.775c5.044-2.966 8.912-7.665 10.735-13.27a49.407 49.407 0 0 1-15.503 5.824C95.757 2.914 89.411 0 82.389 0 68.908 0 57.977 10.738 57.977 23.984c0 1.877.215 3.706.633 5.465C38.319 28.447 20.327 18.9 8.286 4.39A23.54 23.54 0 0 0 4.98 16.45c0 8.32 4.31 15.661 10.86 19.961-4-.126-7.766-1.205-11.058-3.002-.003.1-.003.202-.003.304 0 11.618 8.416 21.31 19.586 23.516a24.96 24.96 0 0 1-6.433.84 24.61 24.61 0 0 1-4.594-.432c3.109 9.528 12.124 16.464 22.806 16.656-8.356 6.434-18.88 10.268-30.321 10.268-1.969 0-3.913-.114-5.824-.337C10.807 91.032 23.64 95 37.425 95c44.909 0 69.463-36.544 69.463-68.237 0-1.04-.022-2.077-.067-3.107A48.973 48.973 0 0 0 119 11.246z" opacity=".41"/>
</svg>
