<svg xmlns="http://www.w3.org/2000/svg" width="24" height="26" viewBox="0 0 24 26">
    <defs>
        <filter id="a" width="141.6%" height="184.6%" x="-20.8%" y="-30.1%" filterUnits="objectBoundingBox">
            <feOffset dy="2" in="SourceAlpha" result="shadowOffsetOuter1"/>
            <feGaussianBlur in="shadowOffsetOuter1" result="shadowBlurOuter1" stdDeviation="2"/>
            <feColorMatrix in="shadowBlurOuter1" result="shadowMatrixOuter1" values="0 0 0 0 0 0 0 0 0 0 0 0 0 0 0 0 0 0 0.5 0"/>
            <feMerge>
                <feMergeNode in="shadowMatrixOuter1"/>
                <feMergeNode in="SourceGraphic"/>
            </feMerge>
        </filter>
    </defs>
    <path fill="#657786" fill-rule="nonzero" d="M9 17.674h-.011C6.875 17.631.777 11.57.777 5.83c0-2.757 2.066-5.178 4.42-5.178C7.073.652 8.333 2.074 9 3.109 9.664 2.075 10.924.652 12.8.652c2.356 0 4.421 2.42 4.421 5.18 0 5.737-6.098 11.798-8.212 11.84H9v.002zM5.199 2.003c-1.702 0-3.194 1.789-3.194 3.829 0 5.166 5.756 10.436 6.996 10.492 1.243-.056 6.995-5.325 6.995-10.492 0-2.04-1.49-3.83-3.192-3.83-2.069 0-3.224 2.643-3.234 2.669-.188.506-.946.506-1.135 0C8.423 4.644 7.27 2.002 5.2 2.002h-.001z" filter="url(#a)" transform="translate(3 2)"/>
</svg>
