<svg width="159" height="135" viewBox="0 0 159 135" fill="none" xmlns="http://www.w3.org/2000/svg">
<circle cx="87.5" cy="66.5" r="60" fill="#F0F4F9" stroke="#F8FAFC" stroke-width="11"/>
<path fill-rule="evenodd" clip-rule="evenodd" d="M147 1.5C147 0.671573 146.328 0 145.5 0C144.672 0 144 0.671573 144 1.5V5H140.5C139.672 5 139 5.67157 139 6.5C139 7.32843 139.672 8 140.5 8H144V11.5C144 12.3284 144.672 13 145.5 13C146.328 13 147 12.3284 147 11.5V8H150.5C151.328 8 152 7.32843 152 6.5C152 5.67157 151.328 5 150.5 5H147V1.5Z" fill="#C9DDF2"/>
<path fill-rule="evenodd" clip-rule="evenodd" d="M8 40.5C8 39.6716 7.32843 39 6.5 39C5.67157 39 5 39.6716 5 40.5V44H1.5C0.671573 44 0 44.6716 0 45.5C0 46.3284 0.671573 47 1.5 47H5V50.5C5 51.3284 5.67157 52 6.5 52C7.32843 52 8 51.3284 8 50.5V47H11.5C12.3284 47 13 46.3284 13 45.5C13 44.6716 12.3284 44 11.5 44H8V40.5Z" fill="#C9DDF2"/>
<circle cx="24" cy="31" r="2" fill="#C9DDF2"/>
<circle cx="157" cy="32" r="2" fill="#C9DDF2"/>
<circle cx="69" cy="133" r="2" fill="#C9DDF2"/>
<path d="M20.5 42C20.5 40.6193 21.6193 39.5 23 39.5H77C78.3807 39.5 79.5 40.6193 79.5 42V120C79.5 121.381 78.3807 122.5 77 122.5H23C21.6193 122.5 20.5 121.381 20.5 120V42Z" fill="#F8FAFC" stroke="white"/>
<path fill-rule="evenodd" clip-rule="evenodd" d="M34 92C34 91.4477 34.2239 91 34.5 91H65.5C65.7761 91 66 91.4477 66 92C66 92.5523 65.7761 93 65.5 93H34.5C34.2239 93 34 92.5523 34 92Z" fill="#C9DDF2"/>
<path fill-rule="evenodd" clip-rule="evenodd" d="M34 100C34 99.4477 34.2239 99 34.5 99H65.5C65.7761 99 66 99.4477 66 100C66 100.552 65.7761 101 65.5 101H34.5C34.2239 101 34 100.552 34 100Z" fill="#C9DDF2"/>
<path fill-rule="evenodd" clip-rule="evenodd" d="M34 108C34 107.448 34.2239 107 34.5 107H65.5C65.7761 107 66 107.448 66 108C66 108.552 65.7761 109 65.5 109H34.5C34.2239 109 34 108.552 34 108Z" fill="#C9DDF2"/>
<path d="M21 43C21 41.3431 22.3431 40 24 40H77C78.6569 40 80 41.3431 80 43V55H21V43Z" fill="#629AD7"/>
<rect x="41" y="45" width="17" height="4" rx="2" fill="#3F77B3"/>
<rect x="34" y="67" width="32" height="16" rx="2" fill="#C9DDF2"/>
<path d="M95.5 42.9643C95.5 41.6089 96.6136 40.5 98 40.5H152C153.386 40.5 154.5 41.6089 154.5 42.9643V120.036C154.5 121.391 153.386 122.5 152 122.5H98C96.6136 122.5 95.5 121.391 95.5 120.036V42.9643Z" fill="#F8FAFC" stroke="white"/>
<path fill-rule="evenodd" clip-rule="evenodd" d="M109 92.3809C109 91.8286 109.224 91.3809 109.5 91.3809H140.5C140.776 91.3809 141 91.8286 141 92.3809C141 92.9331 140.776 93.3809 140.5 93.3809H109.5C109.224 93.3809 109 92.9331 109 92.3809Z" fill="#C9DDF2"/>
<path fill-rule="evenodd" clip-rule="evenodd" d="M109 100.286C109 99.7334 109.224 99.2856 109.5 99.2856H140.5C140.776 99.2856 141 99.7334 141 100.286C141 100.838 140.776 101.286 140.5 101.286H109.5C109.224 101.286 109 100.838 109 100.286Z" fill="#C9DDF2"/>
<path fill-rule="evenodd" clip-rule="evenodd" d="M109 108.19C109 107.638 109.224 107.19 109.5 107.19H140.5C140.776 107.19 141 107.638 141 108.19C141 108.743 140.776 109.19 140.5 109.19H109.5C109.224 109.19 109 108.743 109 108.19Z" fill="#C9DDF2"/>
<path d="M95 43C95 41.3431 96.3431 40 98 40H151C152.657 40 154 41.3431 154 43V55.8095H95V43Z" fill="#629AD7"/>
<rect x="116" y="45.9285" width="17" height="3.95238" rx="1.97619" fill="#3F77B3"/>
<rect x="109" y="67" width="32" height="16" rx="2" fill="#C9DDF2"/>
<path d="M57 22C57 20.3431 58.3431 19 60 19H114C115.657 19 117 20.3431 117 22V100C117 101.657 115.657 103 114 103H60C58.3431 103 57 101.657 57 100V22Z" fill="white"/>
<path fill-rule="evenodd" clip-rule="evenodd" d="M114 20H60C58.8954 20 58 20.8954 58 22V100C58 101.105 58.8954 102 60 102H114C115.105 102 116 101.105 116 100V22C116 20.8954 115.105 20 114 20ZM60 19C58.3431 19 57 20.3431 57 22V100C57 101.657 58.3431 103 60 103H114C115.657 103 117 101.657 117 100V22C117 20.3431 115.657 19 114 19H60Z" fill="#F8FAFC"/>
<path fill-rule="evenodd" clip-rule="evenodd" d="M71 72C71 71.4477 71.2239 71 71.5 71H102.5C102.776 71 103 71.4477 103 72C103 72.5523 102.776 73 102.5 73H71.5C71.2239 73 71 72.5523 71 72Z" fill="#C9DDF2"/>
<path fill-rule="evenodd" clip-rule="evenodd" d="M71 80C71 79.4477 71.2239 79 71.5 79H102.5C102.776 79 103 79.4477 103 80C103 80.5523 102.776 81 102.5 81H71.5C71.2239 81 71 80.5523 71 80Z" fill="#C9DDF2"/>
<path fill-rule="evenodd" clip-rule="evenodd" d="M71 88C71 87.4477 71.2239 87 71.5 87H102.5C102.776 87 103 87.4477 103 88C103 88.5523 102.776 89 102.5 89H71.5C71.2239 89 71 88.5523 71 88Z" fill="#C9DDF2"/>
<path d="M57 22C57 20.3431 58.3431 19 60 19H114C115.657 19 117 20.3431 117 22V35H57V22Z" fill="#085BB4"/>
<rect x="78" y="25" width="17" height="4" rx="2" fill="#064990"/>
<rect x="71" y="47" width="32" height="16" rx="2" fill="#C9DDF2"/>
</svg>
