<svg width="158" height="140" viewBox="0 0 158 140" fill="none" xmlns="http://www.w3.org/2000/svg">
<circle cx="67.5" cy="65.5" r="60" fill="#F0F4F9" stroke="#F8FAFC" stroke-width="11"/>
<line x1="1.5" y1="-1.5" x2="11.5" y2="-1.5" transform="matrix(4.37112e-08 1 1 -4.37112e-08 15 5)" stroke="#C9DDF2" stroke-width="3" stroke-linecap="round"/>
<line x1="1.5" y1="-1.5" x2="11.5" y2="-1.5" transform="matrix(-1 0 0 1 20 13)" stroke="#C9DDF2" stroke-width="3" stroke-linecap="round"/>
<line x1="1.5" y1="-1.5" x2="11.5" y2="-1.5" transform="matrix(4.37112e-08 1 1 -4.37112e-08 57 122)" stroke="#C9DDF2" stroke-width="3" stroke-linecap="round"/>
<line x1="1.5" y1="-1.5" x2="11.5" y2="-1.5" transform="matrix(-1 0 0 1 62 130)" stroke="#C9DDF2" stroke-width="3" stroke-linecap="round"/>
<line x1="1.5" y1="-1.5" x2="11.5" y2="-1.5" transform="matrix(4.37112e-08 1 1 -4.37112e-08 153 44)" stroke="#C9DDF2" stroke-width="3" stroke-linecap="round"/>
<line x1="1.5" y1="-1.5" x2="11.5" y2="-1.5" transform="matrix(-1 0 0 1 158 52)" stroke="#C9DDF2" stroke-width="3" stroke-linecap="round"/>
<circle r="2" transform="matrix(-1 0 0 1 135 36)" fill="#C9DDF2"/>
<circle r="2" transform="matrix(-1 0 0 1 2 37)" fill="#C9DDF2"/>
<circle r="2" transform="matrix(-1 0 0 1 90 138)" fill="#C9DDF2"/>
<rect x="24.5" y="23.5" width="87.8386" height="23.6774" rx="3.5" fill="white" stroke="#C9DDF2"/>
<line x1="34.5969" y1="31.5969" x2="101.145" y2="31.5969" stroke="#C9DDF2" stroke-width="2" stroke-linecap="round"/>
<line x1="34.5969" y1="39.8225" x2="65.5001" y2="39.8225" stroke="#C9DDF2" stroke-width="2" stroke-linecap="round"/>
<rect x="24.5" y="53.6614" width="87.8386" height="23.6774" rx="3.5" fill="white" stroke="#C9DDF2"/>
<line x1="34.5969" y1="61.7583" x2="101.145" y2="61.7583" stroke="#C9DDF2" stroke-width="2" stroke-linecap="round"/>
<line x1="34.5969" y1="69.9839" x2="65.5001" y2="69.9839" stroke="#C9DDF2" stroke-width="2" stroke-linecap="round"/>
<rect x="24.5" y="83.8225" width="87.8386" height="23.6774" rx="3.5" fill="white" stroke="#C9DDF2"/>
<line x1="34.5969" y1="91.9194" x2="101.145" y2="91.9194" stroke="#C9DDF2" stroke-width="2" stroke-linecap="round"/>
<line x1="34.5969" y1="100.145" x2="65.5001" y2="100.145" stroke="#C9DDF2" stroke-width="2" stroke-linecap="round"/>
</svg>
