<svg width="161" height="143" viewBox="0 0 161 143" fill="none" xmlns="http://www.w3.org/2000/svg">
<circle cx="83.5" cy="77.5" r="60" fill="#F0F4F9" stroke="#F8FAFC" stroke-width="11"/>
<line x1="1.5" y1="-1.5" x2="11.5" y2="-1.5" transform="matrix(-4.37112e-08 -1 -1 4.37112e-08 146 126)" stroke="#C9DDF2" stroke-width="3" stroke-linecap="round"/>
<line x1="1.5" y1="-1.5" x2="11.5" y2="-1.5" transform="matrix(1 0 0 -1 141 118)" stroke="#C9DDF2" stroke-width="3" stroke-linecap="round"/>
<line x1="1.5" y1="-1.5" x2="11.5" y2="-1.5" transform="matrix(-4.37112e-08 -1 -1 4.37112e-08 5 87)" stroke="#C9DDF2" stroke-width="3" stroke-linecap="round"/>
<line x1="1.5" y1="-1.5" x2="11.5" y2="-1.5" transform="matrix(1 0 0 -1 0 79)" stroke="#C9DDF2" stroke-width="3" stroke-linecap="round"/>
<circle r="2" transform="matrix(1 0 0 -1 20 95)" fill="#C9DDF2"/>
<circle r="2" transform="matrix(1 0 0 -1 159 94)" fill="#C9DDF2"/>
<circle r="2" transform="matrix(1 0 0 -1 69 4)" fill="#C9DDF2"/>
<mask id="path-9-inside-1" fill="white">
<path fill-rule="evenodd" clip-rule="evenodd" d="M66.375 77.875C66.375 74.6303 63.7447 72 60.5 72C57.2553 72 54.625 74.6303 54.625 77.875H39C37.8954 77.875 37 78.7704 37 79.875V120.875C37 123.084 38.7909 124.875 41 124.875H82C83.1046 124.875 84 123.98 84 122.875V109.215C80.6131 108.284 78.125 105.183 78.125 101.5C78.125 97.8175 80.6131 94.7161 84 93.7853V79.875C84 78.7704 83.1046 77.875 82 77.875H66.375Z"/>
</mask>
<path fill-rule="evenodd" clip-rule="evenodd" d="M66.375 77.875C66.375 74.6303 63.7447 72 60.5 72C57.2553 72 54.625 74.6303 54.625 77.875H39C37.8954 77.875 37 78.7704 37 79.875V120.875C37 123.084 38.7909 124.875 41 124.875H82C83.1046 124.875 84 123.98 84 122.875V109.215C80.6131 108.284 78.125 105.183 78.125 101.5C78.125 97.8175 80.6131 94.7161 84 93.7853V79.875C84 78.7704 83.1046 77.875 82 77.875H66.375Z" fill="#085BB4"/>
<path d="M66.375 77.875H65.375V78.875H66.375V77.875ZM54.625 77.875V78.875H55.625V77.875H54.625ZM84 109.215H85V108.452L84.265 108.25L84 109.215ZM84 93.7853L84.265 94.7495L85 94.5475V93.7853H84ZM60.5 73C63.1924 73 65.375 75.1826 65.375 77.875H67.375C67.375 74.078 64.297 71 60.5 71V73ZM55.625 77.875C55.625 75.1826 57.8076 73 60.5 73V71C56.703 71 53.625 74.078 53.625 77.875H55.625ZM54.625 76.875H39V78.875H54.625V76.875ZM39 76.875C37.3431 76.875 36 78.2181 36 79.875H38C38 79.3227 38.4477 78.875 39 78.875V76.875ZM36 79.875V120.875H38V79.875H36ZM36 120.875C36 123.636 38.2386 125.875 41 125.875V123.875C39.3431 123.875 38 122.532 38 120.875H36ZM41 125.875H82V123.875H41V125.875ZM82 125.875C83.6569 125.875 85 124.532 85 122.875H83C83 123.427 82.5523 123.875 82 123.875V125.875ZM85 122.875V109.215H83V122.875H85ZM84.265 108.25C81.3011 107.436 79.125 104.721 79.125 101.5H77.125C77.125 105.644 79.9252 109.132 83.735 110.179L84.265 108.25ZM79.125 101.5C79.125 98.2792 81.3011 95.5641 84.265 94.7495L83.735 92.821C79.9252 93.8681 77.125 97.3557 77.125 101.5H79.125ZM85 93.7853V79.875H83V93.7853H85ZM85 79.875C85 78.2181 83.6569 76.875 82 76.875V78.875C82.5523 78.875 83 79.3227 83 79.875H85ZM82 76.875H66.375V78.875H82V76.875Z" fill="#064990" mask="url(#path-9-inside-1)"/>
<mask id="path-11-inside-2" fill="white">
<path fill-rule="evenodd" clip-rule="evenodd" d="M85.875 95.625C82.6303 95.625 80 98.2553 80 101.5C80 104.745 82.6303 107.375 85.875 107.375V123C85.875 124.105 86.7704 125 87.875 125H128.875C131.084 125 132.875 123.209 132.875 121V80C132.875 78.8954 131.98 78 130.875 78H115.25C115.25 81.2447 112.62 83.875 109.375 83.875C106.13 83.875 103.5 81.2447 103.5 78H87.875C86.7704 78 85.875 78.8954 85.875 80V95.625Z"/>
</mask>
<path fill-rule="evenodd" clip-rule="evenodd" d="M85.875 95.625C82.6303 95.625 80 98.2553 80 101.5C80 104.745 82.6303 107.375 85.875 107.375V123C85.875 124.105 86.7704 125 87.875 125H128.875C131.084 125 132.875 123.209 132.875 121V80C132.875 78.8954 131.98 78 130.875 78H115.25C115.25 81.2447 112.62 83.875 109.375 83.875C106.13 83.875 103.5 81.2447 103.5 78H87.875C86.7704 78 85.875 78.8954 85.875 80V95.625Z" fill="#C9DDF2"/>
<path d="M85.875 95.625V96.625H86.875V95.625H85.875ZM85.875 107.375H86.875V106.375H85.875V107.375ZM115.25 78V77H114.25V78H115.25ZM103.5 78H104.5V77H103.5V78ZM81 101.5C81 98.8076 83.1826 96.625 85.875 96.625V94.625C82.078 94.625 79 97.703 79 101.5H81ZM85.875 106.375C83.1826 106.375 81 104.192 81 101.5H79C79 105.297 82.078 108.375 85.875 108.375V106.375ZM84.875 107.375V123H86.875V107.375H84.875ZM84.875 123C84.875 124.657 86.2181 126 87.875 126V124C87.3227 124 86.875 123.552 86.875 123H84.875ZM87.875 126H128.875V124H87.875V126ZM128.875 126C131.636 126 133.875 123.761 133.875 121H131.875C131.875 122.657 130.532 124 128.875 124V126ZM133.875 121V80H131.875V121H133.875ZM133.875 80C133.875 78.3431 132.532 77 130.875 77V79C131.427 79 131.875 79.4477 131.875 80H133.875ZM130.875 77H115.25V79H130.875V77ZM114.25 78C114.25 80.6924 112.067 82.875 109.375 82.875V84.875C113.172 84.875 116.25 81.797 116.25 78H114.25ZM109.375 82.875C106.683 82.875 104.5 80.6924 104.5 78H102.5C102.5 81.797 105.578 84.875 109.375 84.875V82.875ZM103.5 77H87.875V79H103.5V77ZM87.875 77C86.2181 77 84.875 78.3431 84.875 80H86.875C86.875 79.4477 87.3227 79 87.875 79V77ZM84.875 80V95.625H86.875V80H84.875Z" fill="#6B9DD2" mask="url(#path-11-inside-2)"/>
<mask id="path-13-inside-3" fill="white">
<path fill-rule="evenodd" clip-rule="evenodd" d="M84 57.375C87.2447 57.375 89.875 54.7447 89.875 51.5C89.875 48.2553 87.2447 45.625 84 45.625V30C84 28.8954 83.1046 28 82 28L41 28C38.7909 28 37 29.7909 37 32V73C37 74.1046 37.8954 75 39 75H52.752C53.6401 71.5495 56.7723 69 60.5 69C64.2277 69 67.3599 71.5495 68.248 75H82C83.1046 75 84 74.1046 84 73V57.375Z"/>
</mask>
<path fill-rule="evenodd" clip-rule="evenodd" d="M84 57.375C87.2447 57.375 89.875 54.7447 89.875 51.5C89.875 48.2553 87.2447 45.625 84 45.625V30C84 28.8954 83.1046 28 82 28L41 28C38.7909 28 37 29.7909 37 32V73C37 74.1046 37.8954 75 39 75H52.752C53.6401 71.5495 56.7723 69 60.5 69C64.2277 69 67.3599 71.5495 68.248 75H82C83.1046 75 84 74.1046 84 73V57.375Z" fill="#6B9DD2"/>
<path d="M84 57.375V56.375H83V57.375H84ZM84 45.625H83V46.625H84V45.625ZM52.752 75V76H53.5272L53.7205 75.2493L52.752 75ZM68.248 75L67.2795 75.2493L67.4728 76H68.248V75ZM88.875 51.5C88.875 54.1924 86.6924 56.375 84 56.375V58.375C87.797 58.375 90.875 55.297 90.875 51.5H88.875ZM84 46.625C86.6924 46.625 88.875 48.8076 88.875 51.5H90.875C90.875 47.703 87.797 44.625 84 44.625V46.625ZM85 45.625V30H83V45.625H85ZM85 30C85 28.3431 83.6569 27 82 27V29C82.5523 29 83 29.4477 83 30H85ZM82 27L41 27V29L82 29V27ZM41 27C38.2386 27 36 29.2386 36 32H38C38 30.3431 39.3431 29 41 29V27ZM36 32V73H38V32H36ZM36 73C36 74.6569 37.3431 76 39 76V74C38.4477 74 38 73.5523 38 73H36ZM39 76H52.752V74H39V76ZM53.7205 75.2493C54.4976 72.2299 57.2397 70 60.5 70V68C56.305 68 52.7826 70.8692 51.7836 74.7507L53.7205 75.2493ZM60.5 70C63.7603 70 66.5024 72.2299 67.2795 75.2493L69.2164 74.7507C68.2174 70.8692 64.695 68 60.5 68V70ZM68.248 76H82V74H68.248V76ZM82 76C83.6569 76 85 74.6569 85 73H83C83 73.5523 82.5523 74 82 74V76ZM85 73V57.375H83V73H85Z" fill="#085BB4" mask="url(#path-13-inside-3)"/>
<mask id="path-15-inside-4" fill="white">
<path fill-rule="evenodd" clip-rule="evenodd" d="M111.625 69C111.625 72.2447 114.255 74.875 117.5 74.875C120.745 74.875 123.375 72.2447 123.375 69H139C140.105 69 141 68.1046 141 67V26C141 23.7909 139.209 22 137 22H96C94.8954 22 94 22.8954 94 24V39.625C97.2447 39.625 99.875 42.2553 99.875 45.5C99.875 48.7447 97.2447 51.375 94 51.375V67C94 68.1046 94.8954 69 96 69H111.625Z"/>
</mask>
<path fill-rule="evenodd" clip-rule="evenodd" d="M111.625 69C111.625 72.2447 114.255 74.875 117.5 74.875C120.745 74.875 123.375 72.2447 123.375 69H139C140.105 69 141 68.1046 141 67V26C141 23.7909 139.209 22 137 22H96C94.8954 22 94 22.8954 94 24V39.625C97.2447 39.625 99.875 42.2553 99.875 45.5C99.875 48.7447 97.2447 51.375 94 51.375V67C94 68.1046 94.8954 69 96 69H111.625Z" fill="white"/>
<path d="M111.625 69H112.625V68H111.625V69ZM123.375 69V68H122.375V69H123.375ZM94 39.625H93V40.625H94V39.625ZM94 51.375V50.375H93V51.375H94ZM117.5 73.875C114.808 73.875 112.625 71.6924 112.625 69H110.625C110.625 72.797 113.703 75.875 117.5 75.875V73.875ZM122.375 69C122.375 71.6924 120.192 73.875 117.5 73.875V75.875C121.297 75.875 124.375 72.797 124.375 69H122.375ZM123.375 70H139V68H123.375V70ZM139 70C140.657 70 142 68.6569 142 67H140C140 67.5523 139.552 68 139 68V70ZM142 67V26H140V67H142ZM142 26C142 23.2386 139.761 21 137 21V23C138.657 23 140 24.3431 140 26H142ZM137 21H96V23H137V21ZM96 21C94.3431 21 93 22.3431 93 24H95C95 23.4477 95.4477 23 96 23V21ZM93 24V39.625H95V24H93ZM94 40.625C96.6924 40.625 98.875 42.8076 98.875 45.5H100.875C100.875 41.703 97.797 38.625 94 38.625V40.625ZM98.875 45.5C98.875 48.1924 96.6924 50.375 94 50.375V52.375C97.797 52.375 100.875 49.297 100.875 45.5H98.875ZM93 51.375V67H95V51.375H93ZM93 67C93 68.6569 94.3431 70 96 70V68C95.4477 68 95 67.5523 95 67H93ZM96 70H111.625V68H96V70Z" fill="#C9DDF2" mask="url(#path-15-inside-4)"/>
<line x1="1.5" y1="-1.5" x2="11.5" y2="-1.5" transform="matrix(-4.37112e-08 -1 -1 4.37112e-08 104 13)" stroke="#C9DDF2" stroke-width="3" stroke-linecap="round"/>
<line x1="1.5" y1="-1.5" x2="11.5" y2="-1.5" transform="matrix(1 0 0 -1 99 5)" stroke="#C9DDF2" stroke-width="3" stroke-linecap="round"/>
<circle cx="110" cy="45" r="2" fill="#6B9DD2"/>
<circle cx="118" cy="45" r="2" fill="#6B9DD2"/>
<circle cx="126" cy="45" r="2" fill="#6B9DD2"/>
</svg>
