<?xml version="1.0" encoding="utf-8"?>
<!-- Generator: Adobe Illustrator 25.0.0, SVG Export Plug-In . SVG Version: 6.00 Build 0)  -->
<svg version="1.1" id="Layer_1" xmlns="http://www.w3.org/2000/svg" xmlns:xlink="http://www.w3.org/1999/xlink" x="0px" y="0px"
	 viewBox="0 0 126 96" style="enable-background:new 0 0 126 96;" xml:space="preserve">
<style type="text/css">
	.st0{opacity:1;fill:none;stroke:#219653;stroke-width:2;enable-background:new    ;}
</style>
<path class="st0" d="M78.2,86.7c5.5,5.5,12.1,8.3,19.9,8.3c8.3,0,14.9-2.7,19.7-7.9c4.8-5.3,7.3-11.8,7.3-19.6
	c0-6.7-1.9-12.2-5.6-16.6c-3.8-4.4-9.4-7.7-17.2-9.8l0,0l0,0c-3-1-5.2-2-6.7-3.1l0,0c-1.7-1.3-2.4-3.5-2.4-6.3
	c0-5.8,3.1-10.6,8.9-14.3 M78.2,86.7C72.8,81.3,70,72.5,70,60.2c0-15.1,4.3-28.2,13-39.4l0,0 M83,20.9c8.5-10.9,20-17.4,34.8-19.7
	 M115.6,1.5l2.2-0.4l1.2,9.4c-5.9,1.1-11.6,3.4-17.1,6.9c0,0,0,0,0,0 M14,20.9C22.5,10,34,3.4,48.8,1.1l1.2,9.7
	c-5.7,0.9-11.3,3.1-16.9,6.8l0,0c-6,3.9-9.1,8.7-9.1,14.5c0,2.8,0.7,5,2.4,6.3c1.5,1.1,3.7,2.1,6.7,3.1l0,0l0,0
	c7.7,2.2,13.4,5.4,17.2,9.7c3.7,4.3,5.6,9.7,5.6,16.3c0,7.8-2.4,14.3-7.3,19.6C43.9,92.3,37.4,95,29.1,95c-7.8,0-14.4-2.7-19.9-8.1
	C3.8,81.6,1,72.9,1,60.6C1,45.2,5.4,32,14,20.9L14,20.9z M78.9,87.4"/>
</svg>
