<svg width="191" height="200" viewBox="0 0 191 200" fill="none" xmlns="http://www.w3.org/2000/svg">
<path d="M110.043 186.482C108.725 182.967 107.411 178.06 104.396 175.602C103.515 174.832 101.833 175.573 101.808 176.744C101.682 180.663 104.325 184.907 106.031 188.251C107.302 190.782 110.961 189.091 110.043 186.482Z" fill="#CC8652"/>
<path d="M102.853 168.246C102.246 167.045 102.566 165.668 102.534 164.368C102.574 162.882 102.506 161.675 101.972 160.288C101.095 158.125 97.5024 159.09 97.9908 161.425C98.5211 164.205 98.6478 167.472 100.638 169.532C101.503 170.618 103.48 169.669 102.853 168.246Z" fill="#CC8652"/>
<path d="M98.4554 152.488C98.0101 152.53 97.5648 152.571 97.0264 152.577C97.5857 152.794 98.0519 152.975 98.6112 153.192C97.139 150.905 96.8885 148.233 95.1213 146.153C94.0122 144.864 92.035 145.813 92.2744 147.408C92.5667 150.525 93.8428 153.594 96.3711 155.648C96.8581 156.051 97.526 155.989 98.1368 155.797C98.525 155.626 99.0065 155.491 99.3947 155.319C101.005 154.764 100.107 152.378 98.4554 152.488Z" fill="#CC8652"/>
<path d="M92.7789 136.985C92.6231 136.281 92.5604 135.613 92.4046 134.909C92.2487 134.205 91.9064 133.428 91.5641 132.652C90.9935 131.358 90.423 130.064 89.4281 129.034C88.2829 127.839 86.4713 128.638 86.5812 130.289C86.6703 131.718 87.1476 132.976 87.8114 134.306C88.0967 134.953 88.4181 135.507 88.7034 136.154C89.1751 136.874 89.7192 137.407 90.1909 138.126C91.0258 139.844 93.355 138.817 92.7789 136.985Z" fill="#CC8652"/>
<path d="M83.2091 114.929C82.7415 112.817 82.388 110.964 81.5684 108.93C81.169 108.024 80.8991 107.061 80.2409 106.269C79.7692 105.55 78.894 105.317 78.4069 104.914C77.6194 104.179 76.0665 104.864 76.0777 105.941C76.0833 106.479 75.7007 107.189 75.7633 107.857C75.8677 108.97 76.4535 109.948 76.9461 110.89C77.8019 112.831 79.025 114.379 80.269 116.148C81.1193 117.551 83.5417 116.56 83.2091 114.929Z" fill="#CC8652"/>
<path d="M73.9985 95.2659C73.7285 94.303 73.8468 93.169 73.5768 92.2061C73.2136 91.2071 72.8504 90.208 72.4872 89.209C71.7038 87.0815 70.8897 85.5857 69.0919 84.1373C68.2682 83.4959 66.9741 84.0664 66.8921 85.1072C66.785 87.3182 67.3403 88.9281 68.3463 91.0347C68.8389 91.9767 69.2954 93.0119 69.8241 93.8607C70.3529 94.7094 71.2699 95.387 71.7987 96.2358C72.6851 97.5451 74.4967 96.7464 73.9985 95.2659Z" fill="#CC8652"/>
<path d="M64.593 71.1288C63.9625 65.8427 63.0732 60.6708 59.3732 56.6607C58.1709 55.3361 56.1005 56.249 56.2675 58.03C56.7325 63.4664 59.951 67.6114 63.4283 71.6423C63.786 72.1028 64.6918 71.7034 64.593 71.1288Z" fill="#CC8652"/>
<path d="M55.5731 50.1447C55.3184 48.866 55.3073 47.789 54.887 46.6606C54.5029 45.4389 54.0827 44.3105 53.2381 43.4464C52.2793 42.3235 50.5609 43.1585 50.65 44.5875C50.8115 45.83 51.3611 46.9014 51.9108 47.9728C52.5537 49.0804 53.3412 49.815 54.0203 50.8294C54.5282 51.4555 55.6928 50.942 55.5731 50.1447Z" fill="#CC8652"/>
<path d="M50.8751 34.0558C50.2266 32.4097 49.759 30.2976 48.2256 29.2735C47.5522 28.7977 46.6463 29.197 46.5434 30.0152C46.2652 31.838 47.5092 33.6079 48.287 35.1969C49.122 36.9153 51.5806 35.8313 50.8751 34.0558Z" fill="#CC8652"/>
<path d="M120.457 182.586C120.012 182.627 119.567 182.669 119.122 182.711C119.458 182.949 119.925 183.13 120.261 183.368C118.985 180.298 118.703 176.327 115.931 174.071C115.107 173.43 113.813 174.001 113.731 175.041C113.515 177.532 114.599 179.991 115.921 182.113C116.6 183.127 117.259 183.919 118.305 184.539C119.258 185.124 119.848 184.709 120.94 184.382C122.09 184.184 121.571 182.481 120.457 182.586Z" fill="#CC8652"/>
<path d="M114.388 166.715C114.081 165.845 114.365 164.561 114.282 163.671C114.307 162.5 114.296 161.423 113.839 160.388C113.154 158.835 110.763 159.194 110.65 160.867C110.532 162.001 110.491 163.487 110.653 164.73C110.871 166.102 111.53 166.893 112.524 167.923C113.405 168.694 114.808 167.844 114.388 166.715Z" fill="#CC8652"/>
<path d="M107.865 148.416C107.012 143.151 104.943 138.808 101.926 134.42C101.398 133.571 99.8448 134.256 100.115 135.219C101.32 140.406 103.094 144.956 106.442 149.044C106.821 149.727 107.949 149.307 107.865 148.416Z" fill="#CC8652"/>
<path d="M97.1822 119.279C96.7563 117.612 96.1288 116.188 95.0921 114.713C94.2627 113.533 93.112 111.8 91.6774 111.35C90.8954 111.154 89.9896 111.554 89.8504 112.465C89.6807 114.008 90.7898 115.296 91.8417 116.456C92.9508 117.744 94.096 118.939 94.9823 120.248C95.6252 121.356 97.5301 120.593 97.1822 119.279Z" fill="#CC8652"/>
<path d="M87.1825 96.9489C86.6578 94.7073 86.5102 91.2176 84.231 89.9042C83.1846 89.2836 82.1132 89.8333 81.9017 90.9311C81.3341 93.4997 83.8471 95.8693 85.112 97.8618C85.8273 98.7829 87.5095 98.0412 87.1825 96.9489Z" fill="#CC8652"/>
<path d="M82.5791 82.8274C82.2256 80.974 81.758 78.8618 80.2608 77.7445C79.6806 77.3048 78.868 77.7404 78.8374 78.3721C78.6162 80.3243 79.9896 82.0371 81.0263 83.512C81.4618 84.3246 82.7559 83.7541 82.5791 82.8274Z" fill="#CC8652"/>
<path d="M73.15 61.7919C72.6519 60.3114 72.0243 58.888 71.2102 57.3922C70.4532 56.0258 69.6754 54.4368 68.2561 53.6716C67.5464 53.289 66.2886 53.7663 66.0562 54.6415C64.9822 58.5153 69.6283 60.6399 71.934 62.7144C72.5712 63.2835 73.3421 62.4027 73.15 61.7919Z" fill="#CC8652"/>
<path d="M65.9407 45.2646C65.8627 44.9126 65.8933 44.2809 65.8154 43.9288C65.6595 43.2248 65.3172 42.4484 65.0681 41.7081C64.6479 40.5797 64.0982 39.5083 63.2174 38.7375C62.6733 38.2045 61.5087 38.718 61.5352 39.4791C61.474 40.7426 61.9304 41.7778 62.4801 42.8492C62.8015 43.403 63.0868 44.05 63.4082 44.6038C63.6726 45.0281 64.2529 45.4678 64.5173 45.8922C64.8805 46.8912 66.2677 46.3569 65.9407 45.2646Z" fill="#CC8652"/>
<path d="M62.7637 34.3781C62.1041 31.6551 61.7338 28.1862 59.8734 26.0699C58.9147 24.947 57.1963 25.782 57.2854 27.211C57.593 30.0119 59.9042 32.625 61.4697 34.9486C61.8843 35.5386 62.9196 35.0822 62.7637 34.3781Z" fill="#CC8652"/>
<path d="M130.506 173.828C129.894 172.088 129.188 170.313 128.353 168.594C127.726 167.171 127.114 165.432 125.73 164.573C125.057 164.097 124.151 164.497 124.048 165.315C123.749 166.915 124.656 168.447 125.248 169.964C125.989 171.646 126.824 173.364 127.659 175.083C128.587 176.837 131.175 175.696 130.506 173.828Z" fill="#CC8652"/>
<path d="M124.521 153.592C124.038 151.796 123.426 150.056 122.389 148.581C121.767 147.696 120.214 148.381 120.448 149.437C120.801 151.291 121.709 152.823 122.709 154.391C123.238 155.239 124.791 154.555 124.521 153.592Z" fill="#CC8652"/>
<path d="M117.978 135.071C117.459 133.368 117.038 132.239 115.872 130.821C114.67 129.497 113.281 128.1 112.504 126.511C112.011 125.569 110.66 126.01 110.707 126.994C110.897 130.929 114.352 132.806 116.425 135.755C116.933 136.382 118.191 135.904 117.978 135.071Z" fill="#CC8652"/>
<path d="M111.339 119.838C110.82 118.134 110.978 115.514 108.855 114.905C108.389 114.724 107.871 114.952 107.69 115.418C106.708 117.397 108.749 119.047 109.657 120.579C110.336 121.594 111.666 120.93 111.339 119.838Z" fill="#CC8652"/>
<path d="M105.965 106.597C105.554 104.614 105.05 102.595 103.237 101.462C102.564 100.987 101.751 101.422 101.555 102.204C101.262 104.343 102.319 106.04 103.506 107.681C104.315 108.638 106.219 107.875 105.965 106.597Z" fill="#CC8652"/>
<path d="M101.376 92.1591C100.935 90.8081 100.624 89.3999 99.2614 88.7641C98.7952 88.5832 98.1482 88.8685 97.9673 89.3346C97.3885 90.8263 98.2541 91.913 99.0472 93.1861C99.768 94.6457 101.932 93.769 101.376 92.1591Z" fill="#CC8652"/>
<path d="M97.1436 81.5065C96.5884 79.8966 95.997 78.3799 95.0535 76.9412C94.053 75.3731 92.5196 74.3491 92.1662 72.4957C91.5998 69.8088 92.1938 68.0013 89.8158 66.1132C88.992 65.4718 87.5686 66.0994 87.616 67.0831C87.4992 70.1485 89.2343 70.929 90.7427 73.1233C91.7794 74.5982 91.5735 76.2345 91.9632 77.9946C92.389 79.6616 93.1307 81.3438 93.9448 82.8396C95.1164 84.7959 97.8339 83.5978 97.1436 81.5065Z" fill="#CC8652"/>
<path d="M86.8296 61.0929C86.6585 60.7047 86.5805 60.3527 86.632 59.9436C87.1273 57.5614 82.9502 59.4804 84.9498 60.6853C85.2865 60.9232 85.4939 61.2182 85.665 61.6064C86.2091 62.1393 87.1149 61.74 86.8296 61.0929Z" fill="#CC8652"/>
<path d="M86.1083 52.4467C85.7243 51.225 85.247 49.9672 84.7335 48.8026C84.5053 48.285 84.22 47.638 83.8262 47.2706C83.4324 46.9033 82.9663 46.7224 82.5363 46.4483C81.9561 46.0087 81.0503 46.408 80.9835 47.133C80.9529 47.7647 80.715 48.1014 80.7206 48.6399C80.7261 49.1784 81.1046 49.8616 81.2396 50.343C81.7169 51.6009 82.3598 52.7084 83.0027 53.816C84.0811 55.7362 86.7986 54.538 86.1083 52.4467Z" fill="#CC8652"/>
<path d="M83.3377 44.9357C83.1248 44.1023 83.7663 43.2785 83.4963 42.3157C82.7796 39.4632 78.6387 41.2889 80.2612 43.742C80.79 44.5908 81.7376 44.6366 82.3025 45.3922C82.6602 45.8527 83.4366 45.5104 83.3377 44.9357Z" fill="#CC8652"/>
<path d="M80.9539 35.3222C80.8398 35.0634 80.8189 34.8408 80.798 34.6181C81.1654 34.2243 81.1389 33.4632 81.0039 32.9818C80.6616 32.2054 80.361 31.8742 79.817 31.3413C78.9932 30.6999 77.663 31.3637 77.6171 32.3112C77.6074 33.1656 77.6492 33.6108 78.0277 34.294C78.2559 34.8116 78.8361 35.2513 79.3746 35.2457C79.5249 35.4113 79.639 35.6701 79.7893 35.8357C80.0745 36.4827 81.2392 35.9692 80.9539 35.3222Z" fill="#CC8652"/>
<path d="M77.9785 24.1924C77.7447 23.1363 78.0703 22.2972 77.8157 21.0185C77.4107 19.5742 76.8972 18.4096 75.8452 17.2505C74.7362 15.9621 72.6658 16.875 72.869 18.5628C73.0513 20.0279 73.5286 21.2858 74.3218 22.5589C75.0008 23.5733 75.9331 23.935 76.5551 24.82C76.9698 25.4099 78.1344 24.8964 77.9785 24.1924Z" fill="#CC8652"/>
<path d="M141.691 167.119C141.001 165.028 141.553 162.775 141.085 160.663C140.561 158.421 139.161 155.947 137.529 154.349C136.684 153.484 135.39 154.055 135.458 155.261C135.615 157.897 137.217 160.127 137.69 162.778C138.008 164.725 138.081 166.469 139.067 168.353C139.974 169.885 142.21 168.822 141.691 167.119Z" fill="#CC8652"/>
<path d="M133.931 142.334C133.718 141.5 133.821 140.682 133.701 139.885C133.582 139.087 133.203 138.404 132.861 137.628C132.233 136.204 131.735 134.724 130.352 133.865C129.399 133.281 128.457 133.774 128.152 134.835C127.76 136.399 128.61 137.802 129.238 139.225C129.616 139.908 129.865 140.649 130.337 141.368C130.809 142.087 131.518 142.47 131.99 143.189C132.612 144.074 134.165 143.39 133.931 142.334Z" fill="#CC8652"/>
<path d="M126.48 122.28C126.19 121.095 126.308 119.961 125.924 118.739C125.54 117.517 124.954 116.539 124.145 115.582C123.373 114.531 121.562 115.33 121.816 116.609C122.014 117.758 122.398 118.98 122.948 120.051C123.59 121.159 124.507 121.836 125.186 122.851C125.601 123.441 126.636 122.984 126.48 122.28Z" fill="#CC8652"/>
<path d="M121.103 105.177C120.677 103.51 120.215 101.936 119.531 100.383C118.867 99.0531 118.555 97.645 117.1 96.973C116.634 96.7921 115.987 97.0774 115.806 97.5435C115.32 99.0714 116.15 100.251 116.684 101.639C117.369 103.191 118.219 104.594 119.162 106.033C119.784 106.918 121.43 106.269 121.103 105.177Z" fill="#CC8652"/>
<path d="M116.002 89.5748C115.633 88.0373 115.508 86.7015 114.88 85.2781C114.253 83.8547 113.517 82.7109 112.594 81.4948C111.879 80.5737 110.326 81.2584 110.524 82.4077C110.799 83.9091 111.111 85.3172 111.775 86.6474C112.402 88.0708 113.304 89.0643 114.191 90.3736C114.719 91.2223 116.179 90.5015 116.002 89.5748Z" fill="#CC8652"/>
<path d="M109.495 70.9604C109.37 69.6247 109.214 68.9206 108.514 67.6836C107.607 66.1517 105.174 67.9968 106.304 69.5079C106.512 69.8029 106.719 70.0978 106.926 70.3928C107.641 71.3139 109.194 70.6293 108.997 69.48C108.919 69.1279 108.841 68.7759 108.763 68.4239C108.409 66.5705 105.5 67.1578 105.926 68.8247C106.274 70.1396 106.818 70.6725 107.683 71.7592C108.378 72.4577 109.635 71.9804 109.495 70.9604Z" fill="#CC8652"/>
<path d="M105.67 58.4277C105.187 56.6314 105.04 55.073 103.817 53.5257C103.553 53.1014 102.9 52.8481 102.419 52.9831C101.585 53.196 101.233 53.274 100.571 53.8751C99.9088 54.4762 100.013 55.5894 100.852 55.9149C101.598 56.2043 102.007 56.2558 102.841 56.0429C102.375 55.862 101.908 55.6811 101.442 55.5003C102.308 56.587 103.23 57.803 103.93 59.04C104.309 59.7232 105.997 59.52 105.67 58.4277Z" fill="#CC8652"/>
<path d="M98.2959 43.982C97.9271 42.4445 97.5945 40.8137 96.2113 39.9552C95.165 39.3347 94.0003 39.8482 93.7527 41.0393C93.4536 42.6394 94.4332 43.9849 95.3196 45.2942C96.263 46.733 98.7579 45.5557 98.2959 43.982Z" fill="#CC8652"/>
<path d="M92.4943 34.3299C93.3222 33.5785 93.798 32.905 94.0095 31.8071C94.1333 31.2116 93.5322 30.5493 92.9937 30.5549C92.2688 30.4881 91.7873 30.6231 91.0471 30.8722C89.4734 31.3342 89.8325 33.7261 91.1377 34.2325C91.3241 34.3049 91.6038 34.4134 91.7903 34.4857C92.0129 34.4649 92.3287 34.4802 92.4943 34.3299Z" fill="#CC8652"/>
<path d="M90.3637 24.0639C90.2078 23.3599 90.2955 22.8576 90.2328 22.1897C90.1702 21.5218 89.6623 20.8956 89.2115 20.3989C88.5324 19.3846 86.7208 20.1833 87.0116 21.3688C87.1104 21.9435 87.194 22.834 87.6448 23.3307C88.0956 23.8275 88.5256 24.1016 88.9403 24.6915C89.3911 25.1882 90.5196 24.768 90.3637 24.0639Z" fill="#CC8652"/>
<path d="M87.8657 14.1916C87.5805 13.5446 87.4455 13.0632 86.9946 12.5665C86.5438 12.0697 85.638 12.4691 85.83 13.0799C85.8927 13.7478 86.157 14.1722 86.4423 14.8192C86.8055 15.8183 88.2289 15.1907 87.8657 14.1916Z" fill="#CC8652"/>
<path d="M149.239 151.813C148.33 148.35 147.415 144.348 144.587 141.963C143.856 141.358 142.469 141.892 142.387 142.933C142.239 146.63 144.577 150.004 146.521 153.011C147.35 154.191 149.55 153.221 149.239 151.813Z" fill="#CC8652"/>
<path d="M143.487 132.634C143.118 131.096 143.553 129.977 142.149 128.896C141.568 128.457 140.663 128.856 140.596 129.581C140.447 131.347 141.472 131.745 142.452 133.09C142.644 133.701 143.643 133.338 143.487 132.634Z" fill="#CC8652"/>
<path d="M136.429 111.016C135.853 109.184 135.271 106.813 133.479 105.903C133.013 105.722 132.366 106.007 132.314 106.416C131.777 108.353 133.135 110.382 134.1 112.043C134.779 113.058 136.72 112.202 136.429 111.016Z" fill="#CC8652"/>
<path d="M130.273 97.5794C129.499 94.5976 129.315 91.2011 126.694 89.1112C125.87 88.4698 124.576 89.0403 124.494 90.0811C124.175 93.39 126.616 95.946 128.332 98.4352C128.918 99.4134 130.6 98.6717 130.273 97.5794Z" fill="#CC8652"/>
<path d="M123.431 80.6583C122.797 78.6964 122.454 75.9886 120.129 75.6227C119.72 75.5713 119.202 75.7995 118.964 76.1362C117.759 78.1358 119.526 80.2159 120.454 81.9705C121.476 83.7612 124.064 82.6202 123.431 80.6583Z" fill="#CC8652"/>
<path d="M120.79 67.8348C119.861 64.1489 119.143 59.3652 116.272 56.5351C115.127 55.3399 113.315 56.1386 113.425 57.7903C113.578 61.8185 116.755 65.5182 118.72 68.7477C119.342 69.6326 121.024 68.8909 120.79 67.8348Z" fill="#CC8652"/>
<path d="M112.766 47.8805C112.558 47.5855 112.48 47.2335 112.273 46.9385C111.267 44.8319 108.161 46.2011 109.038 48.3648C109.116 48.7168 109.323 49.0118 109.401 49.3639C110.278 51.5275 113.772 49.9871 112.766 47.8805Z" fill="#CC8652"/>
<path d="M112.636 47.9374C111.666 45.7376 112.068 43.3192 110.803 41.3267C110.332 40.6074 109.053 40.862 108.857 41.644C108.196 44.1765 108.41 46.9413 109.494 49.3999C110.35 51.3409 113.585 49.9146 112.636 47.9374Z" fill="#CC8652"/>
<path d="M107.441 32.2992C107 30.9481 106.745 29.6694 105.492 28.7539C104.668 28.1124 103.374 28.683 103.292 29.7238C103.158 31.1737 103.801 32.2812 104.594 33.5544C105.58 35.4383 108.038 34.3543 107.441 32.2992Z" fill="#CC8652"/>
<path d="M102.971 23.9145C102.681 22.729 102.856 21.7244 102.436 20.5959C101.958 19.3381 101.445 18.1735 100.414 17.2371C99.5121 16.2436 97.9593 16.9282 98.0846 18.264C98.1166 19.5636 98.5939 20.8215 99.2006 22.0223C99.8435 23.1298 100.703 23.678 101.289 24.6562C101.761 25.3756 103.184 24.748 102.971 23.9145Z" fill="#CC8652"/>
<path d="M154.396 131.61C153.56 127.961 152.851 122.323 149.375 120.223C148.422 119.639 147.387 120.095 147.175 121.193C146.345 125.268 150.159 129.537 152.196 132.58C152.839 133.688 154.687 132.796 154.396 131.61Z" fill="#CC8652"/>
<path d="M145.984 113.759C145.745 112.164 146.029 110.88 144.589 109.892C143.822 109.38 142.787 109.836 142.647 110.748C142.369 112.57 143.545 113.134 144.561 114.386C145.069 115.012 146.197 114.592 145.984 113.759Z" fill="#CC8652"/>
<path d="M141.697 99.6522C141.525 99.2639 141.484 98.8187 141.442 98.3734C141.333 98.6531 141.318 98.969 141.173 99.3419C141.21 99.2487 141.339 99.1916 141.375 99.0984C141.779 98.6113 141.882 97.7932 141.56 97.2394C141.275 96.5924 140.99 95.9454 140.668 95.3916C139.662 93.285 136.427 94.7113 137.304 96.875C137.589 97.522 137.874 98.169 138.066 98.7798C138.258 99.3907 138.932 99.8665 139.563 99.8971C139.657 99.9333 139.786 99.8762 139.879 99.9124C139.6 99.8039 139.356 99.6021 138.983 99.4574C139.284 99.7886 139.584 100.12 139.755 100.508C140.486 101.113 142.003 100.522 141.697 99.6522Z" fill="#CC8652"/>
<path d="M138.851 88.4651C138.716 87.9837 138.617 87.409 138.482 86.9276C137.9 84.5566 134.536 86.04 135.894 88.0687C136.158 88.493 136.516 88.9536 136.78 89.378C137.366 90.3561 139.049 89.6144 138.851 88.4651Z" fill="#CC8652"/>
<path d="M135.19 81.0378C135.091 80.4631 135.199 80.1834 135.194 79.6449C135.188 79.1064 134.903 78.4594 134.804 77.8848C134.513 76.6993 134.042 75.9799 132.83 75.5096C132.27 75.2926 131.53 75.5417 131.277 76.1943C130.843 77.313 131.056 78.1465 131.698 79.254C131.963 79.6784 132.341 80.3616 132.735 80.7289C133.129 81.0963 133.409 81.2048 133.766 81.6653C134.145 82.3485 135.403 81.8712 135.19 81.0378Z" fill="#CC8652"/>
<path d="M132.198 68.2922C131.73 66.18 131.221 63.6226 129.149 62.6041C128.439 62.2215 127.368 62.7711 127.208 63.4599C126.562 65.6765 128.107 67.7775 129.351 69.5474C130.237 70.8567 132.437 69.8868 132.198 68.2922Z" fill="#CC8652"/>
<path d="M127.184 52.1879C126.571 50.4486 126.083 48.1138 124.384 47.24C123.244 46.5833 122.173 47.1329 121.925 48.324C121.518 50.2039 122.912 52.1393 123.69 53.7283C124.882 55.9073 128.117 54.4809 127.184 52.1879Z" fill="#CC8652"/>
<path d="M123.4 40.1006C122.974 38.4337 122.434 36.5079 120.518 36.1935C120.109 36.142 119.721 36.3132 119.483 36.6499C118.329 38.2404 119.48 39.9741 120.424 41.4128C121.238 42.9086 123.955 41.7105 123.4 40.1006Z" fill="#CC8652"/>
<path d="M119.79 32.2639C119.049 30.5817 116.367 31.6866 117.073 33.462C117.815 35.1443 120.496 34.0394 119.79 32.2639Z" fill="#CC8652"/>
<path d="M119.438 32.342C118.619 30.3077 117.944 27.9005 116.441 26.2448C115.84 25.5825 114.675 26.0959 114.759 26.9865C115.097 29.1557 116.326 31.2414 117.239 33.3119C117.996 34.6782 120.066 33.7654 119.438 32.342Z" fill="#CC8652"/>
<path d="M158.258 117.234C157.853 115.79 157.873 114.081 157.633 112.486C157.358 110.985 157.175 109.52 156.9 108.018C156.339 105.87 153.61 105.991 153.13 108.058C152.795 109.751 153.092 111.475 153.647 113.085C154.316 114.953 155.756 115.941 156.721 117.603C157.156 118.415 158.528 118.197 158.258 117.234Z" fill="#CC8652"/>
<path d="M153.044 96.1176C153.023 95.895 152.873 95.7294 152.852 95.5068C152.837 95.8226 152.914 96.1746 152.899 96.4905C153.607 94.9418 152.181 91.7068 150.111 92.6196C148.04 93.5325 149.56 96.8037 151.088 97.2892C150.844 97.0875 150.637 96.7925 150.393 96.5908C150.543 96.7563 150.564 96.979 150.715 97.1446C151.435 98.6041 153.635 97.6342 153.044 96.1176Z" fill="#CC8652"/>
<path d="M148.517 87.6036C148.283 86.5475 148.645 85.6152 148.354 84.4297C148.042 83.0216 147.343 81.7846 146.441 80.7912C145.446 79.7615 143.764 80.5032 143.853 81.9322C143.942 83.3612 144.383 84.7123 145.249 85.799C145.928 86.8133 146.896 87.0819 147.482 88.06C147.839 88.5206 148.652 88.085 148.517 87.6036Z" fill="#CC8652"/>
<path d="M144.129 70.9913C143.865 70.5669 143.507 70.1064 143.243 69.682C142.471 68.6315 140.53 69.4873 140.784 70.766C140.919 71.2475 141.018 71.8221 141.153 72.3035C141.72 74.9904 145.824 73.2579 144.129 70.9913Z" fill="#CC8652"/>
<path d="M142.457 63.6918C142.01 61.8022 141.449 59.6538 139.765 58.4642C138.999 57.9522 137.963 58.4086 137.824 59.32C137.567 61.3654 138.775 63.2285 139.869 64.8328C140.698 66.0127 142.768 65.0999 142.457 63.6918Z" fill="#CC8652"/>
<path d="M137.375 53.5679C137.39 53.2521 138.001 53.06 138.202 52.8165C138.477 52.3865 138.528 51.9775 138.616 51.4751C138.682 50.7502 138.175 50.1241 137.45 50.0573C136.258 49.8097 135.632 50.3176 134.862 51.1984C133.997 52.043 134.791 53.3161 135.594 53.7349L135.557 53.8282C135.993 54.6407 137.292 54.6087 137.375 53.5679Z" fill="#CC8652"/>
<path d="M135.262 39.6618C134.94 39.108 134.619 38.5542 134.132 38.1507C133.531 37.4884 132.496 37.9449 132.579 38.8354C132.642 39.5033 132.741 40.0779 132.933 40.6888C133.524 42.2054 136.076 41.1576 135.262 39.6618Z" fill="#CC8652"/>
<path d="M165.414 96.305C164.967 94.4154 164.924 92.0388 163.075 90.9995C162.179 90.5445 161.309 90.8506 161.134 91.8553C160.654 93.9216 162.343 95.6497 163.473 97.1608C164.059 98.1389 165.648 97.3611 165.414 96.305Z" fill="#CC8652"/>
<path d="M159.366 82.5883C159.345 82.3657 159.324 82.143 159.21 81.8842C159.065 82.2571 159.05 82.573 158.905 82.9459C159.691 81.7492 159.705 79.5021 159.393 78.0939C159.061 76.4632 156.979 76.2991 156.214 77.7183C155.651 78.8941 155.496 80.1214 155.658 81.3639C155.912 82.6427 156.715 83.0615 157.596 83.8323C158.663 84.6755 159.729 83.5873 159.366 82.5883Z" fill="#CC8652"/>
<path d="M157.906 68.9356C157.735 68.5474 157.621 68.2886 157.413 67.9936C156.257 65.7214 152.893 67.2048 153.79 69.5911C153.868 69.9431 154.075 70.2381 154.153 70.5901C155.273 72.9555 159.026 71.301 157.906 68.9356Z" fill="#CC8652"/>
<path d="M155.544 61.4763C155.482 60.8084 155.864 60.0987 155.688 59.172C155.511 58.2454 155.148 57.2463 154.712 56.4337C154.012 55.1967 152.675 53.3907 151.086 54.1686C149.533 54.8532 149.85 56.7998 150.198 58.1147C150.468 59.0776 150.868 59.9834 151.433 60.739C151.998 61.4945 152.837 61.82 153.381 62.3529C154.153 63.4035 155.706 62.7188 155.544 61.4763Z" fill="#CC8652"/>
<path d="M150.442 51.1296C150.421 50.907 151.192 50.0262 151.207 49.7103C151.315 49.4306 151.331 49.1148 151.346 48.7989C151.449 47.9808 151.609 47.292 151.432 46.3653C151.157 44.8639 150.451 43.0885 148.706 43.1623C147.945 43.1887 147.521 43.4531 147.174 44.0696C146.647 45.1521 147.181 46.5394 147.286 47.6525C147.384 48.2272 147.411 48.9883 147.546 49.4697C147.852 50.3394 148.691 50.6649 148.94 51.4052C149.246 52.2748 150.561 51.9269 150.442 51.1296Z" fill="#CC8652"/>
<path d="M172.199 79.0941C171.96 77.4995 171.72 75.9049 171.388 74.2741C170.998 72.514 170.226 71.4635 168.858 70.2891C167.827 69.3527 165.886 70.2085 165.882 71.6014C165.826 73.4033 166.117 74.5888 167.117 76.1569C168.097 77.5024 169.113 78.7547 170.129 80.0069C170.844 80.928 172.303 80.2072 172.199 79.0941Z" fill="#CC8652"/>
<path d="M168.092 64.5217C168.014 64.1697 167.843 63.7815 167.765 63.4294C167.63 62.948 166.9 62.3427 166.361 62.3483C165.6 62.3748 165.248 62.4527 164.809 63.033C164.441 63.4267 164.338 64.2449 164.66 64.7987C164.867 65.0937 165.038 65.4819 165.246 65.7769C166.137 67.6247 168.726 66.4836 168.092 64.5217Z" fill="#CC8652"/>
<path d="M167.611 64.6566C166.962 63.0106 166.148 61.5148 165.629 59.8117C165.416 58.9783 165.525 58.6986 165.592 57.9736C165.628 57.8804 165.638 57.026 165.529 57.3057C165.514 57.6216 166.02 56.3164 166.02 56.3164C166.361 55.1615 165.713 53.5154 164.32 53.5113C163.372 53.4654 162.761 53.6575 161.892 53.9636C160.375 54.555 160.076 56.1552 160.517 57.5063C161.036 59.2094 162.197 60.0887 163.047 61.4913C163.897 62.8938 164.654 64.2602 165.504 65.6627C166.168 66.9929 168.202 66.1733 167.611 64.6566Z" fill="#CC8652"/>
<path d="M163.757 49.4316C163.312 49.4733 162.903 49.4218 162.437 49.241C162.81 49.3857 163.053 49.5874 163.426 49.7321C163.012 49.1422 163.021 48.2878 162.643 47.6046C162.285 47.1441 161.949 46.9061 161.389 46.6891C160.737 46.4359 160.09 46.7211 159.686 47.2082C158.015 49.0268 159.855 50.9205 161.424 51.8513C162.041 52.1978 162.579 52.1922 163.169 51.7775C163.464 51.5702 163.723 51.4561 164.018 51.2488C164.887 50.9426 164.834 49.4204 163.757 49.4316Z" fill="#CC8652"/>
<path d="M181.975 72.6973C181.098 70.5336 180.408 68.4423 178.978 66.6001C178.413 65.8446 177.026 66.3789 177.296 67.3418C177.691 69.6404 178.769 71.5606 179.775 73.6672C180.403 75.0906 182.473 74.1778 181.975 72.6973Z" fill="#CC8652"/>
<path d="M180.039 59.718C179.613 58.0511 179.208 56.6068 177.696 55.8054C177.173 55.4951 176.267 55.8945 176.014 56.5471C175.549 58.2975 176.378 59.4774 177.322 60.9161C178.151 62.096 180.444 61.1623 180.039 59.718Z" fill="#CC8652"/>
<path d="M180.551 58.9512C179.41 56.3631 175.306 58.0956 176.54 60.7198C177.645 63.4011 181.656 61.6324 180.551 58.9512Z" fill="#CC8652"/>
</svg>
