<?xml version="1.0" encoding="utf-8"?>
<!-- Generator: Adobe Illustrator 25.0.0, SVG Export Plug-In . SVG Version: 6.00 Build 0)  -->
<svg version="1.1" id="Layer_1" xmlns="http://www.w3.org/2000/svg" xmlns:xlink="http://www.w3.org/1999/xlink" x="0px" y="0px"
	 viewBox="0 0 126 96" style="enable-background:new 0 0 126 96;" xml:space="preserve">
<style type="text/css">
	.st0{opacity:1;fill:none;stroke:#D89916;stroke-width:2;enable-background:new    ;}
</style>
<path class="st0" d="M24.1,17.4C29.9,21.2,33,26,33,31.8c0,2.8-0.7,5-2.4,6.3l0,0c-1.5,1.1-3.7,2.1-6.7,3.1l0,0l0,0
	c-7.7,2.2-13.4,5.4-17.2,9.8C2.9,55.3,1,60.8,1,67.5c0,7.8,2.4,14.3,7.3,19.6c4.8,5.2,11.3,7.9,19.7,7.9c7.8,0,14.4-2.8,19.9-8.3
	 M43,20.9L43,20.9C51.7,32,56,45.1,56,60.2c0,12.3-2.8,21-8.2,26.5 M8.2,1.1C22.9,3.4,34.5,10,43,20.9 M24.1,17.4
	C24.1,17.4,24.1,17.4,24.1,17.4c-5.5-3.5-11.1-5.8-17.1-6.9l1.2-9.4l2.2,0.4 M112,20.9c8.7,11.1,13,24.3,13,39.7
	c0,12.3-2.8,21-8.2,26.3c-5.4,5.4-12.1,8.1-19.9,8.1c-8.3,0-14.9-2.7-19.7-7.9C72.4,81.8,70,75.3,70,67.5c0-6.6,1.9-12,5.6-16.3
	c3.8-4.3,9.4-7.6,17.2-9.7l0,0l0,0c3-1,5.2-2,6.7-3.1c1.7-1.3,2.4-3.5,2.4-6.3c0-5.8-3.1-10.6-9.1-14.5l0,0
	C87.4,14,81.7,11.7,76,10.8l1.2-9.7C92,3.4,103.5,10,112,20.9L112,20.9z M47.1,87.4"/>
</svg>
