<svg xmlns="http://www.w3.org/2000/svg" xmlns:xlink="http://www.w3.org/1999/xlink" width="207.278" height="273.61" viewBox="0 0 207.278 273.61"><defs><style>.a{fill:#02fcdc;}.b{fill:#8b74ed;}.c{fill:url(#a);}</style><linearGradient id="a" x1="0.5" x2="0.5" y2="1" gradientUnits="objectBoundingBox"><stop offset="0" stop-color="#8b74ed"/><stop offset="1" stop-color="#00ffdc"/></linearGradient></defs><g transform="translate(-378.001 -404.407)"><path class="a" d="M33,179.739h5.218V175.1l7.141-4.848v9.489h6.18v6.317H45.36v11.426a19.954,19.954,0,0,0,.206,3.2,3.392,3.392,0,0,0,.865,1.881,3.351,3.351,0,0,0,1.881.865,20.354,20.354,0,0,0,3.255.206v6.619h-.989a23.92,23.92,0,0,1-5.919-.618,7.869,7.869,0,0,1-3.777-2.115,8.432,8.432,0,0,1-2.019-3.914,25.969,25.969,0,0,1-.591-6.07V186.057H33Z" transform="translate(345.001 448.432)"/><path class="a" d="M49,177.16h6.99v4.546c1.373-3.021,4.037-4.546,7.828-4.546a11.164,11.164,0,0,1,2.994.371,11.742,11.742,0,0,1,2.376.934l-2.705,6.715a7.129,7.129,0,0,0-1.744-.865,7.416,7.416,0,0,0-2.486-.343,6,6,0,0,0-4.655,1.744A8.336,8.336,0,0,0,56,191.429V207.7H49Z" transform="translate(350.973 451.011)"/><path class="a" d="M78.907,207.741a15.106,15.106,0,0,1-5.493-1.03,14.763,14.763,0,0,1-8.24-7.787,15.2,15.2,0,0,1-1.373-6.468,15.738,15.738,0,0,1,1.277-6.509,14.5,14.5,0,0,1,8.24-7.787,15.807,15.807,0,0,1,5.6-1.03,14.09,14.09,0,0,1,5.589,1.085,11.591,11.591,0,0,1,4.285,2.994v-4.037h7.045v30.514H88.795V203.36a11.591,11.591,0,0,1-4.271,3.214A13.6,13.6,0,0,1,78.907,207.741Zm1.14-6.468a9.352,9.352,0,0,0,3.653-.687,8.24,8.24,0,0,0,2.87-1.909,9.49,9.49,0,0,0,1.909-2.843,8.871,8.871,0,0,0,0-6.866,9.352,9.352,0,0,0-1.909-2.815,8.611,8.611,0,0,0-2.87-1.881,9.984,9.984,0,0,0-7.278,0,9.228,9.228,0,0,0-2.939,1.854,8.24,8.24,0,0,0-1.964,2.747,8.624,8.624,0,0,0-.7,3.474,8.858,8.858,0,0,0,.7,3.5,8.432,8.432,0,0,0,1.964,2.843,9.064,9.064,0,0,0,2.953,1.9,9.366,9.366,0,0,0,3.612.687Z" transform="translate(356.497 451)"/><path class="a" d="M107.206,207.748a14.5,14.5,0,0,1-5.74-1.1,10.478,10.478,0,0,1-4.216-3.117v18.2H90.26V177.179h6.99v4.491a11.439,11.439,0,0,1,4.189-3.337,13.28,13.28,0,0,1,5.713-1.222,15.672,15.672,0,0,1,5.591,1.031,14.254,14.254,0,0,1,4.791,2.993,14.832,14.832,0,0,1,3.365,4.793,15.738,15.738,0,0,1,1.277,6.509A15.408,15.408,0,0,1,120.8,198.9a14.763,14.763,0,0,1-3.419,4.793,14.53,14.53,0,0,1-4.793,2.994,15.107,15.107,0,0,1-5.383,1.057Zm-1.154-6.468a9.311,9.311,0,0,0,6.523-2.568,8.637,8.637,0,0,0,1.964-2.843,8.858,8.858,0,0,0,.7-3.5,8.624,8.624,0,0,0-.7-3.474,8.46,8.46,0,0,0-1.964-2.747,9.407,9.407,0,0,0-2.911-1.854,9.915,9.915,0,0,0-7.251,0,8.555,8.555,0,0,0-4.752,4.7,9.2,9.2,0,0,0,0,6.866,8.707,8.707,0,0,0,1.854,2.829,8.24,8.24,0,0,0,2.87,1.909,9.284,9.284,0,0,0,3.667.687Z" transform="translate(366.375 450.993)"/><path class="a" d="M134.28,201.265l17.743-17.853H134.651V177.15H161.2v6.427L143.467,201.43h18.045v6.248H134.28Z" transform="translate(390.807 451.008)"/><path class="a" d="M171.252,207.741a17.469,17.469,0,0,1-6.578-1.181,15.106,15.106,0,0,1-5.081-3.241,14.6,14.6,0,0,1-3.3-4.848,15.23,15.23,0,0,1-1.167-5.96,15.023,15.023,0,0,1,1.222-6.029,15.23,15.23,0,0,1,3.365-4.889,16.273,16.273,0,0,1,11.275-4.463,17.331,17.331,0,0,1,6.276,1.1,14.6,14.6,0,0,1,4.985,3.076,14.3,14.3,0,0,1,3.255,4.669,14.53,14.53,0,0,1,1.181,5.864v2.5h-24.87A9.036,9.036,0,0,0,165,199.556a9.613,9.613,0,0,0,6.207,1.978,8.885,8.885,0,0,0,8.459-5.356l5.782,3.337a15.312,15.312,0,0,1-14.227,8.24Zm-.261-24.4a10.451,10.451,0,0,0-5.493,1.373,7.58,7.58,0,0,0-3.255,3.708h17.3a6.427,6.427,0,0,0-3.021-3.818,10.876,10.876,0,0,0-5.534-1.263Z" transform="translate(398.59 451)"/><path class="a" d="M171.252,207.741a17.469,17.469,0,0,1-6.578-1.181,15.106,15.106,0,0,1-5.081-3.241,14.6,14.6,0,0,1-3.3-4.848,15.23,15.23,0,0,1-1.167-5.96,15.023,15.023,0,0,1,1.222-6.029,15.23,15.23,0,0,1,3.365-4.889,16.273,16.273,0,0,1,11.275-4.463,17.331,17.331,0,0,1,6.276,1.1,14.6,14.6,0,0,1,4.985,3.076,14.3,14.3,0,0,1,3.255,4.669,14.53,14.53,0,0,1,1.181,5.864v2.5h-24.87A9.036,9.036,0,0,0,165,199.556a9.613,9.613,0,0,0,6.207,1.978,8.885,8.885,0,0,0,8.459-5.356l5.782,3.337a15.312,15.312,0,0,1-14.227,8.24Zm-.261-24.4a10.451,10.451,0,0,0-5.493,1.373,7.58,7.58,0,0,0-3.255,3.708h17.3a6.427,6.427,0,0,0-3.021-3.818,10.876,10.876,0,0,0-5.534-1.263Z" transform="translate(336.59 451)"/><g transform="translate(0 -5)"><g transform="translate(478.937 669.586)"><path class="a" d="M107.571,211.064v1.373H106.5V202.22h1.071v4.436a3.255,3.255,0,0,1,2.747-1.607,3.529,3.529,0,0,1,3.461,3.749h0a3.543,3.543,0,0,1-3.461,3.763,3.268,3.268,0,0,1-2.747-1.5Zm5.122-2.211h0a2.609,2.609,0,0,0-2.541-2.747,2.747,2.747,0,0,0-2.623,2.747h0a2.747,2.747,0,0,0,2.623,2.747,2.554,2.554,0,0,0,2.527-2.747Z" transform="translate(-106.5 -202.22)"/><g transform="translate(8.281 2.98)"><path class="a" d="M118.669,204.4h1.154l-3.035,7.471c-.618,1.5-1.373,2.046-2.417,2.046a3.227,3.227,0,0,1-1.538-.371l.371-.851a2.28,2.28,0,0,0,1.126.275c.645,0,1.057-.343,1.483-1.373l-3.282-7.21h1.195l2.623,6.029Z" transform="translate(-112.53 -204.39)"/></g></g><g transform="translate(500.099 668.515)"><g transform="translate(0 1.497)"><path class="a" d="M125.947,212.335a3.035,3.035,0,0,1-2.1-.714,2.4,2.4,0,0,1-.783-1.854v-3.255H121.91v-1.7h1.154v-2.046l2.184-.233v2.28h1.167v1.7h-1.167v2.953a1.167,1.167,0,0,0,.261.851.948.948,0,0,0,.673.247l.591-.1.453,1.511a2.348,2.348,0,0,1-1.277.357Z" transform="translate(-121.91 -202.53)"/></g><g transform="translate(5.658 3.694)"><path class="a" d="M128.268,205.023a2.747,2.747,0,0,1,2.019-.824,4.231,4.231,0,0,1,.728,0l-.343,2.087a1.7,1.7,0,0,0-1.085-.357,1.675,1.675,0,0,0-1.373,1.112v4.642H126.03v-7.32l2.184-.233Z" transform="translate(-126.03 -204.13)"/><path class="a" d="M130.026,205.088a6.345,6.345,0,0,1,3.406-.906,3.145,3.145,0,0,1,2.225.755,2.925,2.925,0,0,1,.81,2.252v4.532h-2.156v-.6a3.324,3.324,0,0,1-1.717.6,3.571,3.571,0,0,1-2.321-.645,2.156,2.156,0,0,1-.783-1.772,2.746,2.746,0,0,1,.742-1.881,3.008,3.008,0,0,1,2.362-.824,4.12,4.12,0,0,1,1.717.453v-.233c0-.549-.426-.851-1.25-.906a4.326,4.326,0,0,0-2.17.453Zm4.285,4.34v-.851Q134,208,132.828,208c-.934.1-1.373.453-1.469,1.057s.536.92,1.469.961S134.091,209.853,134.311,209.427Z" transform="translate(-124.739 -204.113)"/></g><g transform="translate(18.182 3.787)"><path class="a" d="M135.15,214.913V204.434l2.17-.233v.6a3.035,3.035,0,0,1,1.7-.6,3.694,3.694,0,0,1,2.788,1.1,3.859,3.859,0,0,1,0,5.273,3.68,3.68,0,0,1-2.843,1.126,2.554,2.554,0,0,1-1.7-.6v3.818Zm2.17-7.622v1.222A1.648,1.648,0,0,0,138.954,210a2.019,2.019,0,0,0,2.087-1.868,1.964,1.964,0,0,0-2.087-2.184c-.989.11-1.538.563-1.634,1.3Z" transform="translate(-135.15 -204.198)"/></g><g transform="translate(26.212 3.716)"><path class="a" d="M141,207.955a3.584,3.584,0,0,1,1.085-2.747,3.873,3.873,0,0,1,2.747-1.057,3.6,3.6,0,0,1,2.747,1.057,3.749,3.749,0,0,1,1.016,2.747v.755H143.24a1.373,1.373,0,0,0,.536.948,1.854,1.854,0,0,0,1.085.343,3.351,3.351,0,0,0,1.95-.6l1.236,1.195a3.763,3.763,0,0,1-3.186,1.14,3.873,3.873,0,0,1-2.747-1.057A3.6,3.6,0,0,1,141,207.955Zm4.971-1.689a1.909,1.909,0,0,0-2.184,0,1.1,1.1,0,0,0-.467.934h3.172a1.1,1.1,0,0,0-.481-.934Z" transform="translate(-140.997 -204.146)"/><path class="a" d="M153.114,211.716H146.92v-.508l3.227-5.232H146.92V204.19h6.194v.549l-3.227,5.191h3.227Z" transform="translate(-138.786 -204.13)"/></g><g transform="translate(40.631 3.716)"><path class="a" d="M151.5,207.956a3.584,3.584,0,0,1,1.085-2.747,3.873,3.873,0,0,1,2.747-1.057,3.584,3.584,0,0,1,2.747,1.057,3.749,3.749,0,0,1,1.016,2.747v.755H153.74a1.373,1.373,0,0,0,.536.948,1.868,1.868,0,0,0,1.1.343,3.337,3.337,0,0,0,1.936-.6l1.236,1.195a3.749,3.749,0,0,1-3.172,1.14,3.873,3.873,0,0,1-2.747-1.057A3.6,3.6,0,0,1,151.5,207.956Zm4.971-1.689a1.909,1.909,0,0,0-2.184,0,1.1,1.1,0,0,0-.453.934h3.1a1.1,1.1,0,0,0-.467-.934Z" transform="translate(-151.497 -204.146)"/></g><g transform="translate(49.109)"><path class="a" d="M160,201.44v9.187h6.207v2.115H157.67v-11.3Z" transform="translate(-157.67 -201.44)"/></g><g transform="translate(58.005)"><path class="a" d="M164.686,205.088a6.427,6.427,0,0,1,3.419-.906,3.09,3.09,0,0,1,2.211.755,2.884,2.884,0,0,1,.81,2.252v4.532h-2.17v-.6a3.282,3.282,0,0,1-1.7.6,3.64,3.64,0,0,1-2.335-.645,2.2,2.2,0,0,1-.769-1.772,2.747,2.747,0,0,1,.728-1.881,3.035,3.035,0,0,1,2.376-.824,4.12,4.12,0,0,1,1.7.453v-.233q0-.824-1.236-.906a4.285,4.285,0,0,0-2.17.453Zm4.271,4.367V208.6c-.206-.385-.7-.577-1.469-.577A1.423,1.423,0,0,0,166,209.084c-.11.6.549.92,1.483.961s1.263-.192,1.469-.618Z" transform="translate(-164.148 -200.419)"/><path class="a" d="M171.96,201.44v4.367a2.623,2.623,0,0,1,1.7-.6,3.68,3.68,0,0,1,2.843,1.126,3.818,3.818,0,0,1,1.044,2.637,3.763,3.763,0,0,1-1.044,2.637,3.694,3.694,0,0,1-2.843,1.14,3.035,3.035,0,0,1-1.7-.6v.6h-2.17v-11.3Zm1.634,9.613a1.991,1.991,0,0,0,2.087-2.2,2.019,2.019,0,0,0-2.087-1.868,1.648,1.648,0,0,0-1.634,1.483v1.222c.1.755.645,1.167,1.634,1.318Z" transform="translate(-162.042 -201.44)"/><path class="a" d="M180.306,204.4a3.789,3.789,0,0,1,1.14.769l-1.208,1.373a1.7,1.7,0,0,0-1.373-.6,1.373,1.373,0,0,0-1.057.288.3.3,0,0,0,0,.508,2.54,2.54,0,0,0,1.057.384,3.653,3.653,0,0,1,1.881.632,2.142,2.142,0,0,1,.742,1.868,1.868,1.868,0,0,1-.865,1.648,3.5,3.5,0,0,1-2.032.59,4.7,4.7,0,0,1-1.826-.3,3.873,3.873,0,0,1-1.263-.824l1.195-1.373a2.362,2.362,0,0,0,1.648.714,1.621,1.621,0,0,0,1.154-.288.426.426,0,0,0,0-.563c-.124-.178-.522-.316-1.222-.371a4.519,4.519,0,0,1-1.744-.577,1.826,1.826,0,0,1-.783-1.73,2.046,2.046,0,0,1,.893-1.785,3.337,3.337,0,0,1,1.84-.6A4.6,4.6,0,0,1,180.306,204.4Z" transform="translate(-159.911 -200.431)"/></g></g></g><g transform="translate(17.244 -264.339)"><path class="b" d="M451.922,699.006c5.719,0,10.356-5.023,10.356-11.218s-4.637-11.218-10.356-11.218-10.355,5.022-10.355,11.218S446.2,699.006,451.922,699.006Z" transform="translate(20.325 4.114)"/><ellipse class="b" cx="5.709" cy="6.184" rx="5.709" ry="6.184" transform="translate(439.887 668.746)"/><path class="c" d="M523.825,828.8a22.827,22.827,0,0,0-3.067-10.353l-1.851-3.216-7.8-13.571-7.809-13.571-7.8-13.57-7.8-13.571-.722-1.25V717.43h2.19a7.949,7.949,0,0,0,7.925-7.927v-1.32a7.948,7.948,0,0,0-7.925-7.926H437.634a7.949,7.949,0,0,0-7.925,7.926v1.32a7.95,7.95,0,0,0,7.925,7.927h1.872V759.7l-.714,1.25-7.736,13.571-7.733,13.57-7.738,13.571-7.736,13.571-1.88,3.3a22.8,22.8,0,0,0-3.026,10.274,23.12,23.12,0,0,0,3.667,13.571,22.774,22.774,0,0,0,19.345,10.553h74.861a22.755,22.755,0,0,0,19.341-10.553A23.045,23.045,0,0,0,523.825,828.8Z" transform="translate(0 16.571)"/></g></g></svg>